<svg xmlns="http://www.w3.org/2000/svg" fill="none" viewBox="0 0 263 88" height="88" width="263">
<path fill="#00749A" d="M32.2771 44.0006C32.2771 50.1308 35.799 55.4131 40.9512 57.8914L33.6474 37.7404C32.7995 39.6964 32.2771 41.7823 32.2771 44.0006ZM58.1694 43.2159C58.1694 41.3244 57.4515 39.9552 56.8647 38.9761C56.0823 37.6713 55.3655 36.6278 55.3655 35.3242C55.3655 33.8894 56.4747 32.5835 57.9738 32.5835H58.1694C55.4288 30.0443 51.7769 28.5428 47.7455 28.5428C42.3321 28.6084 37.6378 31.3467 34.8327 35.5209H35.8107C37.441 35.5209 39.9194 35.3254 39.9194 35.3254C40.7673 35.2598 40.8329 36.4989 40.0365 36.6301C40.0365 36.6301 39.1885 36.7472 38.2761 36.7472L43.898 53.4431L47.2887 43.3354L44.876 36.7484L43.2456 36.6313C42.3977 36.5657 42.5277 35.3265 43.3112 35.3265C43.3112 35.3265 45.8551 35.5221 47.3543 35.5221C48.9847 35.5221 51.463 35.3265 51.463 35.3265C52.3109 35.2609 52.3765 36.5001 51.5801 36.6313C51.5801 36.6313 50.7321 36.7484 49.8197 36.7484L55.4416 53.3798L57.0064 48.2264C57.6588 46.0737 58.18 44.5745 58.18 43.2042L58.1694 43.2159ZM47.995 45.371L43.3651 58.8049C44.7354 59.1961 46.2346 59.4573 47.7338 59.4573C49.5609 59.4573 51.2557 59.1317 52.8872 58.6093C52.8216 58.5438 52.8216 58.4922 52.7701 58.4137L47.995 45.371ZM61.3001 36.6336L61.4172 38.1984C61.4172 39.7631 61.156 41.5247 60.2437 43.7418L55.5588 57.3714C60.1242 54.6974 63.2537 49.7408 63.2537 44.0018C63.1881 41.3279 62.4713 38.8484 61.2978 36.6324L61.3001 36.6336ZM47.7338 26C37.8205 26 29.7344 34.0874 29.7344 43.9995C29.7344 53.9116 37.8205 62 47.7338 62C57.6471 62 65.7332 53.9127 65.7332 44.0006C65.7332 34.0885 57.6471 26 47.7338 26ZM47.7338 61.2165C38.2773 61.2165 30.5823 53.5215 30.5823 43.9995C30.5823 34.5313 38.2773 26.848 47.7338 26.848C57.1903 26.848 64.8852 34.543 64.8852 43.9995C64.8852 53.5215 57.1903 61.2165 47.7338 61.2165Z"></path>
<path fill="#00749A" d="M142.498 38.2095H134.088V39.0833C136.716 39.0833 137.153 39.6294 137.153 42.9388V48.8968C137.153 52.228 136.716 52.8396 134.088 52.8396C132.073 52.5775 130.671 51.438 128.831 49.4229L126.641 47.0564C129.532 46.5103 131.11 44.6899 131.11 42.6766C131.11 40.1354 128.92 38.1203 124.802 38.1203H116.567V38.9941C119.196 38.9941 119.632 39.5402 119.632 42.8496V48.8076C119.632 52.1388 119.196 52.7504 116.567 52.7504V53.6242H125.854V52.7504C123.226 52.7504 122.789 52.137 122.789 48.8076V47.1438H123.577L128.747 53.6242H142.414C149.16 53.6242 152.051 50.0327 152.051 45.8277C152.138 41.71 149.248 38.2059 142.502 38.2059L142.498 38.2095ZM122.875 45.8313V39.6294H124.804C126.907 39.6294 127.87 41.1184 127.87 42.784C127.87 44.4497 126.905 45.8495 124.804 45.8495L122.875 45.8313ZM142.674 52.3117H142.323C140.659 52.3117 140.394 51.8749 140.394 49.7705V39.613H142.669C147.575 39.613 148.45 43.2045 148.45 45.9205C148.45 48.8112 147.486 52.3154 142.669 52.3154L142.674 52.3117ZM90.4578 47.6025L93.698 38.053C94.6628 35.2496 94.2441 34.4614 91.2442 34.4614V33.4966H100.091V34.4614C97.113 34.4614 96.4139 35.1622 95.2726 38.579L89.9262 54.5926H89.2254L84.4069 39.9625L79.5866 54.5926H78.9732L73.8034 38.5608C72.6639 35.144 71.9831 34.4432 69.2471 34.4432V33.4784H79.5866V34.4432C76.7833 34.4432 76.0825 35.0567 77.0454 38.0348L80.2001 47.5843L84.933 33.4766H85.8068L90.4578 47.6025ZM106.4 54.4379C101.231 54.4379 97.0256 50.6698 97.0256 46.0279C97.0256 41.4716 101.212 37.6179 106.4 37.6179C111.588 37.6179 115.775 41.386 115.775 46.0279C115.775 50.6698 111.588 54.4379 106.4 54.4379ZM106.4 39.0196C102.108 39.0196 100.619 42.8751 100.619 45.9405C100.619 49.006 102.108 52.8615 106.4 52.8615C110.78 52.8615 112.271 49.006 112.271 45.9405C112.271 42.9624 110.782 39.0196 106.4 39.0196ZM163.699 52.8597V53.8245H152.923V52.8597C156.078 52.8597 156.6 52.0715 156.6 47.3404V39.8041C156.6 35.0712 156.054 34.3722 152.923 34.3722V33.4074H162.647C167.466 33.4074 170.184 35.8613 170.184 39.1888C170.184 42.4291 167.468 44.9703 162.647 44.9703H160.019V47.4241C160.019 52.066 160.565 52.856 163.696 52.856L163.699 52.8597ZM162.647 35.1622H160.019V43.3101H162.647C165.276 43.3101 166.503 41.4898 166.503 39.2799C166.503 37.07 165.276 35.1622 162.647 35.1622ZM202.336 49.4411L202.074 50.3148C201.637 51.8912 201.109 52.4173 197.782 52.4173H197.168C194.715 52.4173 194.278 51.8712 194.278 48.5618V46.3719C197.955 46.3719 198.221 46.7233 198.221 49.1753H199.094V42.1669H198.221C198.221 44.6208 197.958 44.9703 194.278 44.9703V39.7204H196.819C200.15 39.7204 200.674 40.2665 201.111 41.8229L201.373 42.6967H202.162L201.81 38.3169H188.056V39.1907C190.684 39.1907 191.121 39.7368 191.121 43.0462V49.0042C191.121 52.0696 190.77 52.8597 188.667 52.947C186.738 52.6849 185.336 51.5454 183.498 49.5302L181.308 47.1638C184.198 46.6177 185.777 44.7973 185.777 42.784C185.777 40.2428 183.587 38.2277 179.469 38.2277H171.234V39.1015C173.863 39.1015 174.299 39.6476 174.299 42.957V48.915C174.299 52.2462 173.863 52.8578 171.234 52.8578V53.7316H180.521V52.8578C177.893 52.8578 177.456 52.2444 177.456 48.915V47.2512H178.244L183.414 53.7316H202.688L202.95 49.3519H202.336V49.4411ZM177.543 45.8495V39.6294H179.473C181.575 39.6294 182.538 41.1184 182.538 42.784C182.538 44.4497 181.573 45.8495 179.473 45.8495H177.543Z"></path>
<path fill="#00749A" d="M212.439 54.589C210.6 54.589 208.934 53.6242 208.252 53.0126C207.99 53.2747 207.638 53.9774 207.464 54.589H206.59V48.1086H207.555C207.906 51.174 210.096 53.0144 212.812 53.0144C214.301 53.0144 215.528 52.1406 215.528 50.739C215.528 49.512 214.476 48.5491 212.55 47.6735L209.921 46.4466C208.083 45.5728 206.681 43.9927 206.681 41.9776C206.681 39.7022 208.783 37.7908 211.674 37.7908C213.25 37.7908 214.565 38.3187 215.351 39.0177C215.613 38.843 215.788 38.3169 215.965 37.7908H216.838V43.3101H215.874C215.522 41.1202 214.297 39.2799 211.843 39.2799C210.529 39.2799 209.302 40.0681 209.302 41.2094C209.302 42.4363 210.267 43.048 212.542 44.1001L215.084 45.3271C217.359 46.3792 218.238 48.1304 218.238 49.5139C218.151 52.492 215.61 54.5926 212.457 54.5926L212.439 54.589Z"></path>
<path fill="#00749A" d="M227.729 54.589C225.89 54.589 224.224 53.6242 223.542 53.0126C223.28 53.2747 222.928 53.9774 222.754 54.589H221.88V48.1086H222.845C223.196 51.174 225.386 53.0144 228.102 53.0144C229.591 53.0144 230.818 52.1406 230.818 50.739C230.818 49.512 229.766 48.5491 227.84 47.6735L225.211 46.4466C223.373 45.5728 221.971 43.9927 221.971 41.9776C221.971 39.7022 224.073 37.7908 226.964 37.7908C228.541 37.7908 229.855 38.3187 230.641 39.0177C230.903 38.843 231.078 38.3169 231.255 37.7908H232.128V43.3101H231.164C230.812 41.1202 229.587 39.2799 227.133 39.2799C225.819 39.2799 224.592 40.0681 224.592 41.2094C224.592 42.4363 225.557 43.048 227.832 44.1001L230.374 45.3271C232.649 46.3792 233.528 48.1304 233.528 49.5139C233.441 52.492 230.9 54.5926 227.747 54.5926L227.729 54.589Z"></path>
</svg>
