<svg xmlns="http://www.w3.org/2000/svg" fill="none" viewBox="0 0 263 88" height="88" width="263">
<g clip-path="url(#clip0_3_339)">
<path fill="#1B243F" d="M95.3839 51.1923C94.1411 51.1923 92.9339 51.0144 91.7265 50.6231C90.5936 50.2553 89.5524 49.6489 88.6729 48.8444L90.2707 46.1409C91.1585 46.7456 92.0106 47.2081 92.8628 47.5638C93.6796 47.9196 94.4963 48.0618 95.2775 48.0618C95.8455 48.0618 96.3071 47.9552 96.6267 47.7417C96.9463 47.5638 97.0883 47.2436 97.0883 46.8523C97.0883 46.4966 96.9108 46.1409 96.4847 45.9274C95.8174 45.607 95.1139 45.3682 94.3897 45.216L91.9041 44.3978C91.2294 44.1133 90.6969 43.8286 90.2707 43.5085C89.8446 43.224 89.525 42.8327 89.3475 42.4414C89.1543 41.9922 89.0574 41.5075 89.0635 41.0184C89.0427 39.6182 89.6564 38.2839 90.7323 37.39C91.2294 36.9631 91.8686 36.6429 92.5788 36.3939C93.2889 36.1449 94.0701 36.0382 94.8868 36.0382C95.9876 36.0382 97.0174 36.1805 97.9761 36.4651C98.9348 36.7852 99.8579 37.3188 100.746 38.1014L99.0058 40.7695C98.3184 40.2768 97.5805 39.8593 96.8042 39.5243C96.1296 39.2398 95.526 39.133 94.8868 39.133C94.4252 39.133 93.9992 39.2042 93.6796 39.4176C93.3244 39.5955 93.1824 39.9157 93.1824 40.3426C93.1824 40.7695 93.36 41.054 93.7151 41.2674C94.0701 41.4809 94.7802 41.6942 95.739 41.9433C96.6291 42.1679 97.5063 42.4411 98.3666 42.7615C99.0769 43.046 99.6449 43.3662 100.107 43.6864C100.979 44.3304 101.462 45.3777 101.385 46.4611C101.385 47.9196 100.852 49.0579 99.7515 49.9117C98.6862 50.7654 97.2659 51.1923 95.3839 51.1923ZM112.961 50.1606C112.357 50.4097 111.647 50.6587 110.866 50.8722C110.084 51.0855 109.303 51.2279 108.487 51.2279C107.918 51.2279 107.421 51.1567 106.924 51.0144C106.441 50.8733 105.993 50.6307 105.61 50.3029C105.255 50.0184 104.971 49.5915 104.758 49.1291C104.545 48.631 104.403 48.0262 104.403 47.3148V39.6666H102.557V36.3228H104.439V31.6627H108.842V36.2872H111.824V39.6666H108.842V45.7852C108.842 46.2477 108.948 46.6034 109.197 46.8523C109.445 47.0303 109.765 47.1369 110.12 47.1369C110.475 47.1369 110.83 47.1014 111.15 46.9591C111.505 46.8523 111.824 46.7456 112.073 46.6034L112.925 50.1606H112.961ZM121.27 51.1923C120.14 51.2121 119.017 51.0065 117.967 50.5875C116.119 49.8552 114.672 48.3666 113.99 46.4966C113.293 44.6393 113.293 42.5912 113.99 40.7339C114.672 38.8639 116.119 37.3752 117.967 36.6429C118.926 36.2516 120.027 36.0382 121.27 36.0382C123.431 35.9363 125.53 36.78 127.022 38.3504C127.697 39.0263 128.194 39.8445 128.549 40.7339C129.276 42.598 129.276 44.668 128.549 46.5322C127.862 48.379 126.432 49.851 124.607 50.5875C123.546 51.0112 122.411 51.2168 121.27 51.1923ZM118.074 43.6508C118.074 44.7891 118.358 45.7141 118.962 46.3899C119.601 47.1014 120.382 47.4571 121.305 47.4571C122.197 47.4743 123.048 47.0811 123.613 46.3899C123.897 46.0342 124.11 45.6785 124.288 45.1804C124.465 44.718 124.536 44.1843 124.536 43.6508C124.536 42.477 124.217 41.552 123.613 40.8761C123.009 40.1647 122.228 39.8089 121.305 39.8089C120.416 39.8069 119.572 40.1973 118.997 40.8761C118.713 41.2318 118.464 41.5876 118.287 42.0855C118.127 42.5912 118.055 43.1207 118.074 43.6508ZM140.551 40.1291C139.485 40.1291 138.491 40.307 137.603 40.6627C136.822 40.9266 136.157 41.4548 135.721 42.1567V50.9432H131.283V36.3228H135.366V39.2398C135.863 38.2437 136.503 37.4611 137.319 36.9275C138.1 36.3583 138.917 36.0738 139.805 36.0382H140.267L140.551 36.0738V40.0935V40.1291ZM142.504 53.1132C143.121 53.3283 143.768 53.4482 144.421 53.4689C144.954 53.4689 145.38 53.2911 145.699 52.9354C145.983 52.5797 146.232 51.8681 146.481 50.9432L140.941 36.3228H145.522L148.895 47.1014L151.842 36.3228H155.997L150.422 53.2911C149.548 56.1732 146.616 57.9043 143.675 57.2752C143.32 57.2041 142.894 57.0974 142.504 56.9195V53.1132ZM166.507 51.1924C165.406 51.1924 164.412 50.9788 163.595 50.4809C162.766 50.0242 162.078 49.3471 161.607 48.5243V50.9432H157.737V30.5955H162.211V38.7062C163.182 37.0035 165.012 35.9772 166.969 36.0382C167.892 36.0382 168.744 36.2161 169.525 36.6429C170.307 36.9987 170.946 37.5678 171.549 38.2437C173.297 40.6738 173.773 43.7973 172.828 46.639C172.473 47.5638 171.975 48.3821 171.372 49.0579C170.125 50.4273 168.357 51.2029 166.507 51.1924ZM165.264 47.4571C166.706 47.4602 167.99 46.5454 168.46 45.1804C168.981 43.7473 168.726 42.1466 167.786 40.9472C167.23 40.2149 166.36 39.792 165.442 39.8089C164.767 39.8089 164.128 40.0579 163.524 40.5204C162.956 41.0184 162.495 41.6232 162.175 42.3702V45.4295C162.748 46.6398 163.963 47.4141 165.3 47.4216L165.264 47.4571ZM175.491 30.5955H179.929V45.7141C179.929 46.8523 180.391 47.386 181.35 47.386C181.857 47.3875 182.356 47.2654 182.805 47.0303L183.409 50.3385C182.166 50.8842 180.825 51.1744 179.468 51.1923C178.189 51.1923 177.195 50.8366 176.521 50.1962C175.81 49.4848 175.455 48.5599 175.455 47.2792V30.5955H175.491ZM191.789 51.1923C190.66 51.2121 189.537 51.0065 188.487 50.5875C186.628 49.8597 185.168 48.3713 184.475 46.4966C183.448 43.7008 184.019 40.5667 185.966 38.3149C186.675 37.6034 187.457 37.0698 188.451 36.6429C189.41 36.2516 190.511 36.0382 191.753 36.0382C193.915 35.9363 196.015 36.78 197.506 38.3504C198.217 39.0263 198.678 39.8445 199.033 40.7339C200.1 43.5261 199.525 46.6815 197.542 48.9156C196.867 49.6271 196.051 50.1962 195.056 50.5875C194.007 51.0065 192.884 51.2121 191.753 51.1923H191.789ZM188.557 43.6508C188.557 44.7891 188.841 45.7141 189.446 46.3899C190.085 47.1014 190.866 47.4571 191.789 47.4571C192.68 47.4692 193.528 47.0768 194.097 46.3899C194.381 46.0342 194.594 45.6785 194.771 45.1804C194.949 44.718 195.021 44.1843 195.021 43.6508C195.021 42.477 194.701 41.552 194.097 40.8761C193.494 40.1647 192.712 39.8089 191.789 39.8089C190.901 39.8069 190.055 40.1973 189.482 40.8761C189.198 41.2318 188.948 41.5876 188.771 42.0855C188.593 42.5836 188.557 43.0816 188.557 43.6508ZM211.602 50.9432L207.804 45.0381L206.241 46.6746V50.9432H201.802V30.5955H206.241V42.3702L211.177 36.3228H215.9L210.643 42.6192L216.325 50.9432H211.602Z"></path>
<path fill="#00B3B0" d="M47.4472 26C46.5694 26 45.8672 26.7018 45.8672 27.5439V55.1228C45.8672 55.9649 46.5694 56.4912 47.4121 56.4912H51.4851V62L56.5413 56.5264H75.0102C75.8529 56.5264 76.3796 56.0001 76.3796 55.1228V27.579C76.3796 26.7369 75.888 26 75.0102 26H47.4472Z"></path>
<path fill="white" d="M65.631 31.512C66.3328 31.512 66.9294 31.6523 67.4908 31.9679C68.0172 32.2484 68.5084 32.6341 68.8944 33.0899C69.6806 34.0479 70.1031 35.2524 70.0876 36.4912C70.0876 37.4029 69.8419 38.2795 69.3857 39.1211C68.9128 39.9676 68.1724 40.6335 67.2803 41.0145C68.4033 41.3302 69.2805 41.8913 69.9472 42.6977C70.5789 43.5392 70.8947 44.6263 70.8947 45.9939C70.8947 46.8705 70.7347 47.6514 70.4034 48.2379C70.0524 48.8692 69.5261 49.3951 68.8944 49.7808C68.2277 50.2016 67.4908 50.5874 66.6487 50.7626C65.8065 50.9731 64.894 51.1484 63.9467 51.1484H51.5244V31.512H65.631ZM63.6156 42.4865H56.5828V45.8036H63.4465C63.8523 45.8036 64.2243 45.6378 64.5286 45.3723C64.7991 45.107 64.9682 44.709 64.9682 44.2115C64.9779 43.7846 64.8476 43.3659 64.5962 43.0172C64.3257 42.6856 64.0214 42.4865 63.6156 42.4865ZM63.0409 35.8526H56.5828V38.8379H62.9056C63.2438 38.8379 63.5818 38.672 63.8523 38.473C64.1566 38.274 64.2919 37.8428 64.2919 37.2789C64.2919 36.7814 64.1566 36.4165 63.9199 36.1843C63.6832 35.9853 63.3791 35.8526 63.0409 35.8526Z"></path>
</g>
<defs>
<clipPath id="clip0_3_339">
<rect transform="translate(45.8672 26)" fill="white" height="36" width="170.458"></rect>
</clipPath>
</defs>
</svg>
