<svg xmlns="http://www.w3.org/2000/svg" fill="none" viewBox="0 0 263 88" height="88" width="263">
<path fill="#0E1E25" d="M104.234 34.2549L104.398 37.1957C106.275 34.9212 108.74 33.784 111.79 33.784C117.077 33.784 119.767 36.8184 119.861 42.8873V59.7026H114.161V43.2165C114.161 41.6016 113.813 40.4068 113.118 39.6295C112.422 38.8534 111.283 38.4654 109.703 38.4654C107.403 38.4654 105.689 39.509 104.566 41.5936V59.7026H98.8633V34.2549H104.236H104.234ZM136.85 60.1735C133.238 60.1735 130.308 59.0336 128.064 56.7524C125.819 54.4712 124.696 51.4328 124.696 47.6384V46.9333C124.696 44.3939 125.185 42.1234 126.163 40.1245C127.139 38.1256 128.513 36.5696 130.281 35.4551C132.048 34.3432 134.019 33.7867 136.195 33.7867C139.65 33.7867 142.322 34.8918 144.206 37.1021C146.093 39.3137 147.035 42.4405 147.035 46.4864V48.7917H130.444C130.618 50.8922 131.316 52.554 132.545 53.7768C133.773 54.9997 135.318 55.6112 137.179 55.6112C139.791 55.6112 141.918 54.5542 143.561 52.4362L146.634 55.377C145.618 56.8969 144.261 58.077 142.564 58.9159C140.867 59.7548 138.961 60.1735 136.85 60.1735ZM136.17 38.3731C134.605 38.3731 133.343 38.9217 132.381 40.0188C131.418 41.1159 130.805 42.6452 130.539 44.6053H141.403V44.1811C141.277 42.2679 140.769 40.8229 139.878 39.8422C138.985 38.8628 137.751 38.3731 136.17 38.3731ZM158.601 28.071V34.2563H163.083V38.4895H158.601V52.6945C158.601 53.6658 158.794 54.3669 159.176 54.799C159.559 55.2299 160.244 55.4453 161.23 55.4453C161.901 55.4434 162.57 55.3644 163.224 55.2098V59.6317C161.926 59.9929 160.675 60.1722 159.469 60.1722C155.09 60.1722 152.9 57.7505 152.9 52.9058V38.4882H148.72V34.2549H152.897V28.0696H158.598L158.601 28.071ZM173.502 59.7039H167.799V23.5795H173.502V59.7039ZM185.773 59.7039H180.071V34.2563H185.773V59.7039ZM179.719 27.6469C179.719 26.7705 179.996 26.0413 180.551 25.4607C181.108 24.8813 181.901 24.591 182.933 24.591C183.966 24.591 184.763 24.8813 185.328 25.4607C185.89 26.0413 186.171 26.7705 186.171 27.6482C186.171 28.5098 185.89 29.227 185.328 29.7996C184.763 30.3722 183.966 30.6586 182.933 30.6586C181.901 30.6586 181.108 30.3722 180.551 29.7996C179.996 29.2283 179.719 28.5085 179.719 27.6469ZM193.986 59.7039V38.4882H190.114V34.2549H193.986V31.9269C193.986 29.1039 194.767 26.9257 196.331 25.3884C197.896 23.8525 200.085 23.0845 202.9 23.0845C203.902 23.0845 204.966 23.225 206.093 23.5073L205.952 27.976C205.233 27.8424 204.502 27.7797 203.77 27.7887C201.047 27.7887 199.687 29.1908 199.687 31.9978V34.2549H204.848V38.4882H199.687V59.7026L193.986 59.7039ZM217.895 51.5197L223.056 34.2563H229.133L219.045 63.5612C217.496 67.8413 214.868 69.982 211.161 69.982C210.331 69.982 209.416 69.8402 208.415 69.5579V65.136L209.495 65.2069C210.933 65.2069 212.017 64.9446 212.745 64.4188C213.471 63.8944 214.047 63.0127 214.469 61.7737L215.29 59.5862L206.374 34.2563H212.521L217.895 51.5197Z" clip-rule="evenodd" fill-rule="evenodd"></path>
<path fill="url(#paint0_radial_3_514)" d="M70.1386 35.8027L70.1198 35.7947C70.1091 35.7907 70.0984 35.7867 70.0891 35.7773C70.0737 35.7608 70.0624 35.741 70.0559 35.7195C70.0494 35.6979 70.0479 35.6751 70.0516 35.6529L71.0858 29.3298L75.9359 34.1811L70.8918 36.3272C70.8778 36.3329 70.8628 36.3356 70.8477 36.3352H70.8276C70.8178 36.3288 70.8088 36.3212 70.8009 36.3125C70.6131 36.1035 70.3887 35.9307 70.1386 35.8027ZM77.1735 35.4174L82.3593 40.6033C83.4364 41.6816 83.9756 42.2195 84.1722 42.843C84.2017 42.9353 84.2258 43.0276 84.2445 43.1226L71.8511 37.8739C71.8445 37.8711 71.8378 37.8684 71.8311 37.8658C71.7816 37.8458 71.724 37.823 71.724 37.7722C71.724 37.7213 71.7829 37.6973 71.8324 37.6772L71.8485 37.6705L77.1735 35.4174ZM84.0331 44.787C83.7655 45.2901 83.2437 45.8119 82.3607 46.6963L76.5139 52.5417L68.9518 50.967L68.9117 50.9589C68.8448 50.9482 68.7739 50.9362 68.7739 50.876C68.7452 50.564 68.6525 50.2613 68.5018 49.9867C68.351 49.7121 68.1453 49.4715 67.8975 49.2798C67.8668 49.249 67.8748 49.2009 67.8841 49.1567C67.8841 49.15 67.8841 49.1433 67.8868 49.138L69.3091 40.4066L69.3144 40.3772C69.3224 40.3103 69.3345 40.2327 69.3947 40.2327C69.6995 40.1947 69.9937 40.0965 70.2601 39.9438C70.5266 39.791 70.76 39.5868 70.9467 39.3429C70.9587 39.3295 70.9668 39.3148 70.9828 39.3068C71.0256 39.2867 71.0765 39.3068 71.1206 39.3255L84.0331 44.787ZM75.1692 53.8863L65.5548 63.5008L67.2005 53.386L67.2031 53.3726C67.2045 53.3592 67.2071 53.3458 67.2112 53.3338C67.2245 53.3017 67.2593 53.2883 67.2928 53.2749L67.3088 53.2682C67.6692 53.1145 67.9879 52.8774 68.2387 52.5765C68.2708 52.539 68.3096 52.5029 68.3591 52.4962C68.372 52.4941 68.3851 52.4941 68.3979 52.4962L75.1679 53.8877L75.1692 53.8863ZM63.5198 65.5358L62.436 66.6195L50.4548 49.3039C50.4504 49.2976 50.446 49.2913 50.4414 49.2852C50.4227 49.2597 50.4026 49.2343 50.4066 49.2049C50.4066 49.1835 50.4213 49.1648 50.4361 49.1487L50.4494 49.1313C50.4856 49.0778 50.5163 49.0243 50.5498 48.9667L50.5765 48.9199L50.5805 48.9159C50.5993 48.8838 50.6167 48.853 50.6488 48.8356C50.6769 48.8222 50.7157 48.8276 50.7465 48.8343L64.0202 51.5717C64.0573 51.5775 64.0923 51.5927 64.1219 51.6159C64.1392 51.6333 64.1433 51.652 64.1473 51.6734C64.2399 52.0237 64.4122 52.3479 64.6508 52.6206C64.8894 52.8933 65.1878 53.1072 65.5227 53.2455C65.5601 53.2642 65.5441 53.3057 65.5267 53.3498C65.518 53.3692 65.5113 53.3894 65.5066 53.41C65.3394 54.4269 63.9051 63.1743 63.5198 65.5358ZM61.256 67.7983C60.4572 68.589 59.9863 69.0078 59.4538 69.1763C58.9287 69.3424 58.3653 69.3424 57.8402 69.1763C57.2167 68.9783 56.6775 68.4405 55.6005 67.3621L43.5684 55.33L46.7112 50.4559C46.7259 50.4318 46.7407 50.4104 46.7647 50.393C46.7982 50.3689 46.8464 50.3796 46.8865 50.393C47.6079 50.6106 48.3824 50.5714 49.078 50.2819C49.1142 50.2686 49.1503 50.2592 49.1784 50.2846C49.1924 50.2974 49.205 50.3118 49.2158 50.3274L61.256 67.7983ZM42.4084 54.17L39.6482 51.4098L45.099 49.0845C45.1129 49.0784 45.128 49.0752 45.1432 49.0751C45.1886 49.0751 45.2154 49.1206 45.2395 49.1621C45.2943 49.2464 45.3523 49.3285 45.4134 49.4083L45.4308 49.4297C45.4469 49.4524 45.4362 49.4752 45.4201 49.4966L42.4084 54.17ZM38.4267 50.1883L34.9347 46.6963C34.3406 46.1022 33.9098 45.6714 33.6101 45.3008L44.228 47.503C44.2413 47.5055 44.2547 47.5077 44.2681 47.5097C44.3337 47.5204 44.4059 47.5325 44.4059 47.594C44.4059 47.6609 44.327 47.6917 44.2601 47.7171L44.2293 47.7305L38.4267 50.1883ZM33 43.5053C33.0121 43.2803 33.0526 43.0578 33.1204 42.843C33.3184 42.2195 33.8563 41.6816 34.9347 40.6033L39.4034 36.1345C41.4609 39.1207 43.524 42.1029 45.5927 45.0814C45.6288 45.1295 45.669 45.183 45.6275 45.2232C45.4322 45.4386 45.2368 45.6741 45.099 45.9296C45.0841 45.9625 45.061 45.991 45.0321 46.0126C45.0147 46.0233 44.996 46.0193 44.9759 46.0152H44.9732L33 43.5053ZM40.5995 34.9384L46.6055 28.9297C47.1715 29.1772 49.2279 30.0456 51.0649 30.8216C52.4563 31.4103 53.7247 31.9454 54.1234 32.1194C54.1636 32.1354 54.1997 32.1515 54.2171 32.1916C54.2278 32.2157 54.2224 32.2465 54.2171 32.2719C54.122 32.7056 54.1361 33.1562 54.2582 33.5831C54.3804 34.01 54.6067 34.3999 54.9168 34.7177C54.957 34.7578 54.9168 34.8153 54.882 34.8648L54.8633 34.8929L48.7623 44.3428C48.7462 44.3696 48.7315 44.3923 48.7048 44.4097C48.6726 44.4298 48.6272 44.4204 48.5897 44.411C48.3524 44.3489 48.1085 44.3156 47.8632 44.312C47.6438 44.312 47.4056 44.3522 47.1648 44.3963H47.1634C47.1367 44.4003 47.1126 44.4057 47.0912 44.3896C47.0676 44.3703 47.0472 44.3473 47.031 44.3214L40.5995 34.9384ZM47.8217 27.7162L55.6005 19.9374C56.6775 18.8604 57.2167 18.3212 57.8402 18.1245C58.3653 17.9585 58.9287 17.9585 59.4538 18.1245C60.0773 18.3212 60.6164 18.8604 61.6935 19.9374L63.3793 21.6232L57.8469 30.1914C57.8332 30.2164 57.8145 30.2382 57.7921 30.2556C57.7586 30.2784 57.7118 30.269 57.6716 30.2556C57.2355 30.1233 56.7736 30.0992 56.326 30.1854C55.8784 30.2717 55.4586 30.4657 55.1028 30.7507C55.0667 30.7881 55.0131 30.7667 54.9677 30.7467C54.2452 30.4322 48.6258 28.0574 47.8217 27.7162ZM64.554 22.7979L69.6623 27.9062L68.4314 35.5298V35.5499C68.4303 35.5672 68.4267 35.5844 68.4207 35.6007C68.4073 35.6275 68.3805 35.6328 68.3538 35.6408C68.0906 35.7206 67.8427 35.844 67.6206 36.0061C67.611 36.0129 67.6021 36.0205 67.5938 36.0288C67.5791 36.0449 67.5644 36.0596 67.5403 36.0623C67.5207 36.0629 67.5012 36.0597 67.4828 36.0529L59.6986 32.7455L59.6839 32.7388C59.6344 32.7188 59.5755 32.6947 59.5755 32.6439C59.5298 32.2101 59.3881 31.7919 59.1608 31.4196C59.1233 31.3581 59.0818 31.2939 59.1139 31.231L64.554 22.7979ZM59.2932 34.3123L66.5904 37.4029C66.6305 37.4216 66.6746 37.439 66.692 37.4805C66.699 37.5055 66.699 37.5318 66.692 37.5568C66.6706 37.6638 66.6519 37.7856 66.6519 37.9087V38.1134C66.6519 38.1642 66.5997 38.1856 66.5516 38.2057L66.5368 38.211C65.3809 38.7047 50.3076 45.1322 50.2849 45.1322C50.2621 45.1322 50.238 45.1322 50.2153 45.1095C50.1752 45.0693 50.2153 45.0131 50.2514 44.9623C50.2578 44.9535 50.264 44.9445 50.2701 44.9355L56.2668 35.6502L56.2775 35.6342C56.3123 35.578 56.3524 35.5151 56.4166 35.5151L56.4769 35.5244C56.6133 35.5432 56.7337 35.5606 56.8555 35.5606C57.7653 35.5606 58.6082 35.1177 59.1166 34.3604C59.1287 34.3402 59.1441 34.3221 59.1621 34.3069C59.1982 34.2802 59.2517 34.2935 59.2932 34.3123ZM50.9364 46.6013L67.3664 39.5945C67.3664 39.5945 67.3904 39.5945 67.4132 39.6172C67.5028 39.7068 67.5791 39.7671 67.6527 39.8232L67.6888 39.846C67.7223 39.8647 67.7557 39.8861 67.7584 39.9209C67.7584 39.9343 67.7584 39.9423 67.7557 39.9544L66.3482 48.6001L66.3428 48.6349C66.3335 48.7018 66.3241 48.7781 66.2612 48.7781C65.886 48.8034 65.5226 48.9199 65.2025 49.1173C64.8824 49.3148 64.6152 49.5873 64.4242 49.9113L64.4175 49.922C64.3988 49.9528 64.3814 49.9822 64.3506 49.9983C64.3225 50.0117 64.2864 50.0063 64.257 49.9996L51.1545 47.297C51.1411 47.2943 50.9512 46.6026 50.9364 46.6013Z"></path>
<defs>
<radialGradient gradientTransform="translate(58.6222 18) scale(51.3008 51.3573)" gradientUnits="userSpaceOnUse" r="1" cy="0" cx="0" id="paint0_radial_3_514">
<stop stop-color="#20C6B7"></stop>
<stop stop-color="#4D9ABF" offset="1"></stop>
</radialGradient>
</defs>
</svg>
