<svg xmlns="http://www.w3.org/2000/svg" fill="none" viewBox="0 0 263 88" height="88" width="263">
<g clip-path="url(#clip0_3_258)">
<path fill="#1773EB" d="M60.6213 30.9821C61.8312 32.1877 62.2934 33.9539 61.8312 35.5968C63.3195 34.7029 65.0255 34.2317 66.763 34.2341H66.7993C69.3524 34.2414 71.7965 35.2658 73.5921 37.0779C75.032 38.588 77.4229 38.6459 78.9353 37.2108C80.4478 35.7732 80.5059 33.3861 79.0684 31.876C79.0321 31.8374 78.9958 31.8011 78.9571 31.7649C75.7507 28.5273 71.3827 26.7031 66.8211 26.691H66.7558C63.3413 26.6838 60.0042 27.6986 57.1729 29.6025H57.2793C58.5329 29.6 59.7356 30.0978 60.6213 30.9845V30.9821Z"></path>
<path fill="#E44F20" d="M76.2051 49.5668C75.2081 49.5668 74.2498 49.9606 73.5432 50.6613C71.7428 52.4492 69.3059 53.4543 66.7674 53.4519H66.7311C64.9887 53.4494 63.2827 52.9711 61.7944 52.0674C61.9081 52.4782 61.9638 52.9034 61.9638 53.3286C61.9638 55.9356 59.8488 58.0473 57.2377 58.0473H57.1143C59.9432 59.9705 63.2827 61.0022 66.7045 61.007H66.7698C71.3047 61.0143 75.6582 59.2215 78.8695 56.025C80.3505 54.556 80.3626 52.1689 78.8912 50.6878C78.1822 49.9727 77.2142 49.5716 76.2075 49.5716V49.5668H76.2051Z"></path>
<path fill="#FFDA00" d="M53.8913 49.9896C54.7745 49.1004 55.9797 48.6027 57.2332 48.6076C57.6664 48.6076 58.0971 48.6655 58.5133 48.7815C56.6766 45.7324 56.6839 41.9174 58.5327 38.8755C56.0135 39.5665 53.4121 38.0854 52.7224 35.5727C52.6111 35.1643 52.553 34.7439 52.553 34.3187V34.1906C48.6013 39.9893 48.5819 47.6073 52.5071 53.4253V53.3262C52.5022 52.0747 53.0007 50.8714 53.8913 49.9896Z"></path>
<path fill="#1773EB" d="M57.2795 30.4384C56.2051 30.4384 55.4525 30.883 54.5401 31.7939C53.6714 32.6588 53.3979 33.4175 53.3955 34.3187C53.3955 36.4594 55.1379 38.1966 57.2819 38.1941C59.426 38.1941 61.1659 36.4545 61.1635 34.3139C61.1635 32.1732 59.4236 30.4384 57.2795 30.4384Z"></path>
<path fill="#E44F20" d="M53.3398 53.331C53.3398 54.4014 53.7851 55.1552 54.695 56.0637C55.5638 56.931 56.3212 57.2065 57.2238 57.2089C59.3631 57.2016 61.0909 55.4669 61.0836 53.331C61.0764 51.1952 59.3389 49.4701 57.1996 49.4773C55.0653 49.4846 53.3398 51.2121 53.3398 53.3431V53.331Z"></path>
<path fill="#2B2D31" d="M95.3416 47.211C96.4233 46.3944 96.5685 46.851 97.4808 47.7643C97.9382 48.221 99.1893 49.0135 98.3714 49.6851C96.6629 51.0768 95.1238 51.7026 92.9362 51.7026C88.0068 51.6784 84.5197 48.0059 84.8076 43.1302C84.9286 40.9461 85.7925 38.8803 87.501 37.4645C89.0643 36.1429 91.0123 35.5678 93.0572 35.6161C94.0905 35.6403 95.0052 35.7853 95.9659 36.1936C96.5903 36.4328 97.1928 36.7227 97.7204 37.131C98.8021 37.9719 98.2988 38.4527 97.4566 39.291C97.263 39.4843 97.0718 39.6752 96.9025 39.8685C96.4693 40.301 96.1813 40.6127 95.6029 40.2043C94.497 39.436 93.1007 39.0277 91.7795 39.3635C87.5228 40.4435 87.7164 48.0084 92.9338 48.0325C93.7517 48.0567 94.6664 47.7208 95.3392 47.2159L95.3416 47.211ZM213.659 51.7968C212.938 51.7968 212.36 51.2194 212.36 50.4994L212.432 33.7388C212.432 33.0188 213.011 32.4414 213.732 32.4414H215.126C215.847 32.4414 216.425 33.0188 216.425 33.7388L216.353 50.4994C216.353 51.2194 215.774 51.7968 215.053 51.7968H213.659ZM206.349 49.8519C204.834 51.2677 203.392 52.0119 201.25 52.0119C196.921 51.9877 194.854 48.4094 194.854 44.4011L194.878 37.5829C194.878 36.8629 195.457 36.2854 196.178 36.2854H197.572C198.293 36.2854 198.871 36.8629 198.871 37.5829L198.847 44.4011C198.847 46.6336 200.05 48.3877 202.407 48.3877C204.764 48.3877 206.206 46.4186 206.23 44.2102V41.7845C206.206 41.6878 206.206 41.5912 206.206 41.497L206.23 37.6312C206.23 36.9112 206.809 36.3337 207.53 36.3337H208.924C209.645 36.3337 210.223 36.9112 210.223 37.6312L210.175 50.5018C210.175 51.1976 209.599 51.7751 208.875 51.7751H207.697C206.976 51.7751 206.47 51.1759 206.421 50.5018L206.349 49.8543V49.8519ZM189.755 36.3337H192.449C193.17 36.3337 193.724 36.9329 193.724 37.6553V38.5445C193.724 39.2403 193.148 39.8419 192.424 39.8419H189.731L189.683 50.4317C189.683 51.1517 189.104 51.7292 188.383 51.7292H186.989C186.268 51.7292 185.69 51.1517 185.69 50.4317L185.738 35.7853C185.738 32.5912 187.565 30.0712 190.837 29.7837C190.934 29.7837 191.006 29.7595 191.101 29.7595C191.292 29.7353 191.486 29.7595 191.677 29.7595H192.928C193.649 29.7595 194.203 30.3587 194.203 31.0811V31.8978C194.203 32.5936 193.625 33.1952 192.904 33.1952H191.895C190.355 33.1952 189.707 34.3719 189.683 35.8119L189.755 36.341V36.3337ZM180.088 36.2854H183.045C183.742 36.2854 184.32 36.8629 184.32 37.5829V38.472C184.32 39.1678 183.742 39.7453 183.021 39.7453H180.063L180.039 46.2277C180.039 47.4768 180.639 48.1968 181.891 48.1968H182.491C183.188 48.1968 183.766 48.7743 183.766 49.4943V50.3834C183.766 51.0792 183.19 51.6567 182.466 51.6567H181.336C181.121 51.6567 180.927 51.6567 180.712 51.6325C177.513 51.4175 176.095 49.3517 176.095 46.2301C176.119 42.0285 176.119 37.851 176.143 33.6494C176.143 32.9536 176.722 32.3761 177.443 32.3761H178.812C179.509 32.3761 180.088 32.9536 180.088 33.6736V36.2902V36.2854ZM137.306 36.1163H140.263C140.96 36.1163 141.538 36.6937 141.538 37.4137V38.3029C141.538 38.9987 140.96 39.5761 140.239 39.5761H137.281V46.0586C137.281 47.3077 137.882 48.0277 139.133 48.0277H139.733C140.43 48.0277 141.008 48.6051 141.008 49.3251V50.2143C141.008 50.9101 140.43 51.4876 139.709 51.4876H138.818C135.331 51.4634 133.31 49.9751 133.31 46.061C133.335 41.8594 133.335 37.6819 133.359 33.4803C133.359 32.7845 133.937 32.207 134.658 32.207H136.028C136.725 32.207 137.303 32.7845 137.303 33.5045V36.1211L137.306 36.1163ZM119.943 37.9404C121.361 36.6188 122.9 35.7804 124.896 35.7804C129.226 35.8046 131.462 39.3345 131.437 43.3912L131.413 50.2094C131.413 50.9294 130.835 51.5069 130.114 51.5069H128.72C127.999 51.5069 127.42 50.9294 127.42 50.2094L127.444 43.4395C127.444 41.207 126.242 39.4529 123.885 39.4529C121.528 39.4529 120.085 41.3979 120.061 43.6062L120.037 50.2094C120.037 50.9053 119.459 51.4827 118.738 51.4827H117.368C116.671 51.4827 116.093 50.9053 116.093 50.1853C116.117 46.0803 116.117 41.9488 116.141 37.8438V37.2905C116.141 36.5947 116.719 36.0172 117.44 36.0172H118.619C119.34 36.0172 119.846 36.6164 119.894 37.2905L119.943 37.938V37.9404ZM162.797 38.1096C164.215 36.788 165.754 35.9496 167.751 35.9496C172.08 35.9737 174.316 39.5037 174.292 43.5603L174.268 50.3786C174.268 51.0986 173.689 51.676 172.968 51.676H171.574C170.853 51.676 170.275 51.0986 170.275 50.3786L170.299 43.6086C170.299 41.3761 169.096 39.6221 166.739 39.6221C164.382 39.6221 162.94 41.567 162.916 43.7753L162.892 50.3786C162.892 51.0744 162.313 51.6518 161.592 51.6518H160.222C159.525 51.6518 158.947 51.0744 158.947 50.3544L158.996 37.4596C158.996 36.7638 159.574 36.1863 160.295 36.1863H161.474C162.195 36.1863 162.7 36.7855 162.749 37.4596L162.797 38.1072V38.1096ZM106.86 35.6596C102.171 35.6355 98.8529 39.0204 98.8287 43.6787C98.8045 48.3853 102.076 51.7219 106.812 51.7461C111.55 51.7702 114.868 48.4578 114.892 43.727C114.916 39.0929 111.526 35.6838 106.86 35.6596ZM145.795 45.2878C146.131 47.4478 148.2 48.337 150.221 48.3611C151.184 48.3611 152.29 48.1219 153.154 47.7136C153.299 47.6411 153.442 47.5928 153.587 47.4986C154.069 47.2352 154.502 47.0661 154.935 47.4986C155.174 47.7378 155.392 47.9794 155.632 48.1944C155.847 48.4094 156.065 48.6269 156.256 48.8902C156.905 49.7069 156.45 49.8978 155.702 50.4027C154.115 51.4586 152.045 51.9877 150.146 51.9877C145.047 51.9635 141.681 48.8661 141.681 43.727C141.705 38.8779 145.071 35.6596 149.93 35.6838C154.884 35.708 157.698 38.6121 157.771 43.5603C157.795 44.9061 157.844 45.3361 156.447 45.3361L145.795 45.2878ZM106.86 39.2862C109.29 39.2862 110.902 41.4003 110.902 43.727C110.902 46.0537 109.387 48.0978 106.839 48.0978C104.291 48.0978 102.797 46.1286 102.797 43.7029C102.822 41.3012 104.336 39.2838 106.86 39.2838V39.2862ZM145.892 41.9512L153.875 41.9753C153.587 39.9821 151.927 39.1896 150.027 39.1896C148.128 39.1896 146.492 40.0787 145.892 41.9512Z" clip-rule="evenodd" fill-rule="evenodd"></path>
</g>
<defs>
<clipPath id="clip0_3_258">
<rect transform="translate(47.5312 26)" fill="white" height="36" width="169.395"></rect>
</clipPath>
</defs>
</svg>
