<svg xmlns="http://www.w3.org/2000/svg" fill="none" viewBox="0 0 263 88" height="88" width="263">
<g clip-path="url(#clip0_3_371)">
<path fill="url(#paint0_linear_3_371)" d="M80.5942 21.4396H59V64.9577H80.5942C91.4188 64.9577 102.243 55.2321 102.243 43.1986C102.243 31.1652 91.4188 21.4396 80.5942 21.4396ZM80.5942 53.0891C78.6381 53.0891 76.7258 52.509 75.0994 51.4223C73.4729 50.3355 72.2052 48.7908 71.4566 46.9836C70.708 45.1763 70.5122 43.1877 70.8938 41.2691C71.2754 39.3505 72.2174 37.5882 73.6006 36.205C74.9838 34.8218 76.7461 33.8798 78.6647 33.4982C80.5833 33.1166 82.5719 33.3124 84.3791 34.061C86.1864 34.8096 87.7311 36.0773 88.8179 37.7038C89.9046 39.3303 90.4847 41.2425 90.4847 43.1986C90.4847 45.8218 89.4427 48.3374 87.5879 50.1923C85.733 52.0471 83.2173 53.0891 80.5942 53.0891Z"></path>
<path fill="#FF7751" d="M124.387 21.4945C130.926 21.4945 134.278 25.3958 134.278 30.8355V35.7258C134.278 41.1107 130.926 45.0668 124.387 45.0668H114.112V21.4396L124.387 21.4945ZM128.453 30.8355C128.453 27.8134 126.86 26.22 123.398 26.22H119.881V40.3414H123.398C126.86 40.3414 128.453 38.693 128.453 35.7258V30.8355ZM152.245 40.726H143.619L142.3 45.1218H136.53L144.937 21.4945H150.872L159.333 45.1218H153.509L152.245 40.726ZM145.102 36.0555H150.817L147.959 26.7145L145.102 36.0555ZM177.686 21.4945V26.3848H171.312V45.0668H165.597V26.3848H159.224V21.4396L177.686 21.4945ZM191.752 45.5614C184.609 45.5614 180.928 40.9458 180.928 34.7917V31.7696C180.928 25.5606 184.609 21 191.752 21C198.895 21 202.577 25.5606 202.577 31.7696V34.7368C202.577 40.8909 198.895 45.5064 191.752 45.5064V45.5614ZM191.752 25.7804C188.346 25.7804 186.697 28.0882 186.697 31.44V35.0665C186.697 38.4732 188.346 40.726 191.752 40.726C195.159 40.726 196.752 38.4732 196.752 35.0665V31.44C196.752 28.0882 195.104 25.8353 191.752 25.8353V25.7804ZM119.222 62.3202C119.591 62.3589 119.963 62.3193 120.316 62.2042C120.668 62.089 120.992 61.9009 121.267 61.652C121.542 61.4032 121.761 61.0992 121.911 60.7598C122.06 60.4205 122.136 60.0535 122.134 59.6828H125.431C125.376 62.7049 123.123 65.2874 119.332 65.2874C114.881 65.2874 112.738 62.4851 112.738 58.6937V56.8255C112.738 53.0891 114.881 50.2868 119.332 50.2868C123.123 50.2868 125.376 52.8144 125.376 55.8914H122.079C122.088 55.5262 122.02 55.1631 121.881 54.8254C121.741 54.4876 121.533 54.1825 121.27 53.9294C121.006 53.6763 120.693 53.4806 120.35 53.3549C120.007 53.2292 119.642 53.1761 119.277 53.199C117.079 53.199 116.255 54.6276 116.255 56.6607V58.8586C116.255 60.9466 117.134 62.3202 119.277 62.3202H119.222ZM139.607 50.5616H142.904V64.9577H139.498V57.375L137.245 61.7708H134.442L132.19 57.375V64.9577H128.783V50.5616H132.08L135.816 58.419L139.607 50.5616ZM152.135 65.2874C148.674 65.2874 146.366 63.639 146.366 60.7268V60.3421H149.773V60.6169C149.773 61.8257 150.542 62.595 152.135 62.595C153.619 62.595 154.608 61.9906 154.608 60.8367C154.626 60.5415 154.536 60.2499 154.353 60.017C154.171 59.7841 153.91 59.6261 153.619 59.5729L149.992 58.6937C147.795 58.1443 146.586 57.1552 146.586 54.7925C146.586 51.9352 148.619 50.2868 152.08 50.2868C155.267 50.2868 157.355 52.0451 157.355 54.6826V55.0123H154.059V54.7925C154.059 53.8034 153.509 52.9792 152.08 52.9792C150.817 52.9792 150.047 53.4188 150.047 54.4628C150.031 54.7371 150.117 55.0077 150.29 55.2213C150.463 55.4349 150.71 55.576 150.981 55.6167L154.828 56.7156C157.081 57.2651 158.015 58.5838 158.015 60.5619C158.015 63.4192 155.487 65.2874 152.135 65.2874Z"></path>
</g>
<defs>
<linearGradient gradientUnits="userSpaceOnUse" y2="43.1986" x2="102.243" y1="43.1986" x1="59" id="paint0_linear_3_371">
<stop stop-color="#FF593D"></stop>
<stop stop-color="#FF7751" offset="1"></stop>
</linearGradient>
<clipPath id="clip0_3_371">
<rect transform="translate(59 21)" fill="white" height="44.2874" width="143.577"></rect>
</clipPath>
</defs>
</svg>
