<svg xmlns="http://www.w3.org/2000/svg" fill="none" viewBox="0 0 263 88" height="88" width="263">
<g clip-path="url(#clip0_3_323)">
<path fill="#8E75FF" d="M91.721 31.5161H71.6182V41.5955H81.5097C81.8621 41.5955 82.148 41.8814 82.148 42.2338V51.9889H92.3593V32.1555C92.3596 31.9861 92.2925 31.8234 92.1728 31.7035C92.053 31.5835 91.8905 31.5161 91.721 31.5161Z" clip-rule="evenodd" fill-rule="evenodd"></path>
<path fill="#8E75FF" d="M71.617 31.5161V41.5955H62.1864C62.0568 41.5953 61.9401 41.5169 61.891 41.3969C61.8419 41.277 61.8701 41.1393 61.9623 41.0483L71.617 31.5161ZM82.6918 61.5315C82.6 61.6217 82.463 61.648 82.3443 61.5984C82.2256 61.5487 82.1482 61.4327 82.148 61.304V51.9889H92.3593L82.6918 61.5304V61.5315Z" clip-rule="evenodd" fill-rule="evenodd" opacity="0.405"></path>
<path fill="#8E75FF" d="M71.6172 41.5955H81.8296C82.0047 41.5955 82.1482 41.7379 82.1482 41.9141V51.9889H72.2566C71.9041 51.9889 71.6184 51.7031 71.6184 51.3506V41.5955H71.6172Z" clip-rule="evenodd" fill-rule="evenodd" opacity="0.405"></path>
<path fill="#2F2E8B" d="M195.329 30.8802C195.9 31.4449 196.573 31.7261 197.351 31.7261C198.152 31.7261 198.838 31.4449 199.409 30.8802C199.979 30.3154 200.264 29.6503 200.264 28.8813C200.264 28.1135 199.979 27.4414 199.409 26.865C198.873 26.3031 198.127 25.9898 197.351 26.0003C196.573 26.0003 195.9 26.2885 195.329 26.8638C194.759 27.4414 194.474 28.1123 194.474 28.8825C194.474 29.6503 194.759 30.3154 195.329 30.8802ZM133.415 38.2455C133.415 38.3038 133.366 38.3528 133.307 38.3528H129.299V45.8441C129.299 46.4684 129.457 46.9246 129.772 47.2129C130.087 47.5011 130.549 47.6621 131.156 47.6983C131.712 47.7321 132.388 47.7298 133.188 47.6924L133.301 47.6866C133.33 47.685 133.359 47.6956 133.381 47.7159C133.402 47.7362 133.414 47.7644 133.414 47.794V51.7975C133.414 51.8525 133.373 51.8989 133.318 51.9048L133.245 51.913C130.106 52.2432 127.885 51.9364 126.586 50.9935C125.262 50.0332 124.602 48.3167 124.602 45.8441V38.3528H121.54C121.481 38.3528 121.433 38.3047 121.433 38.2455V33.9945C121.433 33.9362 121.481 33.8872 121.54 33.8872H124.601V30.9152C124.601 30.8288 124.652 30.7518 124.73 30.7168L129.148 28.795C129.181 28.7799 129.22 28.7827 129.251 28.8026C129.281 28.8224 129.3 28.8564 129.3 28.893V33.8872H133.307C133.365 33.8872 133.414 33.935 133.414 33.9945V38.2455H133.415ZM141.933 36.9852C142.37 35.8324 143.092 34.9677 144.099 34.3913C145.093 33.8256 146.216 33.5281 147.359 33.5278C147.419 33.5278 147.468 33.5756 147.468 33.6363V38.5197C147.468 38.5691 147.447 38.6162 147.41 38.6493C147.374 38.6824 147.325 38.6985 147.275 38.6935C145.921 38.5722 144.704 38.8674 143.625 39.578C142.497 40.3213 141.933 41.5582 141.933 43.2875V51.787C141.933 51.8157 141.922 51.8432 141.902 51.8633C141.881 51.8835 141.854 51.8947 141.825 51.8944H137.342C137.283 51.8944 137.234 51.8463 137.234 51.787V33.9934C137.234 33.935 137.282 33.886 137.342 33.886H141.825C141.883 33.886 141.932 33.9339 141.932 33.9934V36.9829L141.933 36.9852ZM164.146 33.8872C164.117 33.8869 164.09 33.898 164.069 33.9182C164.049 33.9384 164.038 33.9659 164.038 33.9945V36.0132C162.63 34.2594 160.651 33.3831 158.102 33.3831C155.675 33.3831 153.592 34.3014 151.857 36.1381C150.12 37.9747 149.252 40.2256 149.252 42.8908C149.252 45.5559 150.12 47.8068 151.857 49.6434C153.592 51.4801 155.675 52.3984 158.102 52.3984C160.651 52.3984 162.629 51.5221 164.038 49.7695V51.787C164.038 51.8453 164.087 51.8943 164.146 51.8943H168.628C168.687 51.8943 168.736 51.8465 168.736 51.787V33.9934C168.736 33.9647 168.725 33.9372 168.705 33.917C168.684 33.8969 168.657 33.8857 168.628 33.886H164.146V33.8872ZM155.371 46.5641C156.317 47.5011 157.518 47.969 158.977 47.969C160.433 47.969 161.641 47.4941 162.6 46.5454C163.559 45.5979 164.038 44.3797 164.038 42.8908C164.038 41.4018 163.559 40.1836 162.6 39.235C161.641 38.2875 160.433 37.8125 158.976 37.8125C157.519 37.8125 156.317 38.2875 155.37 39.2361C154.425 40.1836 153.95 41.4018 153.95 42.8908C153.95 44.3797 154.424 45.6037 155.371 46.5641ZM189.619 36.1381C187.883 34.3014 185.788 33.3831 183.336 33.3831C180.787 33.3831 178.821 34.2594 177.437 36.0121V33.9945C177.437 33.9352 177.389 33.8872 177.329 33.8872H172.846C172.787 33.8872 172.739 33.9352 172.739 33.9945V58.9889C172.739 59.0484 172.787 59.0974 172.846 59.0974H177.329C177.388 59.0974 177.437 59.0484 177.437 58.9889V49.7695C178.821 51.5221 180.787 52.3984 183.336 52.3984C185.788 52.3984 187.883 51.4801 189.619 49.6434C191.354 47.8068 192.222 45.5559 192.222 42.8908C192.222 40.2256 191.354 37.9747 189.619 36.1381ZM178.857 46.5641C179.804 47.5011 181.005 47.969 182.462 47.969C183.919 47.969 185.126 47.4941 186.086 46.5454C187.045 45.5979 187.524 44.3797 187.524 42.8908C187.524 41.4018 187.045 40.1836 186.086 39.235C185.126 38.2875 183.919 37.8125 182.462 37.8125C181.005 37.8125 179.804 38.2875 178.857 39.2361C177.91 40.1836 177.437 41.4018 177.437 42.8908C177.437 44.3797 177.91 45.6037 178.857 46.5641ZM195.128 51.8943C195.068 51.8943 195.02 51.8463 195.02 51.787V33.9934C195.02 33.935 195.068 33.886 195.128 33.886H199.611C199.67 33.886 199.718 33.9339 199.718 33.9934V51.7882C199.718 51.8474 199.67 51.8955 199.611 51.8955H195.128V51.8943ZM111.364 40.172C110.72 39.8721 110.399 39.4812 110.399 39.0016C110.399 38.5453 110.598 38.1848 111 37.9211C111.4 37.6573 111.904 37.5243 112.511 37.5243C113.674 37.5243 114.553 37.9736 115.148 38.8709C115.189 38.9338 115.269 38.9583 115.338 38.9292L119.303 37.1941C119.331 37.1817 119.352 37.1581 119.361 37.1291C119.371 37.1002 119.367 37.0687 119.352 37.0424C119.307 36.9663 119.26 36.8909 119.212 36.816C118.534 35.76 117.656 34.9724 116.553 34.3738C115.339 33.7133 113.992 33.3831 112.511 33.3831C110.543 33.3831 108.899 33.893 107.575 34.914C106.253 35.9339 105.591 37.333 105.591 39.1089C105.591 40.2863 105.913 41.2641 106.556 42.0448C107.178 42.809 107.987 43.3986 108.905 43.7554C109.827 44.1148 110.75 44.4159 111.673 44.6551C112.595 44.8955 113.379 45.1662 114.022 45.4661C114.665 45.7659 114.987 46.1557 114.987 46.6364C114.987 47.6691 114.149 48.1849 112.475 48.1849C110.88 48.1849 109.774 47.6014 109.16 46.4369C109.108 46.335 108.987 46.2905 108.882 46.3354L104.928 48.0682C104.902 48.0799 104.881 48.1019 104.871 48.1291C104.861 48.1564 104.862 48.1866 104.875 48.2129L104.919 48.3027C106.301 51.0332 108.819 52.3984 112.475 52.3984C114.562 52.3984 116.304 51.9002 117.7 50.9048C119.097 49.9072 119.794 48.4847 119.794 46.6364C119.794 45.4112 119.472 44.3914 118.829 43.5746C118.223 42.7863 117.41 42.182 116.48 41.8289C115.576 41.4863 114.652 41.1976 113.713 40.9643C112.79 40.7356 112.007 40.4718 111.364 40.1708V40.172Z" clip-rule="evenodd" fill-rule="evenodd"></path>
</g>
<defs>
<clipPath id="clip0_3_323">
<rect transform="translate(61.8672 26)" fill="white" height="36" width="138.586"></rect>
</clipPath>
</defs>
</svg>
