<svg xmlns="http://www.w3.org/2000/svg" fill="none" viewBox="0 0 263 88" height="88" width="263">
<path fill="#F68B82" d="M199.339 46.9422V58.4553H192.946V46.9422"></path>
<path fill="#F03E2F" d="M192.946 46.9422L203.763 28.1145H210.553L199.339 46.9422H192.946Z"></path>
<path fill="#F68B82" d="M192.945 46.9422L181.828 28.1145H188.822L196.353 41.0167L192.945 46.9422Z"></path>
<path fill="#F68B82" d="M170.362 38.714V58.4554H163.873V42.0844L170.362 38.714Z"></path>
<path fill="#F9B1AB" d="M163.873 42.0676L180.323 33.6493L177.544 28.9489L163.873 35.6297V42.0676Z"></path>
<path fill="#F03E2F" d="M163.872 33.6493H153.959V28.1145H177.048L180.322 33.6493H170.361H163.872Z"></path>
<path fill="#F03E2F" d="M150.239 28.1145H143.799V58.4607H150.239V28.1145Z"></path>
<path fill="#F68B82" d="M117.544 37.1508V58.4554H111.356V28.1145L117.544 37.1508Z"></path>
<path fill="#F03E2F" d="M118.501 28.1145L132.129 48.8435V58.4554L111.356 28.1145H118.501Z"></path>
<path fill="#F68B82" d="M132.128 47.2855V28.1145H138.316V58.4554H132.128V47.2855Z"></path>
<path fill="#F9B1AB" d="M83.5254 58.9518L98.6884 51.0237L96.8189 46.1818L86.8363 50.8371L83.5254 58.9518Z"></path>
<path fill="#F68B82" d="M92.8998 35.973L83.5243 58.9518L78.7021 54.8007L89.8732 28.1145L92.8998 35.973Z"></path>
<path fill="#F03E2F" d="M89.874 28.1145H96.2658L108.088 58.4554H101.545L89.874 28.1145Z"></path>
<path fill="#F03E2F" d="M54.7097 31.616C54.7097 35.841 57.3654 38.3549 62.6822 39.6805L68.3161 40.9639C73.348 42.0993 76.4122 44.9195 76.4122 49.5142C76.4513 51.5159 75.7889 53.47 74.536 55.049C74.536 50.4649 72.1222 47.9879 66.3002 46.4986L60.7684 45.2628C56.3386 44.2699 52.9196 41.9515 52.9196 36.9606C52.8963 35.0333 53.526 33.1532 54.7097 31.616Z"></path>
<path fill="#F68B82" d="M71.075 48.3893C73.478 49.8998 74.5317 52.0122 74.5317 55.0437C72.5426 57.547 69.0483 58.9518 64.9411 58.9518C58.0278 58.9518 53.1894 55.6088 52.1143 49.7994H58.7535C59.6083 52.4665 61.8715 53.7022 64.8927 53.7022C68.5806 53.7022 71.032 51.7693 71.0804 48.3787"></path>
<path fill="#F68B82" d="M58.1608 37.8796C57.0634 37.2389 56.1632 36.3183 55.5555 35.2155C54.9479 34.1127 54.6555 32.8689 54.7094 31.616C56.6286 29.1338 59.9671 27.6181 64.0366 27.6181C71.079 27.6181 75.1539 31.2727 76.1592 36.4167H69.7727C69.0684 34.3886 67.3052 32.8095 64.0904 32.8095C60.6552 32.8095 58.3113 34.7742 58.1769 37.8796"></path>
</svg>
