<svg xmlns="http://www.w3.org/2000/svg" fill="none" viewBox="0 0 262 88" height="88" width="262">
<g clip-path="url(#clip0_3_226)">
<path fill="black" d="M130.859 35C124.745 35 120.337 38.9877 120.337 44.9692C120.337 50.9507 125.299 54.9384 131.413 54.9384C135.106 54.9384 138.363 53.4763 140.378 51.0117L136.142 48.5637C135.023 49.7877 133.323 50.5021 131.413 50.5021C128.76 50.5021 126.506 49.1175 125.67 46.9021H141.187C141.309 46.2818 141.381 45.6394 141.381 44.9637C141.381 38.9877 136.973 35 130.859 35ZM125.62 43.0307C126.312 40.8209 128.206 39.4307 130.853 39.4307C133.506 39.4307 135.4 40.8209 136.087 43.0307H125.62ZM190.49 35C184.377 35 179.968 38.9877 179.968 44.9692C179.968 50.9507 184.93 54.9384 191.044 54.9384C194.738 54.9384 197.994 53.4763 200.01 51.0117L195.773 48.5637C194.655 49.7877 192.955 50.5021 191.044 50.5021C188.392 50.5021 186.138 49.1175 185.301 46.9021H200.818C200.94 46.2818 201.012 45.6394 201.012 44.9637C201.012 38.9877 196.604 35 190.49 35ZM185.257 43.0307C185.949 40.8209 187.843 39.4307 190.49 39.4307C193.143 39.4307 195.037 40.8209 195.724 43.0307H185.257ZM163.643 44.9692C163.643 48.2923 165.814 50.5077 169.181 50.5077C171.462 50.5077 173.174 49.472 174.054 47.7827L178.307 50.2363C176.546 53.1717 173.246 54.9384 169.181 54.9384C163.061 54.9384 158.659 50.9507 158.659 44.9692C158.659 38.9877 163.067 35 169.181 35C173.246 35 176.541 36.7667 178.307 39.7021L174.054 42.1557C173.174 40.4664 171.462 39.4307 169.181 39.4307C165.819 39.4307 163.643 41.6461 163.643 44.9692ZM209.319 28.9077V54.3846H204.335V28.9077H209.319ZM73.2153 26.1384L93.6777 61.5846H52.7529L73.2153 26.1384ZM124.374 28.9077L109.029 55.4923L93.6832 28.9077H99.437L109.029 45.523L118.62 28.9077H124.374ZM156.997 35.5538V40.9206C156.444 40.76 155.857 40.6492 155.225 40.6492C152.008 40.6492 149.687 42.8646 149.687 46.1877V54.3846H144.703V35.5538H149.687V40.6492C149.687 37.8357 152.96 35.5538 156.997 35.5538Z"></path>
</g>
<defs>
<clipPath id="clip0_3_226">
<rect transform="translate(52.3984 26)" fill="white" height="36" width="157.275"></rect>
</clipPath>
</defs>
</svg>
