<svg xmlns="http://www.w3.org/2000/svg" fill="none" viewBox="0 0 263 88" height="88" width="263">
<g clip-path="url(#clip0_3_466)">
<path fill="#E55638" d="M75.1498 25.9431C76.6346 26.7314 77.8481 27.9478 78.6329 29.4344C79.4364 30.94 79.8644 32.4331 79.8644 36.5494V43.7794C79.8644 43.8727 79.808 43.9568 79.7218 43.9925C79.6356 44.0282 79.5363 44.0085 79.4703 43.9425V43.9415L76.7456 41.2117C76.5292 40.9949 76.4078 40.7011 76.408 40.3948V37.0533C76.408 33.9653 76.0867 32.8457 75.4843 31.7168C74.8955 30.602 73.9852 29.6898 72.8715 29.0989C71.7576 28.5008 70.6516 28.18 67.644 28.1733L63.1396 28.1732C63.0464 28.1727 62.9627 28.1163 62.9273 28.0301C62.8918 27.944 62.9116 27.845 62.9774 27.7791L65.7021 25.0483C65.9176 24.8317 66.2111 24.7096 66.517 24.7096H68.0492C72.1572 24.7096 73.6473 25.1386 75.1498 25.9431ZM69.4962 30.4822C72.0413 30.4822 74.104 32.5501 74.104 35.1004V38.0241C74.1036 38.1163 74.0484 38.1993 73.9637 38.2354C73.8789 38.2716 73.7808 38.2539 73.714 38.1904L69.999 34.6314C69.7527 34.3851 69.4654 34.2065 69.1585 34.0946C68.8982 33.996 68.6221 33.9456 68.3437 33.9458H57.3772C57.2839 33.9458 57.1998 33.8895 57.1641 33.8033C57.1284 33.717 57.1481 33.6178 57.214 33.5518L59.9428 30.8199C60.1583 30.6044 60.4508 30.4822 60.7566 30.4822H69.4962Z" clip-rule="evenodd" fill-rule="evenodd"></path>
<path fill="#F4C942" d="M76.8015 44.7317L79.5272 47.4626C79.7427 47.6791 79.8648 47.9736 79.8648 48.2795V49.8157C79.8648 53.932 79.4369 55.4252 78.6333 56.9307C77.8486 58.4174 76.6351 59.6338 75.1502 60.422C73.6478 61.2256 72.1577 61.6546 68.0496 61.6546H60.8361C60.743 61.6541 60.6593 61.5977 60.6238 61.5115C60.5884 61.4254 60.6082 61.3264 60.674 61.2605V61.2615L63.3987 58.5307C63.6142 58.3141 63.9077 58.192 64.2135 58.192H67.5478C70.6286 58.192 71.7452 57.8708 72.872 57.2663C73.9857 56.6754 74.896 55.7632 75.4848 54.6484C76.0872 53.5195 76.4084 52.3998 76.4084 49.3119V44.8949C76.4089 44.802 76.465 44.7185 76.5508 44.6828C76.6366 44.6472 76.7354 44.6665 76.8015 44.7317ZM71.0422 38.958L73.7679 41.692C73.9834 41.9085 74.1045 42.202 74.1045 42.5089V51.2669C74.1045 53.8171 72.0417 55.885 69.4966 55.885H66.579C66.4869 55.8845 66.4039 55.8294 66.3677 55.7446C66.3316 55.6599 66.3492 55.5618 66.4128 55.495V55.494L69.9636 51.7697C70.2099 51.5234 70.3885 51.2361 70.5003 50.9282C70.5984 50.6674 70.6485 50.391 70.6481 50.1123V39.1212C70.6482 39.0279 70.7044 38.9438 70.7907 38.9081C70.8769 38.8724 70.9761 38.8921 71.0422 38.958Z" clip-rule="evenodd" fill-rule="evenodd"></path>
<path fill="#7B8FEA" d="M43.3931 42.4216L46.1198 45.1525C46.3353 45.369 46.4574 45.6635 46.4574 45.9694V49.3108C46.4574 52.3988 46.7776 53.5184 47.3811 54.6473C47.9696 55.762 48.8795 56.6742 49.9929 57.2653C51.1197 57.8697 52.2373 58.191 55.3181 58.191H59.7248C59.8183 58.1906 59.9028 58.2467 59.9387 58.3331C59.9747 58.4194 59.9551 58.5189 59.889 58.585L57.1622 61.3159C56.9467 61.5324 56.6532 61.6546 56.3484 61.6546H54.8152C50.7071 61.6546 49.218 61.2256 47.7156 60.421C46.2304 59.6329 45.0165 58.4165 44.2315 56.9297C43.436 55.4392 43.0086 53.9609 43.0001 49.9374L43 42.5848C43.0005 42.4919 43.0566 42.4084 43.1424 42.3728C43.2282 42.3371 43.3269 42.3564 43.3931 42.4216ZM49.1503 48.1737H49.1493L52.8664 51.7328C53.1116 51.9791 53.4 52.1576 53.7058 52.2695C53.9583 52.366 54.2333 52.4183 54.5207 52.4183H65.4872C65.5803 52.4188 65.664 52.4752 65.6995 52.5614C65.7349 52.6475 65.7151 52.7465 65.6493 52.8124L62.9215 55.5443C62.706 55.7598 62.4125 55.8819 62.1077 55.8819H53.3682C52.1448 55.8805 50.972 55.3932 50.1078 54.5272C49.2437 53.6611 48.759 52.4872 48.7603 51.2638V48.34C48.7608 48.2479 48.8159 48.1648 48.9007 48.1287C48.9854 48.0926 49.0835 48.1102 49.1503 48.1737Z" clip-rule="evenodd" fill-rule="evenodd"></path>
<path fill="#D97EE8" d="M56.2858 30.4822C56.3779 30.4827 56.461 30.5379 56.4971 30.6226C56.5332 30.7073 56.5156 30.8054 56.4521 30.8722L52.9002 34.5975C52.6539 34.8438 52.4764 35.1312 52.3645 35.439C52.2661 35.6998 52.2157 35.9762 52.2157 36.2549V47.246C52.2148 47.3387 52.1586 47.4219 52.0729 47.4572C51.9872 47.4926 51.8887 47.4733 51.8227 47.4082L49.0969 44.6742C48.8812 44.4575 48.7602 44.1641 48.7603 43.8584V35.1004C48.7603 32.5501 50.8231 30.4822 53.3682 30.4822H56.2858ZM62.0287 24.7096C62.1218 24.7101 62.2056 24.7665 62.241 24.8526C62.2765 24.9388 62.2567 25.0378 62.1909 25.1037L59.4662 27.8345C59.2496 28.0511 58.9571 28.1732 58.6513 28.1732H55.317C52.2362 28.1732 51.1187 28.4944 49.9918 29.0989C48.8781 29.6898 47.9678 30.6019 47.379 31.7168C46.7829 32.8338 46.4622 33.9418 46.4555 36.9565L46.4554 41.4703C46.4549 41.5632 46.3988 41.6467 46.313 41.6823C46.2272 41.7179 46.1285 41.6987 46.0623 41.6335L43.3387 38.9026C43.1219 38.686 43 38.3922 43 38.0857V36.5494C43 32.4331 43.4279 30.94 44.2315 29.4344C45.0162 27.9478 46.2298 26.7314 47.7146 25.9431C49.202 25.1466 50.6773 24.7182 54.6917 24.7097L62.0287 24.7096Z" clip-rule="evenodd" fill-rule="evenodd"></path>
</g>
<g clip-path="url(#clip1_3_466)">
<path fill="url(#paint0_linear_3_466)" d="M79.2559 44.172L75.6944 40.6137C75.5544 40.4742 75.4433 40.3084 75.3675 40.1258C75.2916 39.9432 75.2526 39.7475 75.2526 39.5497V35.1952C75.2526 31.1706 74.8351 29.711 74.0465 28.2411C73.2754 26.7861 72.085 25.5969 70.6299 24.828C69.158 24.042 67.6965 23.6223 63.6708 23.6223H57.9093C57.8503 23.6215 57.7928 23.6034 57.744 23.5702C57.6951 23.5371 57.6571 23.4903 57.6345 23.4357C57.6119 23.3812 57.6058 23.3212 57.6169 23.2631C57.628 23.2051 57.6559 23.1516 57.697 23.1093L61.2568 19.5511C61.5408 19.2676 61.9256 19.1086 62.3267 19.1089H64.3283C69.6981 19.1089 71.6445 19.6668 73.6082 20.7153C75.5484 21.7406 77.1357 23.3264 78.1636 25.2667C79.2127 27.2272 79.7718 29.1738 79.7718 34.5388V43.9595C79.772 44.0196 79.7543 44.0784 79.7209 44.1284C79.6875 44.1784 79.64 44.2173 79.5844 44.2401C79.5288 44.2629 79.4677 44.2686 79.4089 44.2565C79.3501 44.2443 79.2979 44.2149 79.2559 44.172ZM54.6843 66.7426L58.2458 63.1843C58.3863 63.0439 58.5532 62.9325 58.7367 62.8567C58.9203 62.7808 59.117 62.7419 59.3156 62.7421H63.6708C67.6982 62.7421 69.158 62.3224 70.6317 61.5365C72.086 60.7672 73.2758 59.578 74.0465 58.1233C74.8333 56.6534 75.2544 55.1938 75.2544 51.1692V45.4139C75.254 45.3541 75.2715 45.2956 75.3046 45.2458C75.3377 45.196 75.3848 45.1573 75.4401 45.1345C75.4953 45.1116 75.556 45.1058 75.6145 45.1178C75.673 45.1297 75.7267 45.1588 75.7686 45.2014L79.3301 48.7597C79.4697 48.8994 79.5804 49.0652 79.6559 49.2478C79.7314 49.4304 79.7702 49.6261 79.7701 49.8237V51.8256C79.7701 57.1906 79.2127 59.1373 78.1619 61.0977C77.1336 63.0373 75.5464 64.6225 73.6065 65.6474C71.6445 66.6976 69.6964 67.2556 64.3265 67.2556H54.8982C54.8387 67.2559 54.7804 67.2385 54.7308 67.2056C54.6812 67.1727 54.6425 67.1258 54.6196 67.0708C54.5966 67.0158 54.5905 66.9553 54.6021 66.8968C54.6136 66.8384 54.6422 66.7847 54.6843 66.7426ZM35.6585 45.7507L32.097 42.1925C32.0549 42.1501 32.0011 42.1212 31.9426 42.1094C31.8841 42.0977 31.8234 42.1035 31.7681 42.1262C31.7129 42.149 31.6657 42.1876 31.6324 42.2372C31.5991 42.2868 31.5812 42.3452 31.5811 42.4049V51.8256C31.5811 57.1906 32.1401 59.1355 33.191 61.0977C34.2187 63.0371 35.8053 64.6223 37.7447 65.6474C39.7083 66.6976 41.6547 67.2556 47.0246 67.2556H49.0262C49.4273 67.2559 49.8121 67.0969 50.0961 66.8134L53.6558 63.2551C53.6979 63.213 53.7265 63.1593 53.738 63.1009C53.7496 63.0424 53.7435 62.9819 53.7205 62.9269C53.6976 62.8719 53.6589 62.825 53.6093 62.7921C53.5596 62.7592 53.5014 62.7418 53.4419 62.7421H47.682C43.6546 62.7421 42.1948 62.3224 40.7212 61.5365C39.2661 60.7676 38.0757 59.5784 37.3047 58.1233C36.5178 56.6517 36.0985 55.1938 36.0985 51.1692V46.813C36.0985 46.6157 36.0597 46.4203 35.9842 46.238C35.9087 46.0557 35.798 45.8901 35.6585 45.7507ZM56.6686 19.6219L53.1071 23.1801C52.9666 23.3206 52.7997 23.4319 52.6162 23.5078C52.4326 23.5837 52.2359 23.6226 52.0373 23.6223H47.6838C43.6564 23.6223 42.1966 24.042 40.7229 24.828C39.2678 25.5969 38.0774 26.7861 37.3064 28.2411C36.5195 29.711 36.1002 31.1706 36.1002 35.1952V40.9506C36.1001 41.0103 36.0822 41.0687 36.0489 41.1183C36.0156 41.1679 35.9684 41.2065 35.9131 41.2293C35.8579 41.252 35.7972 41.2578 35.7387 41.2461C35.6802 41.2343 35.6264 41.2054 35.5843 41.163L32.0228 37.6031C31.8831 37.4637 31.7721 37.2982 31.6963 37.1159C31.6205 36.9336 31.5814 36.7382 31.5811 36.5408V34.5388C31.5811 29.1738 32.1401 27.2272 33.191 25.2667C34.2188 23.3274 35.8054 21.7422 37.7447 20.717C39.7083 19.6668 41.6547 19.1089 47.0246 19.1089H56.4547C56.5138 19.1094 56.5715 19.1273 56.6206 19.1603C56.6697 19.1933 56.708 19.2401 56.7308 19.2947C56.7536 19.3493 56.7598 19.4095 56.7488 19.4676C56.7377 19.5258 56.7099 19.5794 56.6686 19.6219ZM66.8752 32.0377L71.7308 36.6755C71.7735 36.7164 71.8273 36.7439 71.8854 36.7545C71.9435 36.7651 72.0035 36.7584 72.0579 36.7352C72.1123 36.7121 72.1586 36.6734 72.1913 36.6241C72.224 36.5748 72.2414 36.517 72.2416 36.4579V32.6492C72.2397 31.0516 71.6041 29.5201 70.4745 28.3916C69.3448 27.2631 67.8137 26.6299 66.2177 26.6313H54.7947C54.3951 26.6314 54.0117 26.7897 53.7283 27.0717L50.1633 30.63C50.1207 30.672 50.0915 30.7258 50.0797 30.7846C50.0678 30.8433 50.0738 30.9043 50.0968 30.9596C50.1198 31.015 50.1588 31.0621 50.2088 31.0951C50.2587 31.1281 50.3174 31.1454 50.3773 31.1447H64.7113C65.0875 31.1447 65.4464 31.2138 65.776 31.3381C66.178 31.4832 66.5525 31.7182 66.8752 32.0377ZM62.1869 59.2288L66.8286 54.3751C67.1512 54.0538 67.3842 53.679 67.5309 53.2783C67.6551 52.9484 67.7241 52.5891 67.7241 52.2143V37.8932C67.7243 37.8335 67.7422 37.7751 67.7755 37.7255C67.8088 37.6759 67.856 37.6373 67.9112 37.6145C67.9664 37.5918 68.0271 37.586 68.0857 37.5977C68.1442 37.6095 68.1979 37.6384 68.2401 37.6808L71.8016 41.2425C72.0831 41.5242 72.2414 41.9063 72.2416 42.3048V53.7187C72.2402 55.3163 71.605 56.8479 70.4757 57.9768C69.3464 59.1056 67.8154 59.7393 66.2195 59.7384H62.406C62.3471 59.7382 62.2895 59.7209 62.2404 59.6884C62.1912 59.6559 62.1526 59.6098 62.1293 59.5556C62.106 59.5015 62.0991 59.4417 62.1093 59.3836C62.1195 59.3255 62.1465 59.2717 62.1869 59.2288ZM44.4777 54.325L39.6221 49.689C39.5795 49.6481 39.5259 49.6207 39.4679 49.61C39.4099 49.5994 39.3501 49.6059 39.2958 49.6289C39.2415 49.6518 39.1951 49.6902 39.1623 49.7392C39.1295 49.7883 39.1118 49.8459 39.1113 49.9049V53.7153C39.1131 55.3129 39.7487 56.8443 40.8784 57.9728C42.008 59.1014 43.5392 59.7346 45.1351 59.7332H56.5582C56.9581 59.7328 57.3415 59.5738 57.6246 59.291L61.1895 55.7328C61.2316 55.6906 61.2602 55.6369 61.2717 55.5785C61.2832 55.52 61.2772 55.4595 61.2542 55.4045C61.2313 55.3495 61.1926 55.3026 61.1429 55.2697C61.0933 55.2368 61.0351 55.2194 60.9756 55.2198H46.6415C46.2654 55.2198 45.9065 55.1507 45.5751 55.0263C45.1625 54.8757 44.7879 54.6363 44.4777 54.325ZM49.166 27.1391L44.5243 31.9928C44.2133 32.3026 43.9741 32.677 43.8237 33.0896C43.6978 33.4213 43.6287 33.7805 43.6287 34.1536V48.4764C43.6291 48.5364 43.6115 48.5951 43.5782 48.645C43.5449 48.6949 43.4974 48.7337 43.4419 48.7563C43.3864 48.779 43.3254 48.7845 43.2668 48.7722C43.2081 48.7598 43.1545 48.7302 43.1128 48.6871L39.553 45.1289C39.2715 44.8472 39.1132 44.4651 39.113 44.0666V32.6492C39.1148 31.0516 39.7505 29.5201 40.8801 28.3916C42.0098 27.2631 43.5409 26.6299 45.1369 26.6313H48.9503C49.0087 26.632 49.0657 26.6497 49.1142 26.6823C49.1628 26.7148 49.2009 26.7607 49.2239 26.8144C49.2469 26.8682 49.2538 26.9275 49.2439 26.9851C49.2339 27.0427 49.2074 27.0962 49.1677 27.1391H49.166ZM94.7736 33.7512H93.6072C92.6374 33.7512 91.8506 34.5354 91.8506 35.5027V60.2376C91.8506 61.2066 92.6374 61.9908 93.6072 61.9908H94.6856C95.6571 61.9908 96.4439 61.2066 96.4439 60.2393V50.5751C96.4439 50.5111 96.4957 50.4611 96.5578 50.4611C96.789 50.7789 97.0824 51.1053 97.4379 51.437C97.7968 51.7703 98.2316 52.083 98.7406 52.3749C99.2514 52.6685 99.8381 52.9069 100.501 53.0935C101.165 53.2783 101.931 53.3715 102.799 53.3715C104.015 53.385 105.22 53.1313 106.328 52.6285C107.436 52.1256 108.42 51.3858 109.211 50.4611C110.01 49.5197 110.627 48.4371 111.028 47.269C111.463 46.0461 111.679 44.7299 111.679 43.3204C111.69 41.9798 111.484 40.6462 111.068 39.3718C110.688 38.1979 110.076 37.1124 109.268 36.1798C108.473 35.273 107.494 34.5458 106.397 34.0466C105.275 33.5284 104.01 33.2693 102.608 33.2693C101.305 33.2693 100.093 33.5335 98.9701 34.0656C97.8485 34.5976 96.9547 35.4474 96.2904 36.6185C96.2804 36.6185 96.2705 36.6165 96.2613 36.6127C96.2521 36.6089 96.2437 36.6033 96.2367 36.5962C96.2296 36.5892 96.224 36.5808 96.2202 36.5716C96.2164 36.5624 96.2144 36.5525 96.2144 36.5425V35.1848C96.214 34.9959 96.1764 34.8089 96.1037 34.6345C96.0311 34.4601 95.9248 34.3017 95.791 34.1684C95.6572 34.0351 95.4985 33.9295 95.324 33.8577C95.1494 33.7858 94.9624 33.749 94.7736 33.7495V33.7512ZM106.723 41.1699C106.965 41.8608 107.085 42.5794 107.085 43.3239C107.085 44.0683 106.965 44.7869 106.723 45.4778C106.492 46.1557 106.127 46.7802 105.65 47.3145C105.174 47.8489 104.595 48.2821 103.948 48.5887C103.284 48.9082 102.53 49.0671 101.688 49.0671C100.94 49.0802 100.198 48.93 99.5136 48.6269C98.8295 48.3238 98.2194 47.8752 97.726 47.3122C97.252 46.777 96.8879 46.1537 96.6545 45.4778C96.4129 44.7869 96.2921 44.0683 96.2921 43.3239C96.2921 42.5794 96.4129 41.8608 96.6545 41.1699C96.8857 40.492 97.2503 39.8674 97.7269 39.3331C98.2035 38.7987 98.7823 38.3655 99.4291 38.0591C100.093 37.7395 100.846 37.5806 101.69 37.5806C102.437 37.5677 103.179 37.718 103.863 38.021C104.547 38.3241 105.157 38.7727 105.65 39.3355C106.122 39.8675 106.48 40.479 106.723 41.1699ZM119.614 33.7512H118.3C117.328 33.7512 116.541 34.5354 116.541 35.5027V51.1451C116.541 52.1124 117.328 52.8965 118.3 52.8965H119.378C120.348 52.8965 121.135 52.1124 121.135 51.1451V42.6468C121.135 42.379 121.192 41.98 121.307 41.448C121.423 40.9177 121.652 40.3857 121.997 39.8537C122.343 39.3217 122.838 38.8502 123.49 38.4373C124.141 38.0245 125.002 37.819 126.073 37.819C126.43 37.819 126.794 37.8535 127.164 37.9192C127.301 37.9442 127.443 37.9386 127.579 37.9029C127.714 37.8671 127.84 37.8021 127.948 37.7123C128.055 37.6226 128.142 37.5103 128.201 37.3834C128.261 37.2564 128.292 37.118 128.292 36.9778V34.3523C128.293 34.1158 128.211 33.8866 128.061 33.7038C127.911 33.5211 127.703 33.3961 127.471 33.3504C127.2 33.2977 126.924 33.2716 126.648 33.2727C125.423 33.2727 124.337 33.5785 123.393 34.1882C122.449 34.8014 121.721 35.665 121.212 36.7826C121.202 36.7828 121.192 36.781 121.182 36.7772C121.173 36.7733 121.164 36.7676 121.157 36.7603C121.15 36.7531 121.144 36.7444 121.14 36.7349C121.136 36.7253 121.134 36.7151 121.135 36.7049V35.266C121.133 34.8638 120.973 34.4785 120.688 34.1946C120.403 33.9106 120.016 33.7512 119.614 33.7512ZM134.92 33.7512H133.841C132.87 33.7512 132.083 34.5354 132.083 35.5027V51.1451C132.083 52.1124 132.87 52.8965 133.841 52.8965H134.92C135.89 52.8965 136.677 52.1124 136.677 51.1451V35.5009C136.677 34.5336 135.89 33.7495 134.92 33.7495V33.7512ZM132.256 25.2356C131.707 25.8056 131.433 26.4775 131.433 27.2479C131.433 28.02 131.707 28.6919 132.256 29.2637C132.804 29.8337 133.5 30.1204 134.344 30.1204C135.184 30.1204 135.893 29.8475 136.466 29.3034C137.041 28.7576 137.329 28.0736 137.329 27.2479C137.338 26.8639 137.267 26.4823 137.118 26.1282C136.969 25.7742 136.747 25.4558 136.466 25.1942C135.893 24.6501 135.184 24.3771 134.344 24.3771C133.5 24.3771 132.804 24.6639 132.256 25.2356ZM148.735 37.1021C149.463 37.1021 150.293 37.4424 151.225 38.1264C151.908 38.6273 152.852 38.5703 153.469 37.99L154.042 37.4545C154.225 37.2832 154.37 37.0745 154.465 36.8424C154.56 36.6104 154.605 36.3605 154.595 36.1098C154.586 35.8591 154.522 35.6134 154.409 35.3894C154.296 35.1654 154.136 34.9684 153.941 34.8117C153.406 34.3834 152.922 34.0897 152.488 33.9308C151.323 33.4984 150.092 33.2756 148.85 33.2727C147.932 33.2727 147.026 33.3919 146.132 33.6303C145.279 33.8513 144.474 34.2303 143.76 34.7478C143.07 35.2522 142.516 35.8982 142.095 36.6824C141.672 37.4666 141.463 38.3924 141.463 39.4547C141.463 40.6776 141.705 41.6346 142.19 42.3272C142.674 43.0181 143.287 43.557 144.027 43.9422C144.781 44.3327 145.586 44.6147 146.419 44.78C147.275 44.9527 148.072 45.1393 148.812 45.3379C149.552 45.5383 150.165 45.7974 150.65 46.1152C151.133 46.4347 151.376 46.927 151.376 47.592C151.384 47.9397 151.284 48.2811 151.09 48.5697C150.9 48.8478 150.65 49.0809 150.343 49.2675C150.037 49.454 149.704 49.587 149.349 49.6648C148.992 49.746 148.647 49.7857 148.314 49.7857C147.346 49.7857 146.522 49.5663 145.846 49.1276C145.591 48.956 145.349 48.7666 145.121 48.561C144.788 48.2688 144.356 48.1131 143.913 48.1249C143.47 48.1368 143.047 48.3153 142.73 48.6249L142.253 49.0913C142.074 49.2667 141.934 49.4787 141.843 49.7131C141.753 49.9475 141.714 50.1987 141.729 50.4495C141.744 50.7003 141.813 50.9449 141.931 51.1666C142.05 51.3883 142.214 51.5818 142.414 51.7341C143.07 52.235 143.634 52.5701 144.105 52.7359C145.302 53.1625 146.617 53.375 148.046 53.375C148.992 53.375 149.936 53.2696 150.879 53.0572C151.781 52.8618 152.643 52.5112 153.425 52.0208C154.177 51.5419 154.807 50.8922 155.262 50.1242C155.735 49.34 155.97 48.3762 155.97 47.2327C155.97 45.9822 155.728 44.9993 155.245 44.2808C154.775 43.5775 154.145 42.9965 153.406 42.5863C152.655 42.1702 151.85 41.8615 151.014 41.6691C150.215 41.4832 149.417 41.2903 148.621 41.0905C147.982 40.9421 147.365 40.7141 146.783 40.4116C146.3 40.1456 146.057 39.7207 146.057 39.1352C146.057 38.4183 146.35 37.8984 146.937 37.5806C147.486 37.2713 148.104 37.1066 148.735 37.1021ZM162.52 33.7512H161.671C160.701 33.7512 159.914 34.5354 159.914 35.5027V51.1451C159.914 52.1124 160.701 52.8965 161.671 52.8965H162.749C163.721 52.8965 164.508 52.1124 164.508 51.1451V42.4464C164.508 41.8073 164.584 41.1958 164.737 40.612C164.88 40.0485 165.134 39.5193 165.484 39.0557C165.829 38.6032 166.261 38.2439 166.785 37.9796C167.308 37.7119 167.952 37.5806 168.718 37.5806C169.841 37.5806 170.645 37.933 171.13 38.636C171.615 39.3407 171.857 40.2925 171.857 41.4895V51.1451C171.857 52.1124 172.645 52.8965 173.617 52.8965H174.694C175.665 52.8965 176.452 52.1124 176.452 51.1451V42.5259C176.452 41.9144 176.521 41.3098 176.662 40.7122C176.79 40.1418 177.024 39.6005 177.351 39.1162C177.67 38.6498 178.079 38.2784 178.576 37.9986C179.073 37.7188 179.68 37.5806 180.395 37.5806C181.083 37.5806 181.644 37.6998 182.079 37.9382C182.503 38.1681 182.859 38.5052 183.112 38.9158C183.368 39.3286 183.546 39.8071 183.647 40.3529C183.751 40.897 183.803 41.4618 183.803 42.0474V51.1451C183.803 52.1124 184.588 52.8965 185.559 52.8965H186.638C187.607 52.8965 188.394 52.1124 188.394 51.1451V41.4895C188.394 40.346 188.28 39.2751 188.049 38.2767C187.846 37.341 187.463 36.4539 186.921 35.665C186.395 34.9182 185.691 34.315 184.872 33.9101C184.03 33.4852 182.997 33.271 181.772 33.271C180.395 33.271 179.208 33.5577 178.212 34.1295C177.216 34.7012 176.388 35.5977 175.724 36.8223C174.78 34.4559 172.866 33.2727 169.981 33.2727C168.451 33.2727 167.232 33.6251 166.326 34.3281C165.48 34.9779 164.781 35.8011 164.278 36.7429V35.5027C164.278 34.5354 163.491 33.7512 162.52 33.7512ZM196.896 33.7512H195.818C194.848 33.7512 194.061 34.5354 194.061 35.5027V51.1451C194.061 52.1124 194.848 52.8965 195.818 52.8965H196.896C197.867 52.8965 198.654 52.1124 198.654 51.1451V35.5009C198.654 34.5336 197.867 33.7495 196.896 33.7495V33.7512ZM194.234 25.2356C193.685 25.8056 193.41 26.4775 193.41 27.2479C193.41 28.02 193.685 28.6919 194.234 29.2637C194.782 29.8337 195.476 30.1204 196.32 30.1204C197.162 30.1204 197.869 29.8475 198.442 29.3034C199.018 28.7576 199.305 28.0736 199.305 27.2479C199.315 26.8639 199.243 26.4823 199.094 26.1282C198.945 25.7742 198.723 25.4558 198.442 25.1942C197.869 24.6501 197.162 24.3771 196.32 24.3771C195.476 24.3771 194.782 24.6621 194.232 25.2339L194.234 25.2356ZM215.383 38.0988C215.527 38.1834 215.692 38.2992 215.882 38.446C216.593 39.0022 217.611 38.9296 218.236 38.2784L218.945 37.5374C219.117 37.3583 219.249 37.1446 219.332 36.9104C219.415 36.6762 219.447 36.427 219.427 36.1794C219.406 35.9317 219.333 35.6914 219.212 35.4743C219.091 35.2572 218.925 35.0684 218.726 34.9206C218.111 34.4646 217.577 34.1467 217.124 33.9705C215.999 33.5171 214.797 33.2803 213.584 33.2727C212.205 33.2727 210.904 33.5111 209.679 33.9896C208.454 34.468 207.396 35.1468 206.502 36.0243C205.59 36.9293 204.868 38.0075 204.378 39.1956C203.855 40.4324 203.593 41.8073 203.593 43.3239C203.593 44.8404 203.853 46.2154 204.378 47.4521C204.868 48.6403 205.59 49.7185 206.502 50.6234C207.396 51.5009 208.454 52.178 209.679 52.6582C210.904 53.1366 212.205 53.375 213.584 53.375C213.993 53.375 214.477 53.3284 215.038 53.2368C216.299 53.0218 217.511 52.583 218.617 51.9413C218.832 51.8181 219.017 51.6484 219.158 51.4445C219.299 51.2406 219.393 51.0077 219.433 50.7629C219.472 50.518 219.457 50.2674 219.388 50.0293C219.318 49.7912 219.196 49.5716 219.031 49.3867L218.332 48.6042C218.04 48.2778 217.638 48.0717 217.202 48.026C216.767 47.9804 216.33 48.0984 215.977 48.3572C215.832 48.4626 215.699 48.5472 215.575 48.6094C214.956 48.9163 214.274 49.0731 213.584 49.0671C212.742 49.0671 211.989 48.9082 211.325 48.5887C210.679 48.2815 210.1 47.848 209.624 47.3138C209.147 46.7795 208.782 46.1553 208.55 45.4778C208.307 44.7859 208.184 44.0574 208.186 43.3239C208.186 42.5794 208.307 41.8608 208.55 41.1699C208.782 40.4924 209.147 39.8682 209.624 39.334C210.1 38.7997 210.679 38.3663 211.325 38.0591C212.032 37.7307 212.804 37.5671 213.584 37.5806C214.196 37.5806 214.797 37.7533 215.383 38.0988Z" clip-rule="evenodd" fill-rule="evenodd"></path>
</g>
<defs>
<linearGradient gradientUnits="userSpaceOnUse" y2="43.1822" x2="219.664" y1="43.1822" x1="91.7006" id="paint0_linear_3_466">
<stop stop-color="#D97EE8"></stop>
<stop stop-color="#E55638" offset="0.364583"></stop>
<stop stop-color="#F4C942" offset="0.677083"></stop>
<stop stop-color="#7B8FEA" offset="1"></stop>
</linearGradient>
<clipPath id="clip0_3_466">
<rect transform="translate(43 24.7096)" fill="white" height="36.945" width="36.945"></rect>
</clipPath>
<clipPath id="clip1_3_466">
<rect transform="translate(90.6924 19)" fill="white" height="48.3643" width="128.971"></rect>
</clipPath>
</defs>
</svg>
