<svg xmlns="http://www.w3.org/2000/svg" fill="none" viewBox="0 0 262 88" height="88" width="262">
<g clip-path="url(#clip0_3_210)">
<path fill="#EC4815" d="M102.662 41.7211C105.076 39.9889 105.441 31.9941 106.197 28.9236C106.954 25.8531 110.083 26.0088 110.083 26.0088C110.083 26.0088 109.27 27.4224 109.602 28.4772C109.933 29.5321 112.203 30.475 112.203 30.475L111.713 31.7655C111.713 31.7655 110.691 31.6348 110.083 32.8515C108.494 36.0296 111.263 45.3091 111.263 45.3091C111.263 45.3091 106.818 51.6194 106.818 56.3707C106.818 59.4153 108.259 61.9667 108.259 61.9667H106.237C106.237 61.9667 103.27 58.4366 102.662 56.6723C102.054 54.9081 102.297 53.1439 102.297 53.1439C102.297 53.1439 99.0725 52.9614 96.2133 53.1439C93.3541 53.3263 91.4473 55.7842 91.1032 57.159C90.759 58.5338 90.6165 61.9667 90.6165 61.9667H89.0176C88.0445 58.9636 87.2716 57.8873 87.6909 56.3707C88.8523 52.1705 88.6241 49.7883 88.3552 48.7271C88.0863 47.6661 86.2656 46.7399 86.2656 46.7399C87.1575 44.9229 88.5922 44.0376 91.9839 43.9587C95.8999 43.8677 100.248 43.4532 102.662 41.7211Z"></path>
<path fill="#EC4815" d="M92.5176 56.1948C92.5176 56.1948 92.9307 60.0184 95.1257 61.9667H97.0067C95.1257 59.8358 94.9206 54.2813 94.9206 54.2813C93.9638 54.5928 92.6393 55.7081 92.5176 56.1948Z"></path>
<path fill="#EC4815" d="M127.368 43.5748V47.7701H123.343V53.7229C123.343 55.0552 123.825 55.5654 125.554 55.5654C126.149 55.5654 126.886 55.5087 127.595 55.452V59.5906C126.83 59.7607 125.582 59.9591 124.023 59.9591C119.091 59.9591 118.184 57.1244 118.184 54.9418V47.7701H115.633V43.5748H118.184V41.052L123.06 38.8126H123.343V43.5748H127.368Z"></path>
<path fill="#EC4815" d="M131.703 37.5087H137.258V41.6473H131.703V37.5087ZM129.18 47.7701V43.5749H137.23V59.4489H132.071V47.7701H129.18Z"></path>
<path fill="#EC4815" d="M145.796 45.6725H146.307C146.817 44.0851 147.922 43.0079 151.04 43.0079C154.3 43.0079 156.766 44.5953 156.766 48.4504V59.4489H151.607V49.9811C151.607 48.252 150.644 47.4583 149.056 47.4583C147.27 47.4583 146.278 48.3371 146.278 50.4914V59.4489H141.119V43.5748H145.796V45.6725Z"></path>
<path fill="#EC4815" d="M170.257 57.0394H169.974C169.152 58.5701 167.196 59.8457 164.786 59.8457C161.243 59.8457 159.429 58.0882 159.429 55.3386C159.429 52.6174 161.044 51.03 164.049 50.5481L168.528 49.8394C169.52 49.6693 169.775 49.1308 169.775 48.6489V48.3371C169.775 47.6284 169.265 46.7497 167.564 46.7497C166.118 46.7497 165.268 47.4016 165.183 48.5071H160.251C160.449 45.304 162.632 43.0079 167.337 43.0079C172.27 43.0079 174.707 44.9922 174.707 48.167V55.3103H176.493V59.4489H170.257V57.0394ZM169.775 53.2693V51.9371H169.492C169.208 52.2489 168.811 52.4756 168.188 52.6174L166.09 53.1276C165.155 53.3544 164.701 53.893 164.701 54.7717C164.701 55.8205 165.381 56.3591 166.742 56.3591C168.755 56.3591 169.775 54.9701 169.775 53.2693Z"></path>
</g>
<defs>
<clipPath id="clip0_3_210">
<rect transform="translate(86.2656 26)" fill="white" height="36" width="90.2835"></rect>
</clipPath>
</defs>
</svg>
