<svg xmlns="http://www.w3.org/2000/svg" fill="none" viewBox="0 0 263 88" height="88" width="263">
<path fill="#222549" d="M107.822 42.4398C105.552 42.4398 103.781 43.0287 102.033 43.9571V60.8053C102.033 61.2582 101.647 61.6885 101.193 61.6885H97.3341C96.88 61.6885 96.4941 61.2809 96.4941 60.8053V38.8847C96.4941 38.4318 96.88 38.0468 97.3341 38.0468H100.989C101.443 38.0468 101.829 38.4318 101.829 38.8847V39.7677C103.894 38.1826 106.165 37.7524 107.844 37.7524C108.298 37.7524 108.684 38.1372 108.684 38.5901V41.6022C108.662 42.0551 108.276 42.4398 107.822 42.4398Z"></path>
<path fill="#222549" d="M129.954 51.7698H116.266V51.9056C116.266 54.3287 117.265 57.2273 121.305 57.2273C124.37 57.2273 127.275 56.9782 129.023 56.797C129.069 56.797 129.114 56.797 129.16 56.797C129.591 56.797 129.909 57.0008 129.909 57.4311V60.1938C129.909 60.8732 129.772 61.1676 129.023 61.2808C126.299 61.779 124.665 61.9828 120.874 61.9828C116.674 61.9828 110.704 59.7183 110.704 51.4754V48.373C110.704 41.8284 114.359 37.7296 120.783 37.7296C127.253 37.7296 130.771 42.1228 130.771 48.373V50.7281C130.794 51.4074 130.544 51.7698 129.954 51.7698ZM125.21 47.671C125.21 44.4101 123.394 42.5079 120.806 42.5079C118.218 42.5079 116.311 44.3421 116.311 47.671V47.8295H125.21V47.671Z"></path>
<path fill="#222549" d="M154.079 61.6658H150.22C149.766 61.6658 149.38 61.2582 149.38 60.7827V47.1275C149.38 43.4816 149.04 42.4398 145.817 42.4398C144.386 42.4398 142.843 43.0287 141.072 43.9571V60.8053C141.072 61.2582 140.686 61.6885 140.232 61.6885H136.373C135.919 61.6885 135.533 61.2809 135.533 60.8053V38.8847C135.533 38.4318 135.919 38.0468 136.373 38.0468H140.028C140.482 38.0468 140.868 38.4318 140.868 38.8847V39.7677C143.297 38.2279 144.908 37.7524 147.678 37.7524C153.716 37.7524 154.942 41.8058 154.942 47.1275V60.7827C154.919 61.2582 154.556 61.6658 154.079 61.6658Z"></path>
<path fill="#222549" d="M178.033 60.9205C175.423 61.5998 172.29 62.0074 169.588 62.0074C162.824 62.0074 159.555 58.0219 159.555 51.5V48.2844C159.555 41.7399 162.824 37.7769 169.588 37.7769C170.587 37.7769 172.063 37.8675 173.629 38.0713V30.6662C173.629 30.2133 174.015 29.8285 174.469 29.8285H178.328C178.782 29.8285 179.168 30.2133 179.168 30.6662V59.8335C179.168 60.4223 178.987 60.6714 178.033 60.9205ZM173.629 42.555C172.449 42.3965 170.61 42.2606 169.588 42.2606C165.979 42.2606 165.094 44.8196 165.094 48.2617V51.4774C165.094 54.9194 165.979 57.4784 169.588 57.4784C171.109 57.4784 172.812 57.3425 173.629 57.184V42.555Z"></path>
<path fill="#222549" d="M203.139 51.7699H189.45V51.9058C189.45 54.3288 190.449 57.2274 194.49 57.2274C197.555 57.2274 200.46 56.9783 202.208 56.7972C202.254 56.7972 202.299 56.7972 202.344 56.7972C202.753 56.7972 203.093 57.001 203.093 57.4312V60.194C203.093 60.8733 202.957 61.1677 202.208 61.2809C199.484 61.7791 197.849 61.9829 194.058 61.9829C189.859 61.9829 183.889 59.7184 183.889 51.4755V48.3731C183.889 41.8285 187.543 37.7297 193.968 37.7297C200.437 37.7297 203.956 42.1229 203.956 48.3731V50.7282C203.979 51.4076 203.729 51.7699 203.139 51.7699ZM198.394 47.6711C198.394 44.4102 196.578 42.508 193.99 42.508C191.38 42.508 189.496 44.3423 189.496 47.6711V47.8296H198.394V47.6711Z"></path>
<path fill="#222549" d="M220.074 42.4398C217.804 42.4398 216.033 43.0287 214.285 43.9571V60.8053C214.285 61.2582 213.899 61.6885 213.445 61.6885H209.586C209.132 61.6885 208.746 61.2809 208.746 60.8053V38.8847C208.746 38.4318 209.132 38.0468 209.586 38.0468H213.241C213.695 38.0468 214.081 38.4318 214.081 38.8847V39.7677C216.146 38.1826 218.416 37.7524 220.096 37.7524C220.55 37.7524 220.936 38.1372 220.936 38.5901V41.6022C220.914 42.0551 220.528 42.4398 220.074 42.4398Z"></path>
<path fill="#47E3B6" d="M54.8127 24.5286C53.1783 24.5286 51.5893 24.8456 50.0911 25.4797C48.6382 26.0911 47.3443 26.9743 46.232 28.0839C45.1197 29.1936 44.2343 30.4843 43.6214 31.9336C42.9858 33.4282 42.668 35.0134 42.668 36.6438V54.3978V54.8507H43.122H47.3442H47.7982V54.3978V36.5759C47.889 34.7417 48.6608 33.0207 49.9547 31.7525C51.2714 30.4617 52.9966 29.7143 54.8353 29.6463H64.188H64.642V29.1934V24.9815V24.5286H64.188H54.8127Z"></path>
<path fill="#47E3B6" d="M76.8065 41.3301H76.3525V41.783V45.9949V46.4478H76.8065H81.0288H81.4828V45.9949V41.783V41.3301H81.0288H76.8065Z"></path>
<path fill="#47E3B6" d="M76.8065 32.9314H76.3525V33.3843V37.5965V38.0494H76.8065H81.0288H81.4828V37.5965V33.3843V32.9314H81.0288H76.8065Z"></path>
<path fill="#47E3B6" d="M81.0288 24.5286H76.8065H76.3525V24.9815V29.1934V29.6463H76.8065H81.0288H81.4828V29.1934V24.9815V24.5286H81.0288Z"></path>
<path fill="#47E3B6" d="M76.8065 49.7329H76.3525V50.1858V54.3978V54.8508H76.8065H81.0288H81.4828V54.3978V50.1858V49.7329H81.0288H76.8065Z"></path>
<path fill="#47E3B6" d="M76.8065 58.1335H76.3525V58.5865V62.7985V63.2514H76.8065H81.0288H81.4828V62.7985V58.5865V58.1335H81.0288H76.8065Z"></path>
<path fill="#47E3B6" d="M68.3876 58.1335H67.9336V58.5865V62.7985V63.2514H68.3876H72.6099H73.0639V62.7985V58.5865V58.1335H72.6099H68.3876Z"></path>
<path fill="#47E3B6" d="M59.9638 58.1335H59.5098V58.5865V62.7985V63.2514H59.9638H64.186H64.64V62.7985V58.5865V58.1335H64.186H59.9638Z"></path>
<path fill="#47E3B6" d="M51.5458 58.1335H51.0918V58.5865V62.7985V63.2514H51.5458H55.7682H56.2222V62.7985V58.5865V58.1335H55.7682H51.5458Z"></path>
<path fill="#47E3B6" d="M43.122 58.1335H42.668V58.5865V62.7985V63.2514H43.122H47.3442H47.7982V62.7985V58.5865V58.1335H47.3442H43.122Z"></path>
<path fill="#47E3B6" d="M68.3876 24.5286H67.9336V24.9815V29.1934V29.6463H68.3876H72.6099H73.0639V29.1934V24.9815V24.5286H72.6099H68.3876Z"></path>
</svg>
