<svg xmlns="http://www.w3.org/2000/svg" fill="none" viewBox="0 0 262 88" height="88" width="262">
<g clip-path="url(#clip0_3_163)">
<path fill="#FD6D6D" d="M163.603 50.7998C162.929 50.7998 162.262 50.6669 161.64 50.4089C161.018 50.1508 160.452 49.7725 159.976 49.2956C159.5 48.8188 159.122 48.2526 158.864 47.6296C158.607 47.0065 158.474 46.3387 158.474 45.6643C158.474 44.9899 158.607 44.3221 158.864 43.699C159.122 43.076 159.5 42.5098 159.976 42.033C160.452 41.5561 161.018 41.1778 161.64 40.9197C162.262 40.6616 162.929 40.5288 163.603 40.5288C164.963 40.5288 166.268 41.0699 167.23 42.033C168.191 42.996 168.732 44.3023 168.732 45.6643C168.732 47.0263 168.191 48.3325 167.23 49.2956C166.268 50.2587 164.963 50.7998 163.603 50.7998M173.048 35.2439H169.999C169.332 35.2439 168.942 35.6898 168.723 36.2217C168.643 36.4095 168.426 36.5033 168.237 36.4095C166.793 35.7133 165.206 35.2987 163.603 35.2987C157.514 35.2987 152.654 40.5632 153.318 46.7978C153.813 51.4444 157.46 55.2383 162.078 55.9032C164.148 56.2005 166.109 55.8797 167.828 55.1053H167.836C168.258 54.9019 168.476 55.0505 168.5 55.3556C168.429 59.0635 166.531 60.7141 163.179 60.7141C161.343 60.7141 159.922 59.8864 159.133 58.6098C159.059 58.4917 158.957 58.3945 158.835 58.3273C158.713 58.2602 158.576 58.2255 158.437 58.2265H154.436C154.01 58.2265 153.684 58.6254 153.796 59.0361C154.725 62.5211 158.245 65.4694 163.34 65.4694C170.861 65.4694 173.829 60.463 173.829 54.9676V36.0191C173.829 35.9167 173.808 35.8154 173.769 35.7208C173.73 35.6262 173.673 35.5403 173.6 35.4679C173.528 35.3956 173.442 35.3382 173.348 35.2991C173.253 35.26 173.152 35.2399 173.05 35.24"></path>
<path fill="#FD6D6D" d="M117.789 50.7998C117.115 50.7998 116.448 50.667 115.826 50.4089C115.204 50.1508 114.638 49.7725 114.162 49.2957C113.686 48.8188 113.308 48.2527 113.05 47.6296C112.792 47.0065 112.66 46.3387 112.66 45.6643C112.66 44.9899 112.792 44.3221 113.05 43.6991C113.308 43.076 113.686 42.5099 114.162 42.033C114.638 41.5561 115.204 41.1778 115.826 40.9198C116.448 40.6617 117.115 40.5288 117.789 40.5288C119.149 40.5288 120.453 41.0699 121.415 42.033C122.377 42.9961 122.918 44.3023 122.918 45.6643C122.918 47.0263 122.377 48.3326 121.415 49.2957C120.453 50.2588 119.149 50.7998 117.789 50.7998M119.314 35.416C117.248 35.1064 115.138 35.4338 113.263 36.3547C113.091 36.433 112.89 36.3156 112.89 36.1279V27.0076C112.89 26.5774 112.539 26.2253 112.104 26.2253H108.351C108.142 26.2266 107.943 26.3103 107.795 26.4583C107.648 26.6062 107.565 26.8065 107.564 27.0154V54.9145C107.564 55.1219 107.647 55.3209 107.793 55.4676C107.94 55.6143 108.139 55.6967 108.346 55.6967H111.664C112.132 55.6967 112.535 55.4135 112.711 55.0083C112.724 54.9748 112.743 54.9444 112.769 54.919C112.794 54.8937 112.825 54.874 112.859 54.8612C112.892 54.8484 112.928 54.8429 112.964 54.8449C113 54.847 113.035 54.8565 113.067 54.873C114.526 55.6297 116.145 56.024 117.789 56.0229C123.878 56.0229 128.738 50.7568 128.074 44.5254C127.579 39.8788 123.933 36.0849 119.314 35.416"></path>
<path fill="#FD6D6D" d="M204.599 39.0051C203.214 35.4044 199.263 34.116 195.683 34.8138C194.704 35.0015 193.753 35.3457 192.883 35.8307C192.817 35.8698 192.676 35.9793 192.539 36.0732C192.4 36.1358 192.175 36.0732 192.115 35.9324C192.028 35.7267 191.882 35.5512 191.696 35.4274C191.51 35.3037 191.292 35.2372 191.068 35.2362H191.053C191.037 35.2362 191.024 35.2284 191.008 35.2284L187.756 35.2229C187.322 35.2229 186.97 35.5749 186.97 36.013V54.92C186.97 55.3425 187.314 55.6866 187.735 55.6866H191.618C191.821 55.6866 192.016 55.6059 192.16 55.4621C192.303 55.3183 192.384 55.1234 192.384 54.92V43.7479C192.384 41.4285 193.767 39.5973 196.126 39.5973C198.728 39.5973 199.829 41.3464 199.829 43.5852V54.9044C199.829 55.344 200.189 55.6976 200.626 55.6976H204.438C204.875 55.6976 205.229 55.3378 205.229 54.8997V42.6527C205.229 41.4152 205.052 40.1628 204.606 39.0051M182.375 35.2448H178.531C178.099 35.2448 177.748 35.5953 177.748 36.0286V54.9122C177.748 55.3464 178.097 55.6976 178.529 55.6976H182.37C182.803 55.6976 183.153 55.3456 183.153 54.913V36.0294C183.153 35.5953 182.802 35.244 182.369 35.244M145.025 43.1526H136.203C136.002 43.1526 135.841 42.9805 135.872 42.7849C136.139 41.15 138.161 39.6012 140.614 39.6012C143.069 39.6012 145.091 41.15 145.356 42.7849C145.388 42.9727 145.228 43.1448 145.026 43.1448M140.568 35.244C134.463 35.244 129.91 40.5712 130.283 46.485C130.598 51.4758 134.667 55.5357 139.689 55.9581V55.9659C146.9 56.49 149.639 52.1094 150.411 50.2633C150.448 50.174 150.462 50.077 150.452 49.9809C150.443 49.8848 150.409 49.7926 150.355 49.7127C150.301 49.6328 150.227 49.5676 150.142 49.5231C150.056 49.4786 149.961 49.456 149.864 49.4576H145.606C145.358 49.4576 145.124 49.5593 144.939 49.7235C142.751 51.6713 139.751 51.1785 139.36 51.1034L139.321 51.0956C138.436 50.8924 137.615 50.4712 136.933 49.8702C136.251 49.2692 135.729 48.5074 135.415 47.6537C135.345 47.4581 135.485 47.2547 135.689 47.2547H149.946C150.454 47.2547 150.868 46.848 150.868 46.3512V45.3421C150.61 39.9524 146.681 35.2456 140.579 35.2456M180.453 26.2278C178.758 26.2278 177.364 27.6225 177.364 29.3584C177.364 31.0183 178.758 32.4138 180.453 32.4138C182.186 32.4138 183.543 31.0214 183.543 29.3631C183.543 27.6265 182.186 26.2317 180.453 26.2317" clip-rule="evenodd" fill-rule="evenodd"></path>
<path fill="#FF9E00" d="M74.4586 29.1902V21.7322C74.4589 21.6302 74.4378 21.5292 74.3966 21.4358C74.3555 21.3425 74.2952 21.2588 74.2197 21.1902C74.1442 21.1216 74.0552 21.0697 73.9584 21.0378C73.8616 21.0058 73.7592 20.9946 73.6578 21.0047C69.8219 21.435 66.314 22.9471 63.439 25.2289C63.1031 25.4972 63.0875 26.0033 63.3922 26.3084L68.6812 31.5824C68.9312 31.8327 69.3219 31.8561 69.6187 31.6559C70.8967 30.7842 72.3411 30.1871 73.8609 29.9021C74.03 29.8744 74.1839 29.7878 74.2954 29.6576C74.4069 29.5273 74.4689 29.3618 74.4703 29.1902" clip-rule="evenodd" fill-rule="evenodd"></path>
<path fill="#FD7854" d="M66.6772 47.1818C65.8036 45.9098 65.2049 44.4692 64.9194 42.9522C64.8904 42.7832 64.8032 42.6298 64.6728 42.5187C64.5424 42.4076 64.3772 42.3459 64.2061 42.3444H56.7342C56.3045 42.3444 55.9561 42.7167 56.0045 43.1423C56.4358 46.9753 57.9498 50.4782 60.2389 53.3428C60.5045 53.6776 61.0139 53.6949 61.317 53.3921L66.6029 48.1119C66.8545 47.8616 66.8779 47.4705 66.6772 47.1732" clip-rule="evenodd" fill-rule="evenodd"></path>
<path fill="#FF9E00" d="M88.4061 25.2303C85.4645 22.8876 81.9227 21.4229 78.1873 21.0046C78.0858 20.9943 77.9833 21.0054 77.8864 21.0373C77.7895 21.0692 77.7004 21.1212 77.6249 21.1897C77.5493 21.2583 77.489 21.342 77.4478 21.4355C77.4066 21.5289 77.3854 21.6299 77.3857 21.7321V29.1901C77.3857 29.5452 77.6459 29.837 77.9951 29.9019C79.5143 30.1858 80.9579 30.7831 82.2342 31.6557C82.3742 31.7548 82.5445 31.8017 82.7154 31.7883C82.8864 31.7748 83.0472 31.7019 83.1701 31.5822L88.4553 26.3075C88.5278 26.2361 88.5844 26.1503 88.6216 26.0556C88.6587 25.9609 88.6754 25.8593 88.6707 25.7577C88.666 25.656 88.6399 25.5565 88.5942 25.4656C88.5484 25.3748 88.4849 25.2946 88.4061 25.2303Z" clip-rule="evenodd" fill-rule="evenodd"></path>
<path fill="#FD6D6D" d="M75.4093 43.4632L63.3889 55.4606C63.3165 55.5318 63.2599 55.6175 63.2228 55.712C63.1857 55.8066 63.169 55.9079 63.1736 56.0094C63.1783 56.1109 63.2042 56.2103 63.2498 56.3011C63.2954 56.3918 63.3596 56.472 63.4382 56.5362C66.9856 59.3646 71.3878 60.9016 75.9225 60.8949C80.4572 60.9016 84.8595 59.3646 88.4069 56.5362C88.4856 56.472 88.5498 56.3919 88.5955 56.3012C88.6411 56.2104 88.6672 56.1111 88.6719 56.0096C88.6766 55.9081 88.6599 55.8068 88.6228 55.7122C88.5858 55.6176 88.5293 55.5319 88.4569 55.4606L76.4366 43.4632C76.3002 43.3272 76.1155 43.2509 75.9229 43.2509C75.7304 43.2509 75.5457 43.3272 75.4093 43.4632Z" clip-rule="evenodd" fill-rule="evenodd"></path>
<path fill="#FE8D26" d="M66.6019 33.649L61.3183 28.3742C61.0136 28.0715 60.5058 28.0895 60.2386 28.4243C57.8945 31.3562 56.4265 34.8923 56.0043 38.6241C55.9574 39.0504 56.3043 39.4236 56.7339 39.4236H64.2027C64.5543 39.4236 64.8511 39.1638 64.9136 38.815C65.1978 37.2973 65.7966 35.8561 66.6714 34.5845C66.7685 34.4439 66.8138 34.2739 66.7996 34.1035C66.7853 33.9331 66.7124 33.773 66.5933 33.6505M87.6324 39.422H95.1011C95.5308 39.422 95.8746 39.0489 95.8277 38.6225C95.4087 34.8911 93.9415 31.3552 91.5964 28.4251C91.3285 28.0887 90.8207 28.0715 90.5183 28.375L85.2371 33.649C85.1165 33.7707 85.0428 33.9312 85.029 34.1021C85.0151 34.273 85.062 34.4433 85.1613 34.583C86.0337 35.8559 86.6323 37.2965 86.9191 38.8134C86.9471 38.9824 87.0337 39.1361 87.1638 39.2475C87.2938 39.3588 87.4589 39.4206 87.63 39.422" clip-rule="evenodd" fill-rule="evenodd"></path>
<path fill="#FD7E5B" d="M86.9243 42.9523C86.6402 44.4705 86.0414 45.9122 85.1664 47.1843C85.0675 47.3239 85.0209 47.4939 85.0346 47.6645C85.0483 47.8351 85.1215 47.9955 85.2414 48.1175L90.5227 53.3922C90.8274 53.6895 91.3352 53.6738 91.6008 53.3375C93.9421 50.4035 95.4097 46.8681 95.8352 43.1369C95.8821 42.7066 95.5305 42.339 95.1008 42.339H87.6321C87.2727 42.339 86.9836 42.5971 86.9133 42.9413" clip-rule="evenodd" fill-rule="evenodd"></path>
</g>
<defs>
<clipPath id="clip0_3_163">
<rect transform="translate(56 21)" fill="white" height="44.5884" width="150"></rect>
</clipPath>
</defs>
</svg>
