<svg xmlns="http://www.w3.org/2000/svg" fill="none" viewBox="0 0 263 88" height="88" width="263">
<g clip-path="url(#clip0_3_498)">
<path fill="#404041" d="M215.672 61.4802C215.479 61.4813 215.289 61.4443 215.111 61.3713C214.933 61.2983 214.772 61.1907 214.636 61.0548C214.5 60.9189 214.392 60.7574 214.319 60.5796C214.246 60.4018 214.209 60.2113 214.211 60.0191C214.211 59.229 214.857 58.558 215.672 58.558C216.462 58.558 217.133 59.2048 217.133 60.0191C217.126 60.4046 216.97 60.7725 216.698 61.0451C216.425 61.3178 216.057 61.4738 215.672 61.4802ZM215.672 58.8457C215.361 58.8466 215.063 58.9705 214.843 59.1904C214.623 59.4102 214.499 59.7082 214.498 60.0191C214.499 60.33 214.623 60.6279 214.843 60.8478C215.063 61.0676 215.361 61.1915 215.672 61.1924C215.983 61.1915 216.281 61.0676 216.5 60.8478C216.72 60.6279 216.844 60.33 216.845 60.0191C216.844 59.7082 216.72 59.4102 216.5 59.1904C216.281 58.9705 215.983 58.8466 215.672 58.8457ZM216.414 60.7856H216.078L215.791 60.2342H215.407V60.7856H215.096V59.1806H215.863C216.199 59.1806 216.414 59.3958 216.414 59.7078C216.416 59.8127 216.384 59.9156 216.324 60.0016C216.264 60.0876 216.178 60.1523 216.079 60.1865L216.415 60.7917L216.414 60.7856ZM215.839 59.9471C215.959 59.9471 216.079 59.8752 216.079 59.7078C216.079 59.5161 215.983 59.4684 215.839 59.4684H215.36V59.9471H215.839ZM73.6931 71.8505H63.4727V58.4141H67.2092V68.5928H73.6998L73.6931 71.8505ZM77.5492 65.1683V65.1212C77.5492 61.265 80.6624 58.1283 84.8064 58.1283C88.9503 58.1283 92.0158 61.2179 92.0158 65.0741V65.1212C92.0158 68.9774 88.9026 72.1141 84.7586 72.1141C80.6147 72.1141 77.5492 69.0244 77.5492 65.1683ZM88.2309 65.1683V65.1212C88.2309 63.1813 86.8417 61.5037 84.7815 61.5037C82.7455 61.5037 81.3805 63.1565 81.3805 65.0963V65.1434C81.3805 67.0832 82.7697 68.7609 84.8057 68.7609C86.8653 68.7609 88.2309 67.1081 88.2309 65.1683ZM96.5887 65.9583V58.4141H100.373V65.8864C100.373 67.8262 101.355 68.7373 102.841 68.7373C104.327 68.7373 105.308 67.8511 105.308 65.9832V58.4141H109.093V65.8622C109.093 70.1971 106.625 72.0885 102.794 72.0885C98.9852 72.0885 96.5901 70.1722 96.5901 65.9563M114.792 58.412H119.965C124.755 58.412 127.558 61.1662 127.558 65.0466V65.0936C127.558 68.9733 124.732 71.8478 119.894 71.8478H114.792V58.4141L114.792 58.412ZM120.036 68.543C122.264 68.543 123.748 67.3213 123.748 65.142V65.095C123.748 62.9393 122.263 61.694 120.036 61.694H118.528V68.5201H120.036V68.543ZM136.682 63.9687H143.053V67.0584H136.682V71.8485H132.971V58.4141H143.724V61.6711H136.683L136.682 63.9687ZM159.124 71.8492H148.904V58.4141H152.615V68.5928H159.131L159.124 71.8492ZM168.848 58.3179H172.441L178.165 71.8498H174.164L173.182 69.4548H168.009L167.051 71.8498H163.147L168.848 58.3179ZM172.13 66.5568L170.645 62.7557L169.136 66.5642H172.13V66.5568ZM182.955 58.4141H189.302C191.362 58.4141 192.775 58.9412 193.685 59.8752C194.475 60.6417 194.882 61.6705 194.882 63.0126V63.0596C194.882 65.1192 193.779 66.4848 192.128 67.1794L195.337 71.874H191.026L188.319 67.8027H186.691V71.874H182.954L182.955 58.4141ZM189.141 64.8569C190.411 64.8569 191.129 64.2343 191.129 63.2768V63.2298C191.129 62.1761 190.362 61.6496 189.117 61.6496H186.674V64.859H189.142L189.141 64.8569ZM203.942 63.6117H210.385V66.5568H203.942V68.6882H211.152V71.8498H200.254V58.4141H211.056V61.5757H203.942V63.6117ZM55.3226 66.7497C54.7954 67.9231 53.6941 68.7615 52.2565 68.7615C50.2205 68.7615 48.8313 67.0604 48.8313 65.1441V65.097C48.8313 63.1571 50.1963 61.5044 52.2323 61.5044C53.7653 61.5044 54.9387 62.439 55.4174 63.732H59.3455C58.7229 60.5227 55.8961 58.1512 52.2565 58.1512C48.1132 58.1498 45 61.2886 45 65.1441V65.1911C45 69.0473 48.0661 72.137 52.2094 72.137C55.7543 72.137 58.5326 69.8374 59.2507 66.7712L55.3226 66.747V66.7497Z"></path>
<path fill="white" d="M152.562 51.9477H206.643V36.9782L196.369 31.0867L194.597 30.3202L152.563 30.6073L152.562 51.9477Z"></path>
<path fill="#F38020" d="M187.937 49.9837C188.44 48.259 188.248 46.6782 187.41 45.5056C186.643 44.4277 185.35 43.8044 183.792 43.7331L154.309 43.3499C154.22 43.3506 154.131 43.3291 154.052 43.2873C153.972 43.2455 153.904 43.1848 153.854 43.1105C153.759 42.9666 153.734 42.7743 153.782 42.5833C153.878 42.2962 154.165 42.0804 154.477 42.0562L184.223 41.6729C187.744 41.5048 191.576 38.6552 192.917 35.1574L194.619 30.7196C194.691 30.528 194.714 30.3364 194.666 30.1447C192.751 21.4823 185.015 15.0159 175.77 15.0159C167.244 15.0159 160.01 20.5248 157.424 28.1645C155.748 26.9193 153.615 26.2482 151.316 26.4634C147.222 26.8708 143.94 30.1515 143.533 34.247C143.437 35.3006 143.509 36.3314 143.748 37.2889C137.066 37.4805 131.726 42.9411 131.726 49.671C131.726 50.2762 131.773 50.8679 131.845 51.4663C131.892 51.7534 132.132 51.9693 132.42 51.9693H186.836C187.147 51.9693 187.441 51.7541 187.53 51.4421L187.938 49.981L187.937 49.9837Z"></path>
<path fill="#FAAE40" d="M197.326 31.0389L196.513 31.0631C196.321 31.0631 196.154 31.207 196.082 31.3993L194.939 35.4001C194.436 37.1248 194.628 38.7056 195.467 39.8782C196.233 40.9561 197.526 41.5794 199.084 41.6507L205.359 42.0339C205.449 42.0332 205.537 42.0547 205.616 42.0965C205.696 42.1383 205.764 42.199 205.814 42.2733C205.909 42.4172 205.934 42.6324 205.886 42.8005C205.79 43.0876 205.503 43.3034 205.191 43.3276L198.653 43.7109C195.108 43.879 191.3 46.7286 189.959 50.2264L189.48 51.4481C189.385 51.6875 189.552 51.9269 189.816 51.9269H212.281C212.545 51.9269 212.784 51.7588 212.856 51.4965C213.239 50.1074 213.461 48.6456 213.461 47.1374C213.461 38.2752 206.228 31.0423 197.343 31.0423"></path>
</g>
<defs>
<clipPath id="clip0_3_498">
<rect transform="translate(45 15)" fill="white" height="57.1535" width="172.133"></rect>
</clipPath>
</defs>
</svg>
