<svg xmlns="http://www.w3.org/2000/svg" fill="none" viewBox="0 0 263 88" height="88" width="263">
<mask height="47" width="35" y="20" x="42" maskUnits="userSpaceOnUse" style="mask-type:luminance" id="mask0_3_387">
<path fill="white" d="M71.6266 30.4722C71.5808 30.1926 71.4265 29.9424 71.1972 29.7762C70.9679 29.6099 70.6823 29.5411 70.4025 29.5846C70.1826 29.6138 69.9793 29.7171 69.826 29.8775L64.2909 35.4071L59.9622 27.1349C59.8977 27.0107 59.8093 26.9005 59.7021 26.8105C59.5949 26.7205 59.471 26.6525 59.3375 26.6105C59.2041 26.5684 59.0636 26.5531 58.9243 26.5655C58.7849 26.5778 58.6493 26.6175 58.5253 26.6823C58.3373 26.7907 58.1812 26.9468 58.0729 27.1349L55.7134 31.6615L49.7615 20.5492C49.6947 20.4271 49.6045 20.3195 49.4961 20.2324C49.3877 20.1454 49.2631 20.0806 49.1296 20.0418C48.9961 20.0031 48.8562 19.9911 48.718 20.0066C48.5799 20.022 48.4461 20.0647 48.3245 20.132C48.1801 20.2091 48.0549 20.3178 47.9581 20.4499C47.8614 20.5821 47.7956 20.7343 47.7657 20.8953L42 57.7471L57.3899 66.4276C57.8643 66.6878 58.3967 66.8242 58.9377 66.8242C59.4788 66.8242 60.0111 66.6878 60.4856 66.4276L76.0085 57.7826L71.6266 30.4722Z"></path>
</mask>
<g mask="url(#mask0_3_387)">
<path fill="#FFA000" d="M42.001 57.7471L47.7666 20.8953C47.8103 20.6229 47.9597 20.3787 48.1822 20.2159C48.4048 20.053 48.6826 19.9846 48.9552 20.0255C49.1163 20.055 49.2689 20.1197 49.4023 20.2147C49.5356 20.3098 49.6465 20.4331 49.727 20.5758L55.6789 31.697L58.0384 27.1704C58.1029 27.0462 58.1914 26.9359 58.2985 26.846C58.4057 26.756 58.5296 26.688 58.6631 26.646C58.7965 26.6039 58.937 26.5886 59.0764 26.6009C59.2157 26.6133 59.3513 26.653 59.4754 26.7178C59.6633 26.8262 59.8194 26.9823 59.9277 27.1704L75.9829 57.7471H42.001Z"></path>
<path fill="url(#paint0_linear_3_387)" d="M61.666 20.2741L33.4941 17.8688V68.9217L42.0007 57.7472L61.666 20.2741Z" opacity="0.12"></path>
<path fill="#F57C00" d="M61.9058 43.3953L55.6966 31.6705L42.001 57.7473L61.9058 43.3953Z"></path>
<path fill="url(#paint1_linear_3_387)" d="M33.4941 17.8688H84.5158V68.9217H33.4941V17.8688Z" opacity="0.2"></path>
<path fill="#FFCA28" d="M76.0184 57.7472L71.5832 30.4456C71.5375 30.166 71.3831 29.9159 71.1538 29.7496C70.9246 29.5834 70.6389 29.5145 70.3591 29.558C70.1399 29.5893 69.9372 29.6923 69.7826 29.8509L42.001 57.7472L57.3908 66.4276C57.8653 66.6879 58.3976 66.8243 58.9387 66.8243C59.4798 66.8243 60.0121 66.6879 60.4866 66.4276L76.0184 57.7472Z"></path>
<path fill-opacity="0.2" fill="white" d="M71.6276 30.4722C71.5818 30.1926 71.4275 29.9424 71.1982 29.7762C70.9689 29.6099 70.6833 29.5411 70.4035 29.5846C70.1836 29.6138 69.9803 29.7171 69.8269 29.8775L64.2919 35.4071L59.9632 27.1349C59.8987 27.0107 59.8102 26.9005 59.7031 26.8105C59.5959 26.7205 59.472 26.6525 59.3385 26.6105C59.2051 26.5684 59.0646 26.5531 58.9252 26.5655C58.7859 26.5778 58.6503 26.6175 58.5262 26.6823C58.3383 26.7907 58.1822 26.9468 58.0739 27.1349L55.7144 31.6615L49.7624 20.5492C49.6957 20.4271 49.6055 20.3195 49.4971 20.2324C49.3887 20.1454 49.2641 20.0806 49.1306 20.0418C48.9971 20.0031 48.8572 19.9911 48.719 20.0066C48.5809 20.022 48.4471 20.0647 48.3255 20.132C48.1811 20.2091 48.0558 20.3178 47.9591 20.4499C47.8624 20.5821 47.7966 20.7343 47.7666 20.8953L42.001 57.7471L42.1606 57.827L64.3362 35.6378L69.8713 30.1083C69.9689 30.0068 70.086 29.9261 70.2156 29.871C70.3451 29.8158 70.4845 29.7874 70.6253 29.7874C70.766 29.7874 70.9054 29.8158 71.0349 29.871C71.1645 29.9261 71.2816 30.0068 71.3792 30.1083C71.5431 30.2626 71.6469 30.4703 71.6719 30.6941L76.0361 57.7294H76.0893L71.6276 30.4722ZM42.0542 57.6939L47.7666 21.1616C47.7851 21.0246 47.8306 20.8927 47.9006 20.7736C47.9707 20.6544 48.0638 20.5505 48.1745 20.4678C48.2852 20.3851 48.4113 20.3254 48.5453 20.2921C48.6794 20.2589 48.8188 20.2527 48.9552 20.274C49.117 20.3018 49.2703 20.3657 49.4039 20.461C49.5375 20.5562 49.648 20.6804 49.727 20.8243L55.6789 31.9455L58.0384 27.4189C58.102 27.2939 58.19 27.1828 58.297 27.0921C58.4041 27.0015 58.5282 26.9331 58.6619 26.8909C58.7957 26.8488 58.9366 26.8337 59.0762 26.8467C59.2159 26.8596 59.3516 26.9003 59.4754 26.9663C59.6633 27.0747 59.8194 27.2309 59.9277 27.4189L64.1766 35.5047L42.0542 57.6939Z"></path>
<path fill="#A52714" d="M60.4863 66.1259C60.0108 66.3877 59.4768 66.525 58.934 66.525C58.3912 66.525 57.8573 66.3877 57.3817 66.1259L42.0273 57.552V57.7916L57.3906 66.4276C57.8651 66.6879 58.3974 66.8243 58.9385 66.8243C59.4795 66.8243 60.0119 66.6879 60.4863 66.4276L76.0092 57.7827V57.5431L60.4863 66.1259Z" opacity="0.2"></path>
<path fill="url(#paint2_linear_3_387)" d="M71.6276 30.4722C71.5818 30.1926 71.4275 29.9424 71.1982 29.7762C70.9689 29.6099 70.6833 29.5411 70.4035 29.5846C70.1836 29.6138 69.9803 29.7171 69.8269 29.8775L64.2919 35.4071L59.9632 27.1349C59.8987 27.0107 59.8102 26.9005 59.7031 26.8105C59.5959 26.7205 59.472 26.6525 59.3385 26.6105C59.2051 26.5684 59.0646 26.5531 58.9252 26.5655C58.7859 26.5778 58.6503 26.6175 58.5262 26.6823C58.3383 26.7907 58.1822 26.9468 58.0739 27.1349L55.7144 31.6615L49.7624 20.5492C49.6957 20.4271 49.6055 20.3195 49.4971 20.2324C49.3887 20.1454 49.2641 20.0806 49.1306 20.0418C48.9971 20.0031 48.8572 19.9911 48.719 20.0066C48.5809 20.022 48.4471 20.0647 48.3255 20.132C48.1811 20.2091 48.0558 20.3178 47.9591 20.4499C47.8624 20.5821 47.7966 20.7343 47.7666 20.8953L42.001 57.7471L57.3908 66.4276C57.8653 66.6878 58.3976 66.8242 58.9387 66.8242C59.4798 66.8242 60.0121 66.6878 60.4866 66.4276L76.0095 57.7826L71.6276 30.4722Z"></path>
</g>
<path fill="#5F6368" d="M87.2973 57.5519H83.625V29.0698H100.274V32.6201H87.2973V41.9573H99.0237V45.3833H87.3239V57.5519H87.2973ZM106.59 33.1438C106.162 33.5924 105.591 33.8774 104.975 33.9495C104.359 34.0217 103.738 33.8766 103.218 33.5391C102.698 33.2017 102.312 32.6931 102.126 32.1013C101.941 31.5094 101.968 30.8713 102.202 30.2972C102.437 29.7231 102.864 29.2489 103.411 28.9566C103.958 28.6642 104.589 28.572 105.197 28.6958C105.804 28.8197 106.349 29.1518 106.738 29.635C107.127 30.1181 107.335 30.7218 107.326 31.342C107.33 31.6817 107.267 32.0188 107.141 32.334C107.015 32.6493 106.827 32.9365 106.59 33.1793V33.1438ZM106.59 57.5519H102.891V38.0254H106.563L106.59 57.5519ZM114.245 57.5519H110.573V38.0254H114.121V41.2029H114.281C114.7 40.0776 115.522 39.1479 116.587 38.5935C117.589 37.9482 118.749 37.5919 119.94 37.5639C120.875 37.5354 121.806 37.6923 122.681 38.0254L121.279 41.4514C120.648 41.2407 119.984 41.1474 119.319 41.1763C118.649 41.1732 117.985 41.3133 117.373 41.5873C116.762 41.8613 116.215 42.2628 115.771 42.765C115.251 43.3159 114.848 43.9663 114.586 44.677C114.323 45.3878 114.208 46.1444 114.245 46.9011V57.5519ZM131.489 58.2087C130.149 58.2574 128.813 58.0189 127.573 57.5091C126.332 56.9994 125.214 56.2302 124.295 55.2531C122.438 53.2402 121.442 50.5803 121.519 47.8419C121.469 45.1475 122.417 42.5299 124.18 40.4928C125.023 39.498 126.078 38.7049 127.267 38.1719C128.457 37.6389 129.751 37.3796 131.054 37.413C132.346 37.3542 133.636 37.577 134.833 38.0659C136.031 38.5547 137.108 39.298 137.991 40.2443C139.823 42.3286 140.777 45.0422 140.652 47.8153V48.4987H125.2C125.219 50.2514 125.922 51.927 127.16 53.1673C127.716 53.7202 128.377 54.157 129.103 54.4526C129.83 54.7482 130.607 54.8966 131.391 54.8892C134.052 54.8892 135.826 53.7709 136.713 51.5253L139.978 52.8922C139.331 54.4245 138.252 55.7353 136.873 56.6643C135.288 57.7414 133.405 58.2939 131.489 58.2442V58.2087ZM136.749 45.4366C136.619 44.2364 136.08 43.1175 135.223 42.268C134.668 41.733 134.007 41.3207 133.283 41.0577C132.559 40.7947 131.787 40.6869 131.019 40.7414C129.718 40.7114 128.453 41.1671 127.471 42.0195C126.439 42.9108 125.718 44.1077 125.413 45.4366H136.749ZM153.523 58.2087C152.122 58.2386 150.738 57.9053 149.504 57.2413C148.413 56.7038 147.492 55.8743 146.843 54.8448H146.684V57.5075H143.135V29.0698H146.808V38.0254L146.648 40.7414H146.808C147.464 39.7183 148.383 38.8906 149.469 38.3449C150.707 37.693 152.088 37.3605 153.487 37.3775C154.727 37.3744 155.952 37.6402 157.079 38.1566C158.206 38.673 159.208 39.4276 160.016 40.3686C161.876 42.3827 162.873 45.0469 162.792 47.7887C162.877 50.5218 161.893 53.1803 160.051 55.1998C159.251 56.1538 158.252 56.9207 157.124 57.4467C155.996 57.9727 154.767 58.2449 153.523 58.2442V58.2087ZM152.893 54.8892C153.72 54.8947 154.538 54.7252 155.295 54.3917C156.052 54.0582 156.729 53.5684 157.284 52.9543C158.546 51.5633 159.207 49.7281 159.12 47.8508C159.207 45.9735 158.546 44.1383 157.284 42.7473C156.729 42.1332 156.052 41.6433 155.295 41.3099C154.538 40.9764 153.72 40.8069 152.893 40.8124C152.069 40.7968 151.252 40.9583 150.496 41.286C149.74 41.6137 149.063 42.0999 148.511 42.7118C147.277 44.1302 146.641 45.9725 146.737 47.8508C146.681 48.782 146.808 49.7151 147.113 50.5969C147.417 51.4787 147.892 52.2918 148.511 52.9898C149.064 53.5999 149.741 54.0848 150.497 54.4124C151.253 54.7399 152.069 54.9025 152.893 54.8892ZM171.911 58.2531C170.017 58.3294 168.164 57.6964 166.713 56.4779C166.028 55.9007 165.484 55.1743 165.122 54.3543C164.761 53.5344 164.592 52.6426 164.628 51.7472C164.591 50.7732 164.796 49.8053 165.225 48.9301C165.654 48.0549 166.293 47.2998 167.085 46.7324C168.871 45.4905 171.015 44.8671 173.188 44.9573C175.034 44.8819 176.868 45.2887 178.51 46.1378V45.5786C178.533 44.9311 178.413 44.2865 178.161 43.69C177.908 43.0935 177.527 42.5597 177.046 42.126C176.054 41.2445 174.763 40.7747 173.436 40.8124C172.423 40.8008 171.426 41.058 170.545 41.5579C169.715 42.0089 169.083 42.7523 168.77 43.6437L165.409 42.2147C165.974 40.9059 166.896 39.7831 168.07 38.9751C169.614 37.9179 171.461 37.3943 173.33 37.484C175.599 37.4001 177.817 38.1767 179.539 39.6585C180.384 40.447 181.043 41.4133 181.47 42.4877C181.896 43.5621 182.079 44.7178 182.005 45.8715V57.5519H178.457V54.8892H178.288C177.615 55.9608 176.67 56.8354 175.55 57.4245C174.43 58.0136 173.175 58.2964 171.911 58.2442V58.2531ZM172.505 54.8892C174.04 54.8851 175.513 54.2834 176.612 53.2117C177.196 52.7177 177.666 52.102 177.987 51.4075C178.309 50.713 178.475 49.9565 178.475 49.191C177.125 48.2495 175.495 47.7956 173.853 47.904C172.419 47.7947 170.993 48.2041 169.835 49.0579C169.427 49.3754 169.094 49.7782 168.858 50.2381C168.622 50.6981 168.489 51.204 168.469 51.7206C168.458 52.1752 168.567 52.6247 168.785 53.0237C169.003 53.4226 169.322 53.7569 169.711 53.9928C170.531 54.5648 171.505 54.8771 172.505 54.8892ZM192.17 58.2531C190.249 58.3319 188.357 57.7733 186.786 56.6643C185.399 55.6499 184.322 54.2703 183.672 52.6791L186.937 51.3389C187.307 52.4446 188.026 53.4 188.986 54.0612C189.946 54.7223 191.095 55.0534 192.259 55.0046C193.247 55.0496 194.226 54.7893 195.062 54.259C195.396 54.0383 195.669 53.7357 195.854 53.38C196.038 53.0243 196.129 52.6272 196.117 52.2265C196.117 50.9484 195.23 50.0786 193.456 49.6437L189.491 48.6762C188.198 48.3389 186.989 47.7342 185.943 46.9011C185.398 46.4751 184.961 45.9254 184.669 45.2973C184.378 44.6692 184.24 43.9807 184.267 43.2887C184.266 42.452 184.476 41.6285 184.877 40.8947C185.279 40.1608 185.859 39.5402 186.564 39.0905C188.043 38.1099 189.761 37.5512 191.533 37.4746C193.306 37.3979 195.065 37.8062 196.623 38.6556C197.959 39.3941 198.985 40.5878 199.515 42.0195L196.339 43.3242C195.621 41.6112 194.13 40.7414 191.904 40.7414C190.947 40.7027 189.999 40.9399 189.172 41.4248C188.837 41.5949 188.555 41.8536 188.356 42.1728C188.158 42.492 188.05 42.8595 188.045 43.2354C188.045 44.3538 188.933 45.0993 190.627 45.5076L194.485 46.3952C196.038 46.6775 197.465 47.4376 198.566 48.5697C199.42 49.5536 199.884 50.8168 199.87 52.12C199.876 52.9674 199.686 53.8048 199.313 54.5658C198.941 55.3268 198.396 55.9906 197.723 56.5046C196.141 57.7335 194.17 58.3511 192.17 58.2442V58.2531ZM211.312 58.2531C209.972 58.3018 208.637 58.0633 207.396 57.5535C206.155 57.0438 205.038 56.2746 204.118 55.2975C202.254 53.2721 201.26 50.5942 201.351 47.8419C201.301 45.1475 202.249 42.5299 204.012 40.4928C204.855 39.498 205.91 38.7049 207.1 38.1719C208.289 37.6389 209.583 37.3796 210.886 37.413C212.179 37.3542 213.468 37.577 214.666 38.0659C215.863 38.5547 216.941 39.298 217.823 40.2443C219.639 42.3259 220.583 45.0283 220.457 47.7887V48.4721H205.023C205.042 50.2247 205.746 51.9004 206.983 53.1407C207.538 53.6983 208.197 54.1401 208.923 54.4403C209.65 54.7405 210.429 54.8931 211.215 54.8892C213.831 54.8892 215.65 53.7709 216.537 51.5253L219.81 52.8922C219.16 54.428 218.074 55.7394 216.688 56.6643C215.106 57.7423 213.225 58.295 211.312 58.2442V58.2531ZM216.563 45.481C216.441 44.2805 215.905 43.1601 215.047 42.3124C214.492 41.7774 213.831 41.365 213.106 41.102C212.382 40.839 211.611 40.7313 210.842 40.7857C209.543 40.7642 208.281 41.2188 207.294 42.0638C206.268 42.9584 205.551 44.1544 205.245 45.481H216.563Z"></path>
<defs>
<linearGradient gradientUnits="userSpaceOnUse" y2="44.0265" x2="46.5062" y1="45.1349" x1="48.6268" id="paint0_linear_3_387">
<stop stop-color="#A52714"></stop>
<stop stop-opacity="0.5" stop-color="#A52714" offset="0.4"></stop>
<stop stop-opacity="0" stop-color="#A52714" offset="0.8"></stop>
</linearGradient>
<linearGradient gradientUnits="userSpaceOnUse" y2="41.0881" x2="56.707" y1="42.0372" x1="57.6567" id="paint1_linear_3_387">
<stop stop-opacity="0.8" stop-color="#A52714"></stop>
<stop stop-opacity="0.21" stop-color="#A52714" offset="0.5"></stop>
<stop stop-opacity="0" stop-color="#A52714" offset="1"></stop>
</linearGradient>
<linearGradient gradientUnits="userSpaceOnUse" y2="63.7572" x2="76.618" y1="28.2319" x1="41.0946" id="paint2_linear_3_387">
<stop stop-opacity="0.1" stop-color="white"></stop>
<stop stop-opacity="0" stop-color="white" offset="1"></stop>
</linearGradient>
</defs>
</svg>
