<svg xmlns="http://www.w3.org/2000/svg" fill="none" viewBox="0 0 263 88" height="88" width="263">
<path fill="#0080FF" d="M51.6107 59.5294V53.2734C58.2498 53.2734 63.3567 46.6981 60.8352 39.7399C59.8776 37.1545 57.8348 35.0798 55.2494 34.1542C48.2912 31.6326 41.716 36.7396 41.716 43.3786H35.46C35.46 32.8136 45.6739 24.5786 56.7496 28.0258C61.6012 29.526 65.4314 33.3881 66.9316 38.2078C70.3788 49.3155 62.1757 59.5294 51.6107 59.5294Z"></path>
<path fill="#0080FF" d="M45.3867 47.0493H51.6108V53.2734H45.3867V47.0493ZM40.5989 58.0612V53.2734H45.3867V58.0612H40.5989ZM36.5771 49.2836H40.5989V53.2734H36.5771V49.2836Z" clip-rule="evenodd" fill-rule="evenodd"></path>
<path fill="#0080FF" d="M92.9138 36.5801C91.0626 35.3033 88.7644 34.6331 86.0833 34.6331H80.2422V53.1777H86.0833C88.7644 53.1777 91.0626 52.5074 92.9138 51.1349C93.9352 50.4327 94.7332 49.4113 95.2758 48.1665C95.8184 46.9217 96.1057 45.4534 96.1057 43.7937C96.1057 42.1658 95.8184 40.6976 95.2758 39.4527C94.7332 38.2398 93.9352 37.2504 92.9138 36.5801ZM83.6575 37.793H85.5087C87.5515 37.793 89.2432 38.2079 90.5199 38.974C91.9244 39.8358 92.6585 41.4636 92.6585 43.7937C92.6585 46.2195 91.9244 47.9111 90.5199 48.8368C89.307 49.6347 87.6154 50.0497 85.5407 50.0497H83.6894V37.793H83.6575Z"></path>
<path fill="#0080FF" d="M100.19 34.4097C99.6157 34.4097 99.1369 34.6012 98.7539 34.9842C98.3709 35.3672 98.1475 35.846 98.1475 36.3886C98.1475 36.9631 98.339 37.4419 98.7539 37.8249C99.1369 38.208 99.6157 38.4314 100.19 38.4314C100.765 38.4314 101.244 38.2399 101.627 37.8249C102.01 37.4419 102.233 36.9312 102.233 36.3886C102.233 35.8141 102.042 35.3353 101.627 34.9842C101.244 34.6012 100.733 34.4097 100.19 34.4097V34.4097Z"></path>
<path fill="#0080FF" d="M98.499 40.123H101.787V53.2096H98.499V40.123ZM113.756 41.2082C112.767 40.3145 111.649 39.8038 110.468 39.8038C108.649 39.8038 107.149 40.4422 105.968 41.6551C104.787 42.868 104.212 44.4639 104.212 46.3471C104.212 48.1984 104.787 49.7624 105.968 51.0391C107.149 52.252 108.649 52.8904 110.468 52.8904C111.745 52.8904 112.83 52.5393 113.724 51.8371V52.1563C113.724 53.2415 113.437 54.0714 112.862 54.6779C112.288 55.2524 111.49 55.5396 110.5 55.5396C108.968 55.5396 108.043 54.9332 106.862 53.3692L104.627 55.5077L104.691 55.6035C105.17 56.2738 105.904 56.9441 106.894 57.5824C107.883 58.2208 109.096 58.54 110.564 58.54C112.511 58.54 114.107 57.9335 115.256 56.7526C116.437 55.5716 117.012 53.9756 117.012 51.9967V40.123H113.788V41.2082H113.756ZM112.894 48.9325C112.32 49.5709 111.586 49.8901 110.628 49.8901C109.67 49.8901 108.936 49.5709 108.394 48.9325C107.819 48.2942 107.532 47.4324 107.532 46.379C107.532 45.3257 107.819 44.432 108.394 43.7936C108.968 43.1553 109.702 42.8042 110.628 42.8042C111.586 42.8042 112.32 43.1234 112.894 43.7936C113.469 44.432 113.756 45.3257 113.756 46.379C113.756 47.4324 113.437 48.2942 112.894 48.9325ZM119.789 40.123H123.076V53.2096H119.789V40.123Z"></path>
<path fill="#0080FF" d="M121.48 34.4097C120.906 34.4097 120.427 34.6012 120.044 34.9842C119.661 35.3672 119.438 35.846 119.438 36.3886C119.438 36.9631 119.629 37.4419 120.044 37.8249C120.427 38.208 120.906 38.4314 121.48 38.4314C122.055 38.4314 122.534 38.2399 122.917 37.8249C123.3 37.4419 123.523 36.9312 123.523 36.3886C123.523 35.8141 123.332 35.3353 122.917 34.9842C122.534 34.6012 122.023 34.4097 121.48 34.4097V34.4097Z"></path>
<path fill="#0080FF" d="M130.29 36.612H127.066V40.1549H125.183V43.1553H127.066V48.5814C127.066 50.2731 127.417 51.486 128.087 52.1882C128.757 52.8904 129.938 53.2415 131.63 53.2415C132.173 53.2415 132.715 53.2096 133.226 53.1777H133.386V50.1773L132.269 50.2412C131.471 50.2412 130.96 50.1135 130.705 49.8262C130.449 49.539 130.321 48.9644 130.321 48.1026V43.1233H133.386V40.123H130.321V36.612H130.29ZM148.77 34.633H152.058V53.1777H148.77V34.633ZM185.285 48.5176C184.711 49.1879 184.104 49.7624 183.625 50.0497C183.179 50.3369 182.604 50.4965 181.934 50.4965C180.976 50.4965 180.178 50.1454 179.54 49.4113C178.901 48.6772 178.582 47.7515 178.582 46.6344C178.582 45.5172 178.901 44.5916 179.508 43.8894C180.146 43.1553 180.912 42.8042 181.87 42.8042C182.923 42.8042 184.04 43.4744 184.998 44.5916L187.168 42.5169C185.764 40.6656 183.945 39.8038 181.774 39.8038C179.955 39.8038 178.391 40.4741 177.114 41.7509C175.837 43.0276 175.199 44.6874 175.199 46.6344C175.199 48.5814 175.837 50.2093 177.114 51.5179C178.391 52.8266 179.955 53.4649 181.774 53.4649C184.168 53.4649 186.083 52.4435 187.36 50.5604L185.285 48.5176ZM198.787 41.9424C198.308 41.304 197.67 40.7614 196.903 40.3784C196.105 39.9953 195.212 39.8038 194.19 39.8038C192.339 39.8038 190.839 40.4741 189.722 41.8147C188.637 43.1553 188.062 44.7831 188.062 46.7301C188.062 48.7091 188.668 50.3369 189.881 51.6137C191.062 52.8585 192.69 53.4969 194.637 53.4969C196.84 53.4969 198.691 52.6031 200.031 50.8157L200.095 50.7199L197.957 48.6452C197.765 48.9006 197.478 49.1559 197.223 49.4113C196.903 49.7305 196.584 49.9539 196.265 50.1135C195.786 50.3688 195.212 50.4646 194.605 50.4646C193.68 50.4646 192.946 50.2093 192.371 49.6666C191.828 49.1879 191.509 48.5176 191.445 47.6877H200.159L200.191 46.4748C200.191 45.613 200.063 44.815 199.84 44.049C199.617 43.3149 199.265 42.6127 198.787 41.9424ZM191.605 45.0385C191.765 44.4001 192.052 43.8894 192.467 43.4744C192.914 43.0276 193.488 42.8042 194.19 42.8042C194.988 42.8042 195.595 43.0276 196.01 43.4744C196.393 43.8894 196.616 44.4001 196.68 45.0065H191.605V45.0385ZM211.426 41.1125C210.437 40.2507 209.064 39.8357 207.341 39.8357C206.256 39.8357 205.234 40.0911 204.309 40.5379C203.447 40.9848 202.617 41.687 202.074 42.6446L202.106 42.6765L204.213 44.6874C205.075 43.3149 206.032 42.8361 207.309 42.8361C208.011 42.8361 208.554 43.0276 209.001 43.3787C209.447 43.7298 209.639 44.2086 209.639 44.7831V45.4215C208.809 45.1661 208.011 45.0385 207.213 45.0385C205.585 45.0385 204.245 45.4215 203.255 46.1875C202.266 46.9536 201.755 48.0707 201.755 49.4432C201.755 50.6561 202.17 51.6775 203.032 52.4116C203.894 53.1138 204.947 53.4969 206.192 53.4969C207.437 53.4969 208.618 52.9862 209.671 52.1244V53.2096H212.895V44.7831C212.958 43.2191 212.448 41.9743 211.426 41.1125ZM205.585 48.1984C205.968 47.943 206.479 47.8154 207.149 47.8154C207.947 47.8154 208.777 47.975 209.639 48.2941V49.5709C208.937 50.2412 207.979 50.5604 206.798 50.5604C206.224 50.5604 205.777 50.4327 205.49 50.1773C205.202 49.922 205.043 49.6347 205.043 49.2198C205.043 48.8048 205.234 48.4537 205.585 48.1984ZM225.598 41.3678C224.673 40.3464 223.396 39.8357 221.768 39.8357C220.459 39.8357 219.406 40.2188 218.608 40.9529V40.1549H215.384V53.2415H218.672V45.996C218.672 45.0065 218.895 44.2086 219.374 43.666C219.853 43.0914 220.459 42.8361 221.321 42.8361C222.055 42.8361 222.63 43.0914 223.045 43.5702C223.46 44.0809 223.683 44.7512 223.683 45.613V53.1777H226.971V45.613C226.971 43.8256 226.524 42.3892 225.598 41.3678ZM144.653 41.1125C143.663 40.2507 142.291 39.8357 140.567 39.8357C139.482 39.8357 138.461 40.0911 137.535 40.5379C136.673 40.9848 135.843 41.687 135.301 42.6446L135.333 42.6765L137.439 44.6874C138.301 43.3149 139.259 42.8361 140.535 42.8361C141.238 42.8361 141.78 43.0276 142.227 43.3787C142.674 43.7298 142.865 44.2086 142.865 44.7831V45.4215C142.036 45.1661 141.238 45.0385 140.44 45.0385C138.812 45.0385 137.471 45.4215 136.482 46.1875C135.492 46.9536 134.982 48.0707 134.982 49.4432C134.982 50.6561 135.397 51.6775 136.258 52.4116C137.12 53.1138 138.173 53.4969 139.418 53.4969C140.663 53.4969 141.844 52.9862 142.897 52.1244V53.2096H146.121V44.7831C146.153 43.2191 145.642 41.9743 144.653 41.1125ZM138.812 48.1984C139.195 47.943 139.706 47.8154 140.376 47.8154C141.174 47.8154 142.004 47.975 142.865 48.2941V49.5709C142.163 50.2412 141.206 50.5604 140.025 50.5604C139.45 50.5604 139.003 50.4327 138.716 50.1773C138.429 49.922 138.269 49.6347 138.269 49.2198C138.269 48.8048 138.429 48.4537 138.812 48.1984ZM163.996 53.4649C158.729 53.4649 154.42 49.1879 154.42 43.8894C154.42 38.5909 158.697 34.3138 163.996 34.3138C169.262 34.3138 173.571 38.5909 173.571 43.8894C173.571 49.1879 169.262 53.4649 163.996 53.4649ZM163.996 37.7291C160.58 37.7291 157.803 40.506 157.803 43.9213C157.803 47.3366 160.58 50.1135 163.996 50.1135C167.411 50.1135 170.188 47.3366 170.188 43.9213C170.188 40.506 167.411 37.7291 163.996 37.7291Z"></path>
</svg>
