<svg xmlns="http://www.w3.org/2000/svg" fill="none" viewBox="0 0 263 88" height="88" width="263">
<g clip-path="url(#clip0_3_530)">
<path fill="#252F3E" d="M111.378 35.7927C111.378 36.9141 111.499 37.8235 111.712 38.4903C111.954 39.1571 112.257 39.8846 112.682 40.6726C112.833 40.9151 112.894 41.1576 112.894 41.3698C112.894 41.6729 112.712 41.976 112.318 42.2791L110.408 43.5521C110.136 43.734 109.863 43.8249 109.62 43.8249C109.317 43.8249 109.014 43.6733 108.711 43.4006C108.287 42.9459 107.923 42.4609 107.62 41.976C107.317 41.4607 107.014 40.8848 106.68 40.1877C104.316 42.9762 101.346 44.3705 97.7689 44.3705C95.2228 44.3705 93.192 43.643 91.7068 42.1881C90.2216 40.7332 89.4639 38.7934 89.4639 36.3686C89.4639 33.7922 90.3732 31.7008 92.2221 30.1246C94.071 28.5485 96.5262 27.7604 99.6481 27.7604C100.679 27.7604 101.74 27.8513 102.861 28.0029C103.983 28.1544 105.134 28.3969 106.347 28.6697V26.4571C106.347 24.1535 105.862 22.547 104.922 21.6074C103.952 20.6678 102.315 20.2131 99.9816 20.2131C98.9207 20.2131 97.8295 20.3344 96.708 20.6072C95.5866 20.88 94.4954 21.2134 93.4345 21.6377C92.9496 21.8499 92.5858 21.9711 92.3737 22.0318C92.1615 22.0924 92.0099 22.1227 91.8887 22.1227C91.4644 22.1227 91.2522 21.8196 91.2522 21.1831V19.6979C91.2522 19.2129 91.3128 18.8492 91.4644 18.637C91.6159 18.4248 91.8887 18.2127 92.313 18.0005C93.3739 17.4549 94.6469 17.0002 96.1321 16.6365C97.6174 16.2425 99.1935 16.0606 100.861 16.0606C104.467 16.0606 107.104 16.879 108.802 18.5158C110.469 20.1525 111.318 22.638 111.318 25.9721V35.7927H111.378ZM99.0722 40.3998C100.072 40.3998 101.103 40.218 102.194 39.8542C103.285 39.4905 104.255 38.8237 105.074 37.9144C105.559 37.3385 105.922 36.702 106.104 35.9745C106.286 35.2471 106.407 34.3681 106.407 33.3375V32.0645C105.528 31.8523 104.589 31.6704 103.619 31.5492C102.649 31.428 101.709 31.3673 100.77 31.3673C98.7388 31.3673 97.2536 31.7614 96.2534 32.5798C95.2531 33.3981 94.7682 34.5499 94.7682 36.0654C94.7682 37.49 95.1319 38.5509 95.8897 39.2783C96.6171 40.0361 97.678 40.3998 99.0722 40.3998ZM123.411 43.6733C122.866 43.6733 122.502 43.5824 122.26 43.3702C122.017 43.1884 121.805 42.764 121.623 42.1881L114.5 18.7582C114.318 18.152 114.227 17.758 114.227 17.5458C114.227 17.0609 114.47 16.7881 114.955 16.7881H117.925C118.501 16.7881 118.895 16.879 119.107 17.0912C119.35 17.273 119.532 17.6974 119.714 18.2733L124.806 38.3387L129.534 18.2733C129.686 17.6671 129.868 17.273 130.11 17.0912C130.353 16.9093 130.777 16.7881 131.322 16.7881H133.747C134.323 16.7881 134.717 16.879 134.96 17.0912C135.202 17.273 135.414 17.6974 135.536 18.2733L140.325 38.5812L145.568 18.2733C145.75 17.6671 145.962 17.273 146.175 17.0912C146.417 16.9093 146.811 16.7881 147.357 16.7881H150.175C150.66 16.7881 150.933 17.0306 150.933 17.5458C150.933 17.6974 150.903 17.8489 150.873 18.0308C150.842 18.2127 150.782 18.4551 150.66 18.7886L143.356 42.2184C143.174 42.8247 142.962 43.2187 142.719 43.4006C142.477 43.5824 142.083 43.7037 141.567 43.7037H138.961C138.385 43.7037 137.991 43.6127 137.748 43.4006C137.506 43.1884 137.294 42.7943 137.172 42.1881L132.474 22.638L127.806 42.1578C127.655 42.764 127.473 43.1581 127.231 43.3702C126.988 43.5824 126.564 43.6733 126.018 43.6733H123.411ZM162.36 44.4917C160.784 44.4917 159.208 44.3099 157.692 43.9461C156.177 43.5824 154.995 43.1884 154.207 42.7337C153.722 42.4609 153.388 42.1578 153.267 41.885C153.146 41.6122 153.085 41.3091 153.085 41.0363V39.4905C153.085 38.854 153.328 38.5509 153.782 38.5509C153.964 38.5509 154.146 38.5812 154.328 38.6418C154.51 38.7024 154.783 38.8237 155.086 38.9449C156.116 39.3996 157.238 39.7633 158.42 40.0058C159.632 40.2483 160.814 40.3695 162.027 40.3695C163.936 40.3695 165.422 40.0361 166.452 39.3693C167.483 38.7024 168.028 37.7325 168.028 36.4898C168.028 35.6411 167.755 34.944 167.21 34.3681C166.664 33.7922 165.634 33.2769 164.149 32.7919L159.754 31.428C157.541 30.7308 155.904 29.7003 154.904 28.3363C153.904 27.0027 153.388 25.5174 153.388 23.9413C153.388 22.6683 153.661 21.5468 154.207 20.5769C154.752 19.6069 155.48 18.7582 156.389 18.0914C157.298 17.3943 158.329 16.879 159.541 16.5153C160.754 16.1516 162.027 16 163.36 16C164.027 16 164.724 16.0303 165.391 16.1212C166.088 16.2122 166.725 16.3334 167.361 16.4547C167.968 16.6062 168.544 16.7578 169.089 16.9396C169.635 17.1215 170.059 17.3033 170.362 17.4852C170.787 17.7277 171.09 17.9702 171.271 18.243C171.453 18.4854 171.544 18.8189 171.544 19.2432V20.6678C171.544 21.3043 171.302 21.6377 170.847 21.6377C170.605 21.6377 170.211 21.5165 169.695 21.274C167.968 20.4859 166.028 20.0919 163.876 20.0919C162.148 20.0919 160.784 20.3647 159.844 20.9406C158.905 21.5165 158.42 22.3955 158.42 23.6382C158.42 24.4869 158.723 25.2143 159.329 25.7902C159.935 26.3661 161.057 26.942 162.663 27.4573L166.967 28.8213C169.15 29.5184 170.726 30.4883 171.666 31.7311C172.605 32.9738 173.06 34.3984 173.06 35.9745C173.06 37.2779 172.787 38.46 172.272 39.4905C171.726 40.5211 170.999 41.4304 170.059 42.1578C169.119 42.9156 167.998 43.4612 166.695 43.8552C165.331 44.2796 163.906 44.4917 162.36 44.4917Z"></path>
<path fill="#FF9900" d="M168.088 59.2225C158.115 66.5879 143.627 70.4979 131.17 70.4979C113.711 70.4979 97.9797 64.0418 86.0981 53.312C85.1585 52.4633 86.0071 51.3115 87.1286 51.9783C99.9802 59.4347 115.833 63.9509 132.23 63.9509C143.294 63.9509 155.448 61.6473 166.633 56.9189C168.3 56.1612 169.724 58.0101 168.088 59.2225Z" clip-rule="evenodd" fill-rule="evenodd"></path>
<path fill="#FF9900" d="M172.24 54.4942C170.967 52.8574 163.814 53.7061 160.57 54.1001C159.601 54.2214 159.449 53.3727 160.328 52.7362C166.026 48.7352 175.392 49.887 176.483 51.2207C177.575 52.5846 176.18 61.9505 170.846 66.4365C170.027 67.1336 169.239 66.7699 169.603 65.8606C170.815 62.8598 173.513 56.1006 172.24 54.4942Z" clip-rule="evenodd" fill-rule="evenodd"></path>
</g>
<defs>
<clipPath id="clip0_3_530">
<rect transform="translate(84.8672 16)" fill="white" height="54.498" width="93"></rect>
</clipPath>
</defs>
</svg>
