<svg xmlns="http://www.w3.org/2000/svg" fill="none" viewBox="0 0 263 88" height="88" width="263">
<path fill="black" d="M159.213 26.0143H188.65V31.4659H176.972V60.1459H171.133V31.4659H159.213V26.0143Z"></path>
<path fill="black" d="M110.801 26.0143V31.4659H87.2054V40.2358H106.181V45.6874H87.2054V54.6944H110.801V60.1459H81.3667V31.4659H81.3643V26.0143H110.801Z"></path>
<path fill="black" d="M125.499 26.0284H117.858L145.227 60.1601H152.89L139.204 43.106L152.868 26.0545L145.227 26.0663L135.379 38.3388L125.499 26.0284Z"></path>
<path fill="black" d="M133.341 50.4089L129.514 45.6351L117.837 60.1861H125.5L133.341 50.4089Z"></path>
<path fill="black" d="M81.571 60.1459L54.1655 26H46.8672V60.1317H52.7059V33.2956L74.2361 60.1459H81.571Z" clip-rule="evenodd" fill-rule="evenodd"></path>
<path fill="black" d="M189.962 59.9374C189.535 59.9374 189.171 59.7888 188.866 59.4915C188.562 59.1943 188.411 58.8344 188.415 58.4081C188.411 57.9934 188.562 57.6375 188.866 57.3402C189.171 57.0429 189.535 56.8943 189.962 56.8943C190.374 56.8943 190.733 57.0429 191.038 57.3402C191.347 57.6375 191.501 57.9934 191.505 58.4081C191.501 58.6897 191.43 58.9478 191.287 59.1786C191.141 59.4133 190.955 59.5972 190.721 59.7301C190.492 59.8671 190.239 59.9374 189.962 59.9374Z"></path>
<path fill="black" d="M199.928 45.5587H202.515V55.5604C202.512 56.4796 202.313 57.2659 201.926 57.9269C201.534 58.5879 200.992 59.0925 200.296 59.4484C199.604 59.8005 198.793 59.9804 197.871 59.9804C197.028 59.9804 196.273 59.8279 195.6 59.5306C194.928 59.2333 194.394 58.7874 194.002 58.2007C193.606 57.614 193.412 56.8825 193.412 56.0064H196.004C196.008 56.3897 196.095 56.7221 196.261 56.9998C196.427 57.2776 196.656 57.4888 196.949 57.6374C197.245 57.7861 197.586 57.8604 197.97 57.8604C198.385 57.8604 198.741 57.7743 199.03 57.5983C199.319 57.4262 199.54 57.168 199.695 56.8238C199.845 56.4836 199.924 56.0611 199.928 55.5604V45.5587Z"></path>
<path fill="black" d="M213.161 49.4702C213.098 48.8639 212.821 48.3907 212.338 48.0543C211.851 47.714 211.222 47.5458 210.451 47.5458C209.909 47.5458 209.442 47.6279 209.054 47.7883C208.667 47.9526 208.366 48.1716 208.16 48.4493C207.955 48.727 207.852 49.0439 207.844 49.3999C207.844 49.6971 207.915 49.9553 208.053 50.1704C208.192 50.3894 208.378 50.5733 208.619 50.7219C208.856 50.8745 209.121 50.9996 209.411 51.1013C209.703 51.203 209.996 51.2891 210.289 51.3595L211.638 51.692C212.18 51.8171 212.706 51.9854 213.208 52.2005C213.711 52.4117 214.166 52.6816 214.565 53.0062C214.965 53.3309 215.281 53.722 215.515 54.1797C215.748 54.6373 215.867 55.1732 215.867 55.7912C215.867 56.6243 215.653 57.3558 215.222 57.9895C214.791 58.6192 214.17 59.1121 213.355 59.468C212.543 59.8201 211.562 60 210.407 60C209.292 60 208.318 59.8279 207.5 59.4837C206.677 59.1434 206.036 58.6427 205.573 57.9855C205.11 57.3284 204.861 56.5266 204.825 55.5839H207.389C207.425 56.0767 207.583 56.4875 207.852 56.8199C208.125 57.1485 208.481 57.391 208.916 57.5553C209.355 57.7157 209.845 57.7978 210.388 57.7978C210.953 57.7978 211.452 57.7117 211.883 57.5435C212.31 57.3753 212.646 57.1407 212.888 56.8356C213.133 56.5344 213.256 56.1785 213.26 55.7717C213.256 55.4001 213.145 55.091 212.931 54.8485C212.714 54.606 212.413 54.4026 212.029 54.2384C211.642 54.0741 211.191 53.9254 210.676 53.7964L209.039 53.3817C207.856 53.0805 206.918 52.6229 206.233 52.0088C205.545 51.3947 205.205 50.5811 205.205 49.5602C205.205 48.7232 205.434 47.9878 205.898 47.358C206.356 46.7283 206.985 46.2394 207.781 45.8912C208.58 45.5392 209.482 45.3671 210.486 45.3671C211.507 45.3671 212.401 45.5392 213.173 45.8912C213.944 46.2394 214.55 46.7244 214.988 47.3424C215.428 47.9604 215.657 48.6684 215.669 49.4702H213.161Z"></path>
</svg>
