<svg xmlns="http://www.w3.org/2000/svg" fill="none" viewBox="0 0 263 88" height="88" width="263">
<g clip-path="url(#clip0_3_194)">
<path fill="#663399" d="M66.4968 20C53.6499 20 43.1387 30.5112 43.1387 43.3582C43.1387 56.2052 53.6499 66.7163 66.4968 66.7163C79.3438 66.7163 89.855 56.2052 89.855 43.3582C89.855 30.5112 79.3438 20 66.4968 20ZM53.483 56.372C49.9793 52.8683 48.144 48.1967 48.144 43.6919L66.33 61.711C61.6584 61.5442 56.9867 59.8757 53.483 56.372ZM70.5011 61.2105L48.6445 39.3539C50.4798 31.1786 57.821 25.0053 66.4968 25.0053C72.6701 25.0053 78.0091 28.0085 81.346 32.5133L78.8433 34.6823C76.007 30.8449 71.5022 28.3422 66.4968 28.3422C59.9899 28.3422 54.4841 32.5133 52.3151 38.3529L71.5022 57.5399C76.3406 55.8715 80.0112 51.7004 81.1791 46.6951H73.1706V43.3582H84.8497C84.8497 52.0341 78.6765 59.3752 70.5011 61.2105Z"></path>
<path fill="black" d="M148.084 40.0213H152.755V56.7057H148.084V54.5367C146.415 57.0394 144.246 57.2062 142.911 57.2062C137.739 57.2062 134.402 53.202 134.402 48.3635C134.402 43.3582 137.739 39.5208 142.578 39.5208C143.912 39.5208 146.415 39.6876 147.917 42.1903V40.0213H148.084ZM139.408 48.3635C139.408 51.033 141.243 53.0351 144.079 53.0351C146.749 53.0351 148.751 51.033 148.751 48.3635C148.751 45.694 146.916 43.6919 144.079 43.6919C141.41 43.6919 139.408 45.694 139.408 48.3635Z"></path>
<path fill="black" d="M161.932 44.0255V56.7056H157.26V44.0255H155.425V40.0212H157.26V34.3485H161.932V40.0212H165.102V44.0255H161.932Z"></path>
<path fill="black" d="M176.113 44.0255C174.945 43.0245 173.944 42.8576 173.444 42.8576C172.276 42.8576 171.608 43.3582 171.608 44.1924C171.608 44.6929 171.775 45.1935 173.11 45.694L174.278 46.0277C175.613 46.5282 177.615 47.0287 178.449 48.3635C178.949 49.0309 179.283 50.0319 179.283 51.1998C179.283 52.7014 178.783 54.203 177.448 55.3709C176.113 56.5389 174.445 57.2062 172.442 57.2062C168.939 57.2062 167.103 55.5378 165.936 54.3699L168.438 51.5335C169.439 52.5346 170.774 53.5357 172.109 53.5357C173.444 53.5357 174.445 52.8683 174.445 51.7004C174.445 50.6993 173.61 50.1988 172.943 50.0319L171.942 49.6982C170.774 49.1977 169.439 48.6972 168.438 47.6961C167.604 46.8619 167.103 45.8608 167.103 44.5261C167.103 42.8576 167.938 41.5229 168.772 40.6887C170.107 39.6876 171.775 39.5208 173.11 39.5208C174.278 39.5208 176.28 39.6876 178.449 41.356L176.113 44.0255Z"></path>
<path fill="black" d="M186.291 42.1902C187.959 39.8543 190.295 39.5206 191.63 39.5206C196.468 39.5206 199.805 43.3581 199.805 48.3634C199.805 53.3687 196.468 57.2061 191.463 57.2061C190.462 57.2061 187.959 57.0393 186.124 54.5366V56.7056H181.619V28.6758H186.291V42.1902ZM185.79 48.3634C185.79 51.0329 187.626 53.035 190.462 53.035C193.131 53.035 195.134 51.0329 195.134 48.3634C195.134 45.6939 193.298 43.6917 190.462 43.6917C187.626 43.6917 185.79 45.6939 185.79 48.3634Z"></path>
<path fill="black" d="M207.48 54.2029L199.472 40.0211H204.978L210.15 49.5312L214.821 40.0211H220.16L206.813 65.5483H201.474L207.48 54.2029Z"></path>
<path fill="black" d="M133.234 42.8576H128.562H121.555V47.5292H127.728C126.727 50.6992 124.391 52.8682 120.053 52.8682C115.215 52.8682 111.711 48.864 111.711 44.0255C111.711 39.187 115.048 35.0159 119.887 35.0159C122.556 35.0159 125.226 36.3507 126.894 38.5196L130.731 36.017C128.229 32.5132 124.225 30.5111 119.887 30.5111C112.545 30.5111 106.539 36.5175 106.539 44.0255C106.539 51.5335 112.212 57.5399 119.887 57.5399C127.561 57.5399 133.234 51.5335 133.234 44.0255C133.401 43.5249 133.234 43.1913 133.234 42.8576Z"></path>
</g>
<defs>
<clipPath id="clip0_3_194">
<rect transform="translate(43 20)" fill="white" height="46.7163" width="177.133"></rect>
</clipPath>
</defs>
</svg>
