<svg xmlns="http://www.w3.org/2000/svg" fill="none" viewBox="0 0 263 88" height="88" width="263">
<path fill="#2E495E" d="M62.0244 28.3054C62.3616 28.6763 62.5976 29.182 62.5639 29.7215V57.2014C62.5639 57.7746 62.3616 58.3478 61.957 58.7861C61.7567 58.9942 61.5155 59.1586 61.2486 59.2689C60.9816 59.3791 60.6947 59.4329 60.406 59.4267C60.0688 59.4267 59.7316 59.3593 59.3944 59.2581C59.1219 59.1639 58.8781 59.0014 58.6864 58.7861L40.8834 35.6221V57.4037C40.8932 57.6704 40.8473 57.9363 40.7486 58.1843C40.6499 58.4323 40.5007 58.6571 40.3103 58.8442C40.12 59.0314 39.8928 59.1768 39.6432 59.2713C39.3935 59.3658 39.1269 59.4072 38.8604 59.393C38.3546 59.393 37.8489 59.1907 37.5117 58.8198C37.1449 58.4532 36.9387 57.956 36.9385 57.4374V29.8901C36.9385 29.3169 37.1745 28.7437 37.6128 28.3391C37.8018 28.1463 38.0274 27.9933 38.2764 27.8891C38.5254 27.7848 38.7928 27.7315 39.0627 27.7322C39.3999 27.7322 39.7708 27.7996 40.0742 27.9345C40.4114 28.0356 40.6811 28.2716 40.8834 28.5077L58.5852 51.7391V29.7215C58.5755 29.4548 58.6214 29.1889 58.7201 28.9409C58.8187 28.6929 58.968 28.4681 59.1583 28.281C59.3486 28.0938 59.5758 27.9484 59.8255 27.8539C60.0751 27.7594 60.3417 27.7179 60.6083 27.7322C61.114 27.7322 61.6198 27.9007 61.957 28.3054H62.0244ZM98.6755 28.3728C99.0464 28.8111 99.2824 29.3843 99.2487 29.9238V47.3221C99.2824 49.5475 98.7429 51.7728 97.6639 53.7285C96.6524 55.6166 95.1351 57.1677 93.2806 58.2129C91.3925 59.3256 89.2345 59.8988 87.0092 59.8651C84.8175 59.8651 82.6259 59.3256 80.6702 58.2466C78.8253 57.1974 77.3079 55.6566 76.287 53.7959C75.2114 51.8221 74.6655 49.6033 74.7022 47.3558V29.9575C74.7022 29.3843 74.9045 28.8111 75.3766 28.4065C75.7976 28.0006 76.3596 27.7738 76.9445 27.7738C77.5293 27.7738 78.0913 28.0006 78.5123 28.4065C78.9169 28.8111 79.153 29.3506 79.153 29.9575V47.2884C79.1192 48.772 79.4901 50.2218 80.2319 51.5368C80.9144 52.7327 81.9005 53.7272 83.0905 54.4199C84.2805 55.1125 85.6323 55.4789 87.0092 55.4818C88.0833 55.4863 89.1475 55.277 90.1399 54.866C91.1322 54.4551 92.0328 53.8506 92.7892 53.088C93.5455 52.3254 94.1425 51.4198 94.5453 50.4241C94.948 49.4283 95.1486 48.3624 95.1351 47.2884V29.9575C95.1351 29.3843 95.3037 28.8111 95.6746 28.3728C96.0792 27.9345 96.6187 27.6984 97.1919 27.7322C97.7651 27.7322 98.3046 27.9682 98.6755 28.3728ZM133.708 55.9538C133.966 56.33 134.096 56.7793 134.079 57.2351C134.113 57.8083 133.877 58.3815 133.438 58.7861C133.043 59.1512 132.526 59.3556 131.988 59.3593C131.28 59.393 130.606 59.0221 130.201 58.4489L121.435 46.7152L112.803 58.4489C112.612 58.7397 112.352 58.9783 112.046 59.1432C111.74 59.308 111.398 59.3939 111.05 59.393C110.51 59.393 110.038 59.1907 109.667 58.8198C109.33 58.4826 109.094 58.0106 109.094 57.5385C109.094 56.9991 109.297 56.4596 109.634 56.055L118.94 43.4109L109.6 30.8679C109.267 30.4611 109.099 29.9437 109.13 29.4188C109.161 28.8938 109.389 28.4 109.769 28.0356C110.086 27.7098 110.5 27.4946 110.949 27.4218C111.399 27.349 111.859 27.4223 112.264 27.631C112.588 27.7804 112.867 28.0131 113.073 28.3054L121.772 39.9717L130.336 28.4065C130.707 27.8333 131.348 27.4624 132.056 27.395C132.595 27.395 133.135 27.6647 133.506 28.0693C133.877 28.4065 134.113 28.9123 134.146 29.418C134.146 29.9238 133.978 30.3621 133.674 30.7667L124.233 43.3097L133.674 55.9538H133.708ZM166.246 28.3054C166.65 28.6763 166.92 29.2495 166.886 29.8227C166.886 30.3959 166.65 30.9353 166.212 31.3062C165.807 31.6771 165.234 31.8794 164.661 31.8457H156.636V57.2688C156.636 57.842 156.434 58.3815 155.995 58.7861C155.539 59.1891 154.952 59.4115 154.343 59.4115C153.735 59.4115 153.147 59.1891 152.691 58.7861C152.481 58.5927 152.313 58.3582 152.197 58.0973C152.081 57.8363 152.02 57.5544 152.017 57.2688V31.8457H143.992C143.419 31.8457 142.879 31.6771 142.441 31.2725C142.232 31.08 142.067 30.845 141.956 30.5833C141.846 30.3216 141.793 30.0392 141.8 29.7552C141.8 29.2157 142.003 28.6763 142.407 28.3054C142.846 27.9007 143.419 27.6984 143.958 27.7322H164.661C165.234 27.7322 165.807 27.9007 166.246 28.3054Z" clip-rule="evenodd" fill-rule="evenodd"></path>
<path fill="#00C48D" d="M176.091 58.6176C174.642 57.8084 173.394 56.5946 172.551 55.1447C172.315 54.8075 172.18 54.3692 172.146 53.9309C172.146 53.3577 172.383 52.8182 172.821 52.4473C173.192 52.0427 173.697 51.8404 174.237 51.7729C175.046 51.8741 175.788 52.2787 176.26 52.9193C177.272 54.6052 179.092 55.6168 181.014 55.5493C181.79 55.5719 182.562 55.4385 183.285 55.1572C184.009 54.8759 184.668 54.4523 185.224 53.9115C185.781 53.3707 186.223 52.7237 186.525 52.0089C186.827 51.294 186.983 50.5259 186.982 49.7499V29.9239C186.976 29.632 187.033 29.3423 187.15 29.0746C187.266 28.8068 187.439 28.5675 187.657 28.3729C188.095 27.9683 188.668 27.7323 189.241 27.7323C189.848 27.7323 190.421 27.9346 190.86 28.3392C191.06 28.5435 191.217 28.7862 191.322 29.0527C191.426 29.3193 191.475 29.6041 191.467 29.8902V49.7836C191.504 51.5672 191.052 53.3269 190.16 54.8722C189.269 56.4174 187.972 57.6893 186.409 58.5502C184.844 59.4406 183.077 59.9144 181.276 59.9262C179.475 59.938 177.702 59.4874 176.125 58.6176H176.091ZM207.28 58.7525C205.493 58.0781 203.841 57.0666 202.425 55.7179C202.144 55.5017 201.914 55.2267 201.751 54.9121C201.588 54.5976 201.496 54.2512 201.481 53.8972C201.484 53.6166 201.546 53.3399 201.662 53.0845C201.778 52.8291 201.946 52.6006 202.155 52.4136C202.341 52.2147 202.566 52.0554 202.815 51.9454C203.064 51.8353 203.333 51.7766 203.605 51.7729C204.111 51.7729 204.549 51.9415 204.92 52.2787C205.999 53.2902 207.28 54.1332 208.629 54.7401C210.045 55.2796 211.529 55.5493 213.012 55.5493C214.698 55.583 216.384 55.1447 217.834 54.2006C219.014 53.5263 219.789 52.2787 219.789 50.8963C219.823 49.4464 219.081 48.064 217.834 47.2548C216.021 46.2016 214.034 45.4822 211.967 45.1306C208.865 44.4562 206.471 43.4447 204.785 41.9948C203.099 40.545 202.29 38.5219 202.29 35.9594C202.256 34.2735 202.728 32.6213 203.706 31.2389C204.684 29.8902 205.999 28.8112 207.55 28.1369C211.047 26.742 214.936 26.682 218.475 27.9683C219.978 28.469 221.358 29.2852 222.521 30.3622C223.128 30.8343 223.532 31.5424 223.532 32.2841C223.533 32.5541 223.48 32.8214 223.375 33.0704C223.271 33.3194 223.118 33.5451 222.925 33.734C222.742 33.9482 222.515 34.1197 222.258 34.2362C222.002 34.3527 221.723 34.4115 221.442 34.4084C221.104 34.4084 220.7 34.2735 220.43 34.0375C218.447 32.2594 215.878 31.275 213.215 31.2726C211.529 31.1715 209.843 31.6098 208.393 32.4865C207.844 32.8529 207.393 33.3493 207.081 33.9316C206.77 34.5139 206.607 35.1641 206.607 35.8245C206.607 36.4849 206.77 37.1351 207.081 37.7174C207.393 38.2997 207.844 38.7961 208.393 39.1625C210.041 40.1343 211.843 40.8184 213.72 41.1856C215.71 41.5565 217.632 42.1971 219.486 42.9726C220.902 43.6133 222.116 44.5911 222.959 45.8724C223.836 47.3559 224.24 49.0081 224.173 50.7277C224.207 52.4136 223.701 54.032 222.723 55.3807C221.711 56.7969 220.295 57.8758 218.677 58.5502C215.008 59.9525 210.963 60.0241 207.247 58.7525H207.28Z" clip-rule="evenodd" fill-rule="evenodd"></path>
</svg>
