<svg xmlns="http://www.w3.org/2000/svg" fill="none" viewBox="0 0 263 88" height="88" width="263">
<g clip-path="url(#clip0_3_242)">
<path fill="url(#paint0_linear_3_242)" d="M73.7276 40.8971C75.4613 40.8137 76.9963 42.159 77.146 43.8944C77.7945 52.2897 70.2496 61.6782 59.4226 61.979C57.6871 62.0273 56.2415 60.6558 56.1936 58.9161C56.1457 57.1757 57.5133 55.7261 59.248 55.6779C66.4314 55.4785 70.9815 49.2746 70.7385 44.1963C70.6555 42.4577 71.9936 40.9805 73.7276 40.8971Z" clip-rule="evenodd" fill-rule="evenodd"></path>
<path fill="url(#paint1_linear_3_242)" d="M44.3097 40.7187C46.0455 40.7187 47.4528 42.1296 47.4528 43.8704C47.4528 51.1357 53.2942 55.8373 59.1292 55.6932C60.8643 55.6507 62.3056 57.0264 62.3486 58.7665C62.3911 60.5069 61.019 61.9521 59.2835 61.9951C50.1596 62.22 41.1357 54.9153 41.1357 43.8704C41.1357 42.1296 42.5743 40.7184 44.3101 40.7184L44.3097 40.7187Z" clip-rule="evenodd" fill-rule="evenodd"></path>
<path fill="url(#paint2_linear_3_242)" d="M65.875 44.1144C65.875 42.3325 67.3288 40.8879 69.1217 40.8879H73.8534C75.6467 40.8879 77.1452 42.3325 77.1452 44.1144C77.1452 45.8967 75.6467 47.3416 73.853 47.3416H69.1221C67.3291 47.3416 65.875 45.8967 65.875 44.1144Z"></path>
<path fill="url(#paint3_linear_3_242)" d="M55.9473 44.1194C55.9473 42.3346 57.3918 40.8876 59.1716 40.8876C60.9514 40.8876 62.3956 42.3346 62.3956 44.1194C62.3956 45.9038 60.9514 47.3512 59.1716 47.3512C57.3918 47.3512 55.9473 45.9038 55.9473 44.1194Z"></path>
<path fill="url(#paint4_linear_3_242)" d="M62.3063 29.021C62.3787 30.76 61.031 32.2287 59.2966 32.3007C51.8095 32.6129 47.2385 38.4972 47.4613 44.0845C47.5305 45.8235 46.209 47.2901 44.4743 47.3596C42.7395 47.4288 41.2145 46.025 41.1453 44.286C40.7827 35.1806 48.3645 26.1794 59.0355 26.0028C60.7702 25.9304 62.2343 27.2817 62.3063 29.021Z" clip-rule="evenodd" fill-rule="evenodd"></path>
<path fill="#1F344A" d="M101.33 42.4978H109.783L109.8 42.7468C109.836 43.2438 109.836 43.8778 109.836 44.0871V44.0892C109.836 47.2405 109.127 49.4602 107.386 51.6731L107.385 51.6735L107.384 51.6742C105.115 54.5229 102.056 56.0245 98.4695 56.0245C91.7196 56.0245 86.791 50.8416 86.791 43.7756C86.791 36.6075 91.6831 31.4231 98.4695 31.4231C102.055 31.4231 105.149 32.9233 107.384 35.7383L107.549 35.9455L104.96 38.0506L104.789 37.8594C103.888 36.8505 103.491 36.4553 102.898 36.0579L102.893 36.0544L102.889 36.0512C101.653 35.1462 100.079 34.6404 98.4695 34.6404C93.8577 34.6404 90.3102 38.5327 90.3102 43.7412C90.3102 48.8812 93.8591 52.8066 98.4 52.8066C100.882 52.8066 103.468 51.4883 104.838 49.5091L104.841 49.5056L104.843 49.5024C105.661 48.3956 106.007 47.3515 106.246 45.5412H101.329L101.33 42.4978ZM112.78 39.0152H115.952V40.8319C116.244 40.3331 116.548 39.9971 116.974 39.6647C117.827 38.9949 118.997 38.632 120.192 38.632H121.085V41.8855L120.783 41.8475C120.524 41.8152 120.263 41.8149 120.088 41.8149C118.755 41.8149 117.59 42.4322 116.843 43.5425L116.842 43.5432L116.841 43.5443C116.189 44.4936 115.952 45.3738 115.952 47.1887V55.6063H112.78V39.0152ZM126.722 39.0152V55.6063H123.549V39.0152H126.722ZM142.556 40.9975C141.053 39.3738 139.307 38.632 137.102 38.632C132.588 38.632 129.308 42.4066 129.308 47.398C129.308 52.3954 132.524 55.9894 137.102 55.9894C138.353 55.9894 139.43 55.7467 140.405 55.2118C141.185 54.7832 141.888 54.1731 142.556 53.3703V55.6063H145.728V31.8406H142.556V40.9975ZM160.301 43.9391H157.116V43.4971C157.116 42.8281 156.848 42.2966 156.381 41.9266C155.908 41.5517 155.209 41.3271 154.333 41.3271C153.491 41.3271 152.837 41.5428 152.398 41.8947C151.966 42.2424 151.723 42.739 151.723 43.3577C151.723 43.6855 151.764 43.9395 151.855 44.1523C151.944 44.3609 152.089 44.5461 152.323 44.7249C152.81 45.0939 153.653 45.4142 155.097 45.8158C157.155 46.3763 158.287 46.9137 159.101 47.7315C159.949 48.5829 160.462 49.7997 160.462 51.0548C160.462 52.527 159.855 53.7701 158.795 54.6399C157.74 55.5062 156.253 55.9894 154.506 55.9894C152.646 55.9894 151.155 55.5538 150.09 54.6697C149.021 53.7818 148.417 52.4717 148.274 50.799L148.249 50.5081H151.386L151.409 50.7504C151.491 51.6015 151.804 52.2262 152.306 52.6419C152.812 53.0606 153.542 53.2943 154.506 53.2943C155.364 53.2943 156.046 53.0708 156.507 52.704C156.962 52.3418 157.22 51.8271 157.22 51.1938C157.22 50.8746 157.169 50.6106 157.062 50.3825C156.956 50.1551 156.787 49.948 156.532 49.7521C156.011 49.3527 155.148 49.015 153.781 48.6676L153.779 48.6669L153.777 48.6666C152.024 48.1912 150.717 47.5754 149.847 46.7424C148.965 45.8988 148.55 44.8516 148.55 43.567C148.55 42.0958 149.148 40.8531 150.194 39.9826C151.237 39.1159 152.706 38.632 154.437 38.632C156.18 38.632 157.61 39.079 158.625 39.9457C159.645 40.8159 160.216 42.0834 160.288 43.6589L160.301 43.9391ZM181.742 39.0152H184.915V40.6832C185.398 40.0791 185.917 39.6147 186.499 39.2812C187.284 38.8311 188.165 38.632 189.191 38.632C190.321 38.632 191.27 38.8758 192.037 39.3969C192.676 39.8311 193.171 40.4462 193.537 41.2359C194.077 40.4108 194.693 39.7892 195.432 39.3603C196.303 38.8559 197.324 38.632 198.554 38.632C200.448 38.632 201.929 39.244 202.827 40.4448C203.228 40.9773 203.489 41.4913 203.645 42.2033C203.799 42.904 203.851 43.7909 203.851 45.0644V55.6063H200.679V45.6913C200.679 44.7136 200.661 44.1321 200.599 43.7149C200.539 43.313 200.44 43.0665 200.264 42.761C199.838 42.0292 198.902 41.536 197.722 41.536C196.625 41.536 195.805 41.9029 195.255 42.5783C194.697 43.2619 194.383 44.2989 194.383 45.6913V55.6066H191.21V45.7257C191.21 44.1683 191.07 43.4244 190.723 42.7894L190.721 42.7848L190.718 42.7802C190.326 41.9905 189.466 41.5357 188.358 41.5357C187.266 41.5357 186.417 41.9259 185.837 42.623C185.252 43.3272 184.915 44.3737 184.915 45.7257V55.6059H181.743L181.742 39.0152ZM222.699 48.4321H209.435C209.5 48.9546 209.586 49.3612 209.713 49.7198C209.862 50.1413 210.072 50.5088 210.39 50.9278L210.392 50.9299L210.393 50.9317C211.382 52.2904 212.827 53.0155 214.476 53.0155C216.359 53.0155 218.14 51.9857 219.027 50.4013L219.141 50.2005L221.956 51.2559L221.827 51.5209C220.461 54.2994 217.624 55.9894 214.476 55.9894C209.57 55.9894 206.057 52.3801 206.057 47.3629C206.057 42.2824 209.529 38.632 214.372 38.632C219.171 38.632 222.756 42.2732 222.756 47.1192V47.1223C222.756 47.3313 222.755 47.7928 222.72 48.188L222.699 48.4321ZM123.203 34.7553C123.203 33.6336 124.05 32.7807 125.17 32.7807C126.267 32.7807 127.104 33.6793 127.104 34.7901C127.104 35.8841 126.214 36.7298 125.136 36.7298C124.046 36.7298 123.203 35.8731 123.203 34.7553ZM141.18 43.1303C140.322 42.12 139.105 41.5357 137.657 41.5357C136.155 41.5357 134.904 42.1299 134.024 43.1534C133.141 44.18 132.619 45.6551 132.619 47.4324C132.619 49.1388 133.132 50.5709 133.99 51.5724C134.844 52.5706 136.053 53.1546 137.483 53.1546C140.39 53.1546 142.556 50.7312 142.556 47.3625C142.556 45.6026 142.042 44.1442 141.18 43.1303ZM164.998 41.0419C166.493 39.5093 168.611 38.6317 171.104 38.6317C175.98 38.6317 179.453 42.2814 179.453 47.3625C179.453 52.2074 175.731 55.989 171 55.989C168.556 55.989 166.464 55.0919 164.984 53.5469C163.504 52.0023 162.651 49.8266 162.651 47.2926C162.651 44.742 163.504 42.5737 164.998 41.0419ZM174.801 43.1661C173.915 42.1778 172.646 41.6052 171.104 41.6052C169.525 41.6052 168.23 42.1792 167.327 43.1679C166.422 44.1591 165.892 45.588 165.892 47.3277C165.892 49.0494 166.421 50.4701 167.322 51.4571C168.221 52.4419 169.509 53.0152 171.069 53.0152C174.053 53.0152 176.211 50.6876 176.211 47.3277C176.211 45.587 175.689 44.1573 174.801 43.1661ZM209.487 45.9453H219.383C219.27 44.9129 219.037 44.3099 218.558 43.6181C217.603 42.3303 216.055 41.5357 214.372 41.5357C212.69 41.5357 211.181 42.3293 210.296 43.6433C209.878 44.3035 209.675 44.8799 209.487 45.9453ZM125.17 33.0489C124.199 33.0489 123.471 33.7804 123.471 34.7553C123.471 35.7309 124.199 36.462 125.136 36.462C126.072 36.462 126.835 35.7309 126.835 34.7904C126.835 33.8152 126.107 33.0489 125.17 33.0489ZM125.17 33.0489C124.199 33.0489 123.471 33.7804 123.471 34.7553C123.471 35.7309 124.199 36.462 125.136 36.462C126.072 36.462 126.835 35.7309 126.835 34.7904C126.835 33.8152 126.107 33.0489 125.17 33.0489Z" clip-rule="evenodd" fill-rule="evenodd"></path>
</g>
<defs>
<linearGradient gradientUnits="userSpaceOnUse" y2="70.7762" x2="70.3281" y1="69.5244" x1="60.5879" id="paint0_linear_3_242">
<stop stop-color="#1A7D75"></stop>
<stop stop-color="#1A8864" offset="1"></stop>
</linearGradient>
<linearGradient gradientUnits="userSpaceOnUse" y2="56.0888" x2="37.4367" y1="43.0846" x1="42.3825" id="paint1_linear_3_242">
<stop stop-color="#168A81" offset="0.01293"></stop>
<stop stop-color="#31A97F" offset="1"></stop>
</linearGradient>
<linearGradient gradientUnits="userSpaceOnUse" y2="51.0536" x2="54.0424" y1="44.3361" x1="49.6121" id="paint2_linear_3_242">
<stop stop-color="#27A59B"></stop>
<stop stop-color="#64D8A2" offset="1"></stop>
</linearGradient>
<linearGradient gradientUnits="userSpaceOnUse" y2="52.5605" x2="55.6623" y1="44.796" x1="46.6992" id="paint3_linear_3_242">
<stop stop-color="#27A59B"></stop>
<stop stop-color="#64D8A2" offset="1"></stop>
</linearGradient>
<linearGradient gradientUnits="userSpaceOnUse" y2="-13.1059" x2="59.321" y1="-4.31751" x1="85.3586" id="paint4_linear_3_242">
<stop stop-color="#27A59B"></stop>
<stop stop-color="#64D8A2" offset="1"></stop>
</linearGradient>
<clipPath id="clip0_3_242">
<rect transform="translate(41.1328 26)" fill="white" height="36" width="181.623"></rect>
</clipPath>
</defs>
</svg>
