<svg xmlns:xlink="http://www.w3.org/1999/xlink" style="shape-rendering:geometricPrecision; text-rendering:geometricPrecision; image-rendering:optimizeQuality; fill-rule:evenodd; clip-rule:evenodd" height="401px" width="801px" version="1.1" xmlns="http://www.w3.org/2000/svg">
<g><path d="M 265.5,55.5 C 265.832,112.002 265.499,168.336 264.5,224.5C 262.442,214.045 257.108,205.712 248.5,199.5C 249.495,187.011 249.829,174.344 249.5,161.5C 259.26,160.558 263.094,155.225 261,145.5C 253.265,134.931 244.098,125.931 233.5,118.5C 234.497,97.6733 234.831,76.6733 234.5,55.5C 244.814,54.2185 255.147,54.2185 265.5,55.5 Z" fill="#56bd6f" style="opacity:0.999"></path></g>
<g><path d="M 234.5,55.5 C 234.831,76.6733 234.497,97.6733 233.5,118.5C 226.973,114.657 219.973,111.99 212.5,110.5C 210.972,109.691 209.306,109.024 207.5,108.5C 207.5,91.5 207.5,74.5 207.5,57.5C 216.452,56.2463 225.452,55.5796 234.5,55.5 Z" fill="#4bb468" style="opacity:0.997"></path></g>
<g><path d="M 265.5,55.5 C 269.269,55.244 272.936,55.5773 276.5,56.5C 276.5,144.5 276.5,232.5 276.5,320.5C 272.156,329.196 266.823,337.196 260.5,344.5C 260.831,313.329 260.498,282.329 259.5,251.5C 264.084,243.18 265.751,234.18 264.5,224.5C 265.499,168.336 265.832,112.002 265.5,55.5 Z" fill="#5bc171" style="opacity:0.995"></path></g>
<g><path d="M 276.5,56.5 C 283.105,56.1398 288.438,58.4731 292.5,63.5C 292.5,138.833 292.5,214.167 292.5,289.5C 288.454,300.594 283.121,310.927 276.5,320.5C 276.5,232.5 276.5,144.5 276.5,56.5 Z" fill="#60c573" style="opacity:0.993"></path></g>
<g><path d="M 207.5,57.5 C 207.5,74.5 207.5,91.5 207.5,108.5C 201.904,107.29 196.238,106.623 190.5,106.5C 190.5,91.1667 190.5,75.8333 190.5,60.5C 196.198,59.6269 201.864,58.6269 207.5,57.5 Z" fill="#41ad64" style="opacity:0.991"></path></g>
<g><path d="M 190.5,60.5 C 190.5,75.8333 190.5,91.1667 190.5,106.5C 181.767,106.409 173.101,107.076 164.5,108.5C 164.5,94.8333 164.5,81.1667 164.5,67.5C 173.084,64.854 181.751,62.5206 190.5,60.5 Z" fill="#39a75f" style="opacity:0.987"></path></g>
<g><path d="M 164.5,67.5 C 164.5,81.1667 164.5,94.8333 164.5,108.5C 159.096,109.685 153.763,111.185 148.5,113C 142.398,117.105 140.898,122.605 144,129.5C 145.543,131.378 147.376,132.878 149.5,134C 154.63,134.128 159.63,133.295 164.5,131.5C 164.83,149.008 164.497,166.341 163.5,183.5C 146.466,181.061 140.299,171.728 145,155.5C 146.192,148.551 143.692,143.551 137.5,140.5C 137.5,119.5 137.5,98.5 137.5,77.5C 146.187,73.3815 155.187,70.0482 164.5,67.5 Z" fill="#31a15b" style="opacity:0.993"></path></g>
<g><path d="M 292.5,63.5 C 293.885,64.5736 295.051,65.9069 296,67.5C 325.474,142.121 324.308,216.121 292.5,289.5C 292.5,214.167 292.5,138.833 292.5,63.5 Z" fill="#67ca77" style="opacity:0.978"></path></g>
<g><path d="M 137.5,77.5 C 137.5,98.5 137.5,119.5 137.5,140.5C 126.864,140.293 121.031,145.627 120,156.5C 117.362,174.204 123.196,188.204 137.5,198.5C 137.828,210.678 137.495,222.678 136.5,234.5C 129.307,229.722 123.14,230.722 118,237.5C 117.262,241.261 117.595,244.928 119,248.5C 124.698,255.364 130.865,261.697 137.5,267.5C 137.5,285.833 137.5,304.167 137.5,322.5C 127.947,317.231 118.947,311.231 110.5,304.5C 110.5,233.167 110.5,161.833 110.5,90.5C 119.201,85.5967 128.201,81.2633 137.5,77.5 Z" fill="#269855" style="opacity:0.994"></path></g>
<g><path d="M 110.5,90.5 C 110.5,161.833 110.5,233.167 110.5,304.5C 101.092,298.457 92.4257,291.457 84.5,283.5C 84.5,224.833 84.5,166.167 84.5,107.5C 92.6035,101.08 101.27,95.4136 110.5,90.5 Z" fill="#1c9150" style="opacity:0.993"></path></g>
<g><path d="M 84.5,107.5 C 84.5,166.167 84.5,224.833 84.5,283.5C 78.1667,279.167 72.8333,273.833 68.5,267.5C 68.5,218.167 68.5,168.833 68.5,119.5C 73.4372,115.025 78.7705,111.025 84.5,107.5 Z" fill="#158c4d" style="opacity:0.991"></path></g>
<g><path d="M 190.5,106.5 C 196.238,106.623 201.904,107.29 207.5,108.5C 209.306,109.024 210.972,109.691 212.5,110.5C 212.5,117.833 212.5,125.167 212.5,132.5C 200.248,128.742 187.915,127.742 175.5,129.5C 171.709,129.659 168.042,130.325 164.5,131.5C 159.63,133.295 154.63,134.128 149.5,134C 147.376,132.878 145.543,131.378 144,129.5C 140.898,122.605 142.398,117.105 148.5,113C 153.763,111.185 159.096,109.685 164.5,108.5C 173.101,107.076 181.767,106.409 190.5,106.5 Z" fill="#c2e4cd" style="opacity:1"></path></g>
<g><path d="M 212.5,110.5 C 219.973,111.99 226.973,114.657 233.5,118.5C 244.098,125.931 253.265,134.931 261,145.5C 263.094,155.225 259.26,160.558 249.5,161.5C 243.641,159.81 239.475,156.143 237,150.5C 232.926,145.921 228.426,141.921 223.5,138.5C 219.927,136.216 216.26,134.216 212.5,132.5C 212.5,125.167 212.5,117.833 212.5,110.5 Z" fill="#c8e8d1" style="opacity:1"></path></g>
<g><path d="M 68.5,119.5 C 68.5,168.833 68.5,218.167 68.5,267.5C 59.3174,258.795 51.3174,249.128 44.5,238.5C 44.5,206.167 44.5,173.833 44.5,141.5C 52.1742,133.826 60.1742,126.493 68.5,119.5 Z" fill="#0e8749" style="opacity:0.988"></path></g>
<g><path d="M 175.5,129.5 C 180.5,129.5 185.5,129.5 190.5,129.5C 190.5,148.167 190.5,166.833 190.5,185.5C 183.492,185.666 176.492,185.5 169.5,185C 167.292,184.809 165.292,184.309 163.5,183.5C 164.497,166.341 164.83,149.008 164.5,131.5C 168.042,130.325 171.709,129.659 175.5,129.5 Z" fill="#39a760" style="opacity:1"></path></g>
<g><path d="M 586.5,130.5 C 592.192,129.26 596.026,131.26 598,136.5C 598.333,161.167 598.667,185.833 599,210.5C 599.465,211.931 600.299,213.097 601.5,214C 610.8,213.3 614.3,217.467 612,226.5C 598.834,234.108 589.167,230.774 583,216.5C 581.378,189.541 581.044,162.541 582,135.5C 583.025,133.313 584.525,131.646 586.5,130.5 Z" fill="#222d29" style="opacity:0.929"></path></g>
<g><path d="M 623.5,130.5 C 629.706,129.178 633.539,131.511 635,137.5C 635.333,161.833 635.667,186.167 636,210.5C 636.465,211.931 637.299,213.097 638.5,214C 647.751,213.336 651.251,217.503 649,226.5C 637.398,233.58 628.065,231.247 621,219.5C 620.178,217.212 619.511,214.878 619,212.5C 618.333,186.833 618.333,161.167 619,135.5C 620.025,133.313 621.525,131.646 623.5,130.5 Z" fill="#222d29" style="opacity:0.938"></path></g>
<g><path d="M 175.5,129.5 C 187.915,127.742 200.248,128.742 212.5,132.5C 216.26,134.216 219.927,136.216 223.5,138.5C 223.83,155.342 223.497,172.008 222.5,188.5C 211.86,187.236 201.193,186.236 190.5,185.5C 190.5,166.833 190.5,148.167 190.5,129.5C 185.5,129.5 180.5,129.5 175.5,129.5 Z" fill="#46b166" style="opacity:1"></path></g>
<g><path d="M 137.5,140.5 C 143.692,143.551 146.192,148.551 145,155.5C 140.299,171.728 146.466,181.061 163.5,183.5C 165.292,184.309 167.292,184.809 169.5,185C 176.492,185.5 183.492,185.666 190.5,185.5C 201.193,186.236 211.86,187.236 222.5,188.5C 231.607,190.985 240.274,194.651 248.5,199.5C 257.108,205.712 262.442,214.045 264.5,224.5C 265.751,234.18 264.084,243.18 259.5,251.5C 254.406,255.065 249.072,255.398 243.5,252.5C 240.672,250.006 239.339,246.84 239.5,243C 245.091,227.353 239.757,217.519 223.5,213.5C 218.279,212.074 212.945,211.074 207.5,210.5C 198.528,209.653 189.528,209.32 180.5,209.5C 171.728,209.246 163.061,208.246 154.5,206.5C 148.701,204.228 143.034,201.561 137.5,198.5C 123.196,188.204 117.362,174.204 120,156.5C 121.031,145.627 126.864,140.293 137.5,140.5 Z" fill="#fcfdfd" style="opacity:1"></path></g>
<g><path d="M 44.5,141.5 C 44.5,173.833 44.5,206.167 44.5,238.5C 33.5768,223.672 24.4102,207.672 17,190.5C 15.6442,183.424 16.6442,176.757 20,170.5C 27.6557,160.349 35.8224,150.682 44.5,141.5 Z" fill="#068045" style="opacity:0.981"></path></g>
<g><path d="M 223.5,138.5 C 228.426,141.921 232.926,145.921 237,150.5C 239.475,156.143 243.641,159.81 249.5,161.5C 249.829,174.344 249.495,187.011 248.5,199.5C 240.274,194.651 231.607,190.985 222.5,188.5C 223.497,172.008 223.83,155.342 223.5,138.5 Z" fill="#50b86c" style="opacity:1"></path></g>
<g><path d="M 380.5,158.5 C 390.222,157.894 399.222,160.061 407.5,165C 412.231,167.956 414.064,172.122 413,177.5C 410.487,181.212 406.987,182.378 402.5,181C 399.167,179 395.833,177 392.5,175C 388.167,174.333 383.833,174.333 379.5,175C 373.318,177.388 372.985,180.388 378.5,184C 388.147,186.077 397.48,189.077 406.5,193C 415.002,200.707 416.836,209.874 412,220.5C 405.145,228.236 396.478,231.902 386,231.5C 377.233,231.577 369.066,229.41 361.5,225C 356.268,222.367 354.435,218.201 356,212.5C 358.541,207.931 362.375,206.431 367.5,208C 374.532,214.786 382.865,217.119 392.5,215C 398.993,213.194 399.993,209.861 395.5,205C 386.838,202.334 378.172,199.667 369.5,197C 359.843,192.061 356.343,184.228 359,173.5C 361.141,167.359 365.307,163.193 371.5,161C 374.678,160.34 377.678,159.507 380.5,158.5 Z" fill="#222d29" style="opacity:0.936"></path></g>
<g><path d="M 453.5,158.5 C 466.346,157.279 476.846,161.612 485,171.5C 486.281,181.463 482.115,184.63 472.5,181C 467.114,174.984 460.447,172.984 452.5,175C 445.464,177.369 441.297,182.202 440,189.5C 437.983,208.679 446.483,217.179 465.5,215C 469.303,213.014 473.137,211.181 477,209.5C 483.915,210.761 486.249,214.761 484,221.5C 467.961,234.269 451.461,234.769 434.5,223C 422.325,209.11 419.825,193.61 427,176.5C 433.039,166.28 441.872,160.28 453.5,158.5 Z" fill="#222d29" style="opacity:0.934"></path></g>
<g><path d="M 503.5,159.5 C 506.187,159.336 508.854,159.503 511.5,160C 513.333,160.5 514.5,161.667 515,163.5C 515.333,176.167 515.667,188.833 516,201.5C 517.758,210.926 523.425,215.592 533,215.5C 540.41,215.463 545.743,212.13 549,205.5C 549.333,191.5 549.667,177.5 550,163.5C 554.716,158.605 559.716,158.272 565,162.5C 566.643,183.411 566.977,204.411 566,225.5C 565.215,227.286 564.049,228.786 562.5,230C 559.5,230.667 556.5,230.667 553.5,230C 552.275,228.437 550.775,227.27 549,226.5C 531.87,235.216 516.87,232.549 504,218.5C 499.156,207.358 497.323,195.692 498.5,183.5C 498.667,177.5 498.833,171.5 499,165.5C 499.599,162.746 501.099,160.746 503.5,159.5 Z" fill="#222d29" style="opacity:0.946"></path></g>
<g><path d="M 652.5,159.5 C 655.93,159.107 659.096,159.773 662,161.5C 669.333,175.5 676.667,189.5 684,203.5C 690.079,188.571 696.912,174.071 704.5,160C 716.433,158.695 719.933,163.529 715,174.5C 702.725,201.382 690.725,228.382 679,255.5C 674.526,261.825 669.526,262.158 664,256.5C 663.333,253.833 663.333,251.167 664,248.5C 668.222,239.832 672.056,230.998 675.5,222C 665.64,203.947 656.307,185.614 647.5,167C 647.844,163.511 649.51,161.011 652.5,159.5 Z" fill="#222d29" style="opacity:0.935"></path></g>
<g><path d="M 137.5,198.5 C 143.034,201.561 148.701,204.228 154.5,206.5C 154.829,221.676 154.496,236.676 153.5,251.5C 146.833,246.833 141.167,241.167 136.5,234.5C 137.495,222.678 137.828,210.678 137.5,198.5 Z" fill="#2f9f5a" style="opacity:1"></path></g>
<g><path d="M 154.5,206.5 C 163.061,208.246 171.728,209.246 180.5,209.5C 181.153,227.864 180.487,245.864 178.5,263.5C 175.539,262.677 172.539,262.01 169.5,261.5C 163.83,258.667 158.497,255.334 153.5,251.5C 154.496,236.676 154.829,221.676 154.5,206.5 Z" fill="#37a55e" style="opacity:1"></path></g>
<g><path d="M 180.5,209.5 C 189.528,209.32 198.528,209.653 207.5,210.5C 207.5,228.833 207.5,247.167 207.5,265.5C 202.35,266.651 197.016,266.817 191.5,266C 186.899,265.851 182.566,265.018 178.5,263.5C 180.487,245.864 181.153,227.864 180.5,209.5 Z" fill="#41ad64" style="opacity:1"></path></g>
<g><path d="M 207.5,210.5 C 212.945,211.074 218.279,212.074 223.5,213.5C 223.5,229.833 223.5,246.167 223.5,262.5C 218.273,263.988 212.94,264.988 207.5,265.5C 207.5,247.167 207.5,228.833 207.5,210.5 Z" fill="#48b267" style="opacity:1"></path></g>
<g><path d="M 223.5,213.5 C 239.757,217.519 245.091,227.353 239.5,243C 239.339,246.84 240.672,250.006 243.5,252.5C 243.5,286.833 243.5,321.167 243.5,355.5C 236.761,355.488 230.095,354.821 223.5,353.5C 223.5,330.833 223.5,308.167 223.5,285.5C 228.249,284.294 232.915,282.794 237.5,281C 244.713,273.497 244.046,266.83 235.5,261C 231.305,260.191 227.305,260.691 223.5,262.5C 223.5,246.167 223.5,229.833 223.5,213.5 Z" fill="#4fb76b" style="opacity:0.996"></path></g>
<g><path d="M 136.5,234.5 C 141.167,241.167 146.833,246.833 153.5,251.5C 158.497,255.334 163.83,258.667 169.5,261.5C 169.201,269.253 169.534,276.92 170.5,284.5C 165.089,282.697 159.756,280.697 154.5,278.5C 148.564,275.227 142.897,271.561 137.5,267.5C 130.865,261.697 124.698,255.364 119,248.5C 117.595,244.928 117.262,241.261 118,237.5C 123.14,230.722 129.307,229.722 136.5,234.5 Z" fill="#bee1cb" style="opacity:1"></path></g>
<g><path d="M 259.5,251.5 C 260.498,282.329 260.831,313.329 260.5,344.5C 256.69,350.967 251.023,354.634 243.5,355.5C 243.5,321.167 243.5,286.833 243.5,252.5C 249.072,255.398 254.406,255.065 259.5,251.5 Z" fill="#55bc6e" style="opacity:0.992"></path></g>
<g><path d="M 432.5,253.5 C 499.501,253.333 566.501,253.5 633.5,254C 640.054,259.196 640.054,264.529 633.5,270C 566.5,270.667 499.5,270.667 432.5,270C 425.899,264.504 425.899,259.004 432.5,253.5 Z" fill="#3aa85f" style="opacity:0.993"></path></g>
<g><path d="M 223.5,285.5 C 209.242,287.296 194.909,287.963 180.5,287.5C 177.358,286.21 174.025,285.21 170.5,284.5C 169.534,276.92 169.201,269.253 169.5,261.5C 172.539,262.01 175.539,262.677 178.5,263.5C 182.566,265.018 186.899,265.851 191.5,266C 197.016,266.817 202.35,266.651 207.5,265.5C 212.94,264.988 218.273,263.988 223.5,262.5C 227.305,260.691 231.305,260.191 235.5,261C 244.046,266.83 244.713,273.497 237.5,281C 232.915,282.794 228.249,284.294 223.5,285.5 Z" fill="#c4e6cf" style="opacity:1"></path></g>
<g><path d="M 137.5,267.5 C 142.897,271.561 148.564,275.227 154.5,278.5C 154.5,295.833 154.5,313.167 154.5,330.5C 148.708,328.104 143.041,325.437 137.5,322.5C 137.5,304.167 137.5,285.833 137.5,267.5 Z" fill="#2e9f5a" style="opacity:0.99"></path></g>
<g><path d="M 154.5,278.5 C 159.756,280.697 165.089,282.697 170.5,284.5C 174.025,285.21 177.358,286.21 180.5,287.5C 180.5,305.5 180.5,323.5 180.5,341.5C 171.43,338.594 162.764,334.927 154.5,330.5C 154.5,313.167 154.5,295.833 154.5,278.5 Z" fill="#36a55e" style="opacity:0.99"></path></g>
<g><path d="M 223.5,285.5 C 223.5,308.167 223.5,330.833 223.5,353.5C 208.866,350.591 194.533,346.591 180.5,341.5C 180.5,323.5 180.5,305.5 180.5,287.5C 194.909,287.963 209.242,287.296 223.5,285.5 Z" fill="#43ae65" style="opacity:0.992"></path></g>
</svg>
