<svg xmlns="http://www.w3.org/2000/svg" fill="none" viewBox="0 0 262 88" height="88" width="262">
<path fill="black" d="M195.223 11.3924C195.191 11.5203 195.191 11.6482 195.223 11.7762C195.223 11.7762 195.636 14.4966 195.159 15.7126L175.587 67.0139C174.189 70.7902 176.063 74.9825 179.812 76.4229C183.562 77.8626 187.724 76.0067 189.218 72.2624L208.79 20.9611C209.172 19.969 211.364 18.0168 211.364 18.0168C211.46 17.9206 211.555 17.8247 211.618 17.7289V17.6968C211.618 17.6647 211.65 17.6647 211.65 17.6327C212.158 16.3209 208.886 13.8245 204.374 12.0645C199.862 10.3041 195.763 9.95197 195.255 11.2962C195.255 11.2962 195.223 11.3282 195.223 11.3924Z" opacity="0.1"></path>
<path fill="url(#paint0_linear_3_164)" d="M194.652 10.9441C194.62 11.0723 194.62 11.2003 194.652 11.3282C194.652 11.3282 195.065 14.0483 194.588 15.2646L175.016 66.5659C173.618 70.3423 175.493 74.5345 179.242 75.9746C182.992 77.4147 187.154 75.5587 188.647 71.8144L208.22 20.5131C208.601 19.521 210.794 17.5688 210.794 17.5688C210.889 17.4726 210.985 17.3768 211.048 17.2809V17.2488C211.048 17.2168 211.08 17.2168 211.08 17.1847C211.588 15.8726 208.315 13.3766 203.803 11.6162C199.291 9.85608 195.192 9.504 194.684 10.8482C194.684 10.8803 194.684 10.912 194.652 10.9441Z"></path>
<path fill="url(#paint1_linear_3_164)" d="M200.816 34.1466L186.676 71.1424C185.628 73.7987 182.609 75.1747 179.909 74.1188C177.208 73.0625 175.778 69.9582 176.763 67.3019L185.787 43.6515C185.787 43.6515 186.899 41.8273 189.123 40.5155C191.347 39.203 193.158 39.491 195.605 38.403C198.083 37.315 200.816 34.1466 200.816 34.1466Z"></path>
<path fill="#333333" d="M207.673 16.1148C207.955 15.3744 205.927 13.8971 203.145 12.8152C200.363 11.7333 197.879 11.4563 197.597 12.1963C197.316 12.9367 199.343 14.4137 202.125 15.4959C204.908 16.5778 207.391 16.8548 207.673 16.1148Z"></path>
<path fill="white" d="M194.519 11.3243C194.519 11.3243 194.93 14.0371 194.456 15.2498L175.011 66.4065C173.622 70.172 175.485 74.3527 179.21 75.7889C179.841 76.0442 180.504 76.2035 181.167 76.2356C179.921 75.2774 179.012 73.9422 178.575 72.426C178.137 70.9097 178.194 69.2922 178.736 67.8107L197.802 17.6753C197.802 17.6753 195.182 15.2178 194.519 11.3243Z" opacity="0.3"></path>
<g opacity="0.5">
<path fill="white" d="M188.27 44.8969C188.584 44.8969 188.839 44.6398 188.839 44.3226C188.839 44.0054 188.584 43.7483 188.27 43.7483C187.957 43.7483 187.702 44.0054 187.702 44.3226C187.702 44.6398 187.957 44.8969 188.27 44.8969Z"></path>
<path fill="white" d="M191.965 49.3011C192.435 49.3011 192.817 48.9153 192.817 48.4395C192.817 47.9636 192.435 47.5779 191.965 47.5779C191.494 47.5779 191.112 47.9636 191.112 48.4395C191.112 48.9153 191.494 49.3011 191.965 49.3011Z"></path>
<path fill="white" d="M186.314 54.9815C187.203 54.9815 187.924 54.2528 187.924 53.3539C187.924 52.4549 187.203 51.7262 186.314 51.7262C185.425 51.7262 184.704 52.4549 184.704 53.3539C184.704 54.2528 185.425 54.9815 186.314 54.9815Z"></path>
<path fill="white" d="M183.725 57.2155C184.196 57.2155 184.578 56.8298 184.578 56.3539C184.578 55.8781 184.196 55.4923 183.725 55.4923C183.255 55.4923 182.873 55.8781 182.873 56.3539C182.873 56.8298 183.255 57.2155 183.725 57.2155Z"></path>
<path fill="white" d="M187.102 63.3107C187.416 63.3107 187.671 63.0536 187.671 62.7364C187.671 62.4192 187.416 62.1621 187.102 62.1621C186.789 62.1621 186.534 62.4192 186.534 62.7364C186.534 63.0536 186.789 63.3107 187.102 63.3107Z"></path>
</g>
<path fill="black" d="M87.3518 41.1632C88.2095 41.8655 89.7665 41.4505 90.8149 40.3016C91.9273 39.0889 92.0861 37.5254 91.2281 36.8231C90.3702 36.1209 88.8134 36.5358 87.7647 37.7485C86.6527 38.9613 86.462 40.493 87.3518 41.1632ZM84.7782 43.429C84.5553 43.429 84.1424 43.8439 84.492 44.0036C84.9686 44.163 85.1911 44.5779 85.1911 45.1525C84.7782 47.5459 81.8228 50.2586 80.6793 51.1841C80.3931 51.4711 80.8063 52.1095 81.0922 51.8863C81.7277 51.3755 83.0622 50.3225 84.1424 48.9183C82.3631 52.9073 78.8682 58.0772 77.5336 59.8963C72.3227 67.1406 64.4108 73.8103 58.9777 73.8103C54.6245 73.8103 50.9391 70.8423 50.1445 66.5025C50.0808 66.0234 49.4454 65.9279 49.5724 66.566C50.5574 72.5337 55.1329 74.8633 60.6615 74.8633C66.7304 74.8633 73.8479 70.4594 77.7876 65.9279C84.1424 58.6198 88.2413 50.1945 87.1611 45.4395C86.7163 43.6845 85.477 43.3969 84.7782 43.429ZM123.828 59.3538C125.512 58.9388 126.878 58.0134 126.878 56.5455C126.878 56.3858 126.592 56.3858 126.592 56.5455C126.592 57.4071 125.607 58.141 124.495 58.3007C121.89 58.7153 116.742 55.6518 114.328 52.4923C116.933 53.4816 122.24 52.0457 124.749 50.2266C127.069 48.5351 127.99 46.6843 128.15 45.1843C128.435 42.695 125.734 41.2273 121.953 42.695C119.539 43.6845 116.647 45.8227 113.629 49.8437C116.806 44.5779 123.066 35.9615 129.198 30.4725C136.665 23.8028 140.986 25.0791 134.282 32.164C131.517 35.0678 126.307 38.8336 122.716 40.4613C121.604 40.94 122.144 41.5781 122.939 41.227C126.751 39.5359 131.835 36.0571 134.917 33.1529C144.004 24.3771 136.41 17.771 126.37 27.0578C119.539 33.3764 115.09 39.9826 111.214 48.5672C109.88 50.1945 108.895 51.5349 107.687 52.5562C107.528 52.6838 107.433 52.8114 107.337 52.9393C104.001 55.8115 98.7586 59.7049 95.4859 59.7366C93.1663 59.8008 92.1813 58.0452 92.5945 55.7797C93.23 52.2371 96.8838 48.0564 99.9977 46.6205C104.033 44.7693 106.416 48.3758 101.11 51.2476C99.0763 52.3009 96.6616 52.8752 95.6766 52.8752C94.5327 52.8752 94.6279 53.354 95.6129 53.386C97.2333 53.4498 99.8388 52.7479 101.555 51.9498C106.988 49.3332 107.337 44.4503 101.427 44.2909C95.0093 44.0674 87.32 49.5564 87.3836 56.4816C87.4473 59.609 89.9254 61.3005 93.3252 61.3005C99.0127 61.2363 104.065 56.8962 108.227 53.067C108.831 52.5562 109.403 52.0136 109.975 51.4393C108.513 55.1413 107.782 58.5877 108.132 61.1408C108.354 62.9919 109.403 63.8535 110.229 64.5558C110.388 64.6831 110.737 64.5558 110.515 64.2043C109.307 62.7684 109.657 58.4601 111.309 54.2797C112.707 57.088 118.141 60.6303 123.828 59.3538ZM116.997 47.2586C123.638 41.2912 126.243 46.6205 122.017 49.8755C119.824 51.5669 115.472 52.8435 114.105 52.0136L113.819 51.8542C113.66 51.5669 113.47 51.2796 113.343 50.9926C114.455 49.6202 115.726 48.4075 116.997 47.2586ZM153.918 40.4613C156.587 40.7483 155.475 37.4933 152.774 38.3232C151.567 38.674 150.391 41.0038 149.533 43.0144C146.864 47.0033 142.416 52.4606 139.302 55.3327C136.538 57.7261 133.996 58.3645 137.109 53.8965C138.381 52.1095 140.001 50.1945 140.922 48.2799C143.115 43.461 138.444 41.3229 134.663 44.2268C132.471 45.9182 129.516 49.3967 127.196 51.3117C126.561 51.8222 126.719 52.5879 127.355 52.0774C129.198 50.5777 132.439 47.131 135.235 45.1204C137.555 43.3334 138.476 44.4823 137.141 45.982C135.299 48.1202 132.057 51.8542 131.232 54.2156C130.088 57.7582 131.454 59.3217 133.773 59.3217C136.951 59.3217 141.685 54.3435 144.862 50.3863C145.911 49.0459 147.055 47.4821 148.04 45.982C145.275 51.3755 142.384 56.8324 138.794 61.7792C133.71 68.7362 127.355 73.97 121.318 73.97C116.965 73.97 113.216 71.002 112.421 66.6619C112.358 66.1831 111.786 66.0872 111.849 66.7257C112.834 72.6931 117.41 75.023 122.938 75.023C129.007 75.023 134.854 71.4807 138.952 67.1406C147.214 58.3642 148.199 48.5034 150.741 42.9823C151.948 40.4613 153.028 40.3657 153.918 40.4613ZM187.535 32.0357C188.742 29.9614 188.679 28.334 185.851 28.334C183.722 28.3979 179.845 29.8976 178.034 31.3017C177.621 31.7167 177.812 31.9398 178.32 31.7167C178.67 31.589 179.083 31.3655 179.464 31.2062C181.498 30.089 180.672 32.4189 180.227 33.2805C177.812 37.525 173.522 43.4925 171.267 46.4605C170.196 47.912 169.039 49.2974 167.803 50.6091C165.642 52.6838 161.353 56.3537 158.08 57.5661C147.563 61.5233 160.972 43.5245 162.084 42.0566C164.562 38.9292 170.122 33.4719 171.806 30.7274C173.014 28.6528 172.951 27.0254 170.122 27.0254C167.994 27.0896 164.117 28.5893 162.306 29.9934C161.893 30.4084 162.084 30.6316 162.592 30.4084C162.942 30.2808 163.355 30.0573 163.736 29.8976C165.77 28.7807 164.944 31.1103 164.499 31.9722C162.084 36.2164 157.795 42.1842 155.538 45.1522C153.696 47.6414 151.44 50.1304 149.692 51.5345C148.993 52.1092 149.406 52.6517 150.105 52.173C150.741 51.758 151.662 50.8326 152.711 49.7475C150.804 53.5771 149.247 58.9706 154.267 59.6087C158.557 60.183 163.641 55.8111 166.945 52.5558L168.121 51.3752L168.407 51.0879C166.5 54.9175 164.944 60.3109 169.963 60.949C175.461 61.7151 182.292 54.2794 184.93 51.5345C185.438 51.0241 185.279 50.1304 184.421 51.0241C182.864 52.6517 177.589 57.4705 173.777 58.9064C163.259 62.8637 176.668 44.8649 177.78 43.3969C180.29 40.2057 185.851 34.7481 187.535 32.0357Z" opacity="0.1"></path>
<path fill="url(#paint2_linear_3_164)" d="M86.7786 40.6206C87.6366 41.3229 89.1934 40.9079 90.2421 39.759C91.3541 38.5463 91.513 36.9828 90.655 36.2805C89.7973 35.5783 88.2402 35.9932 87.1919 37.2059C86.0798 38.4187 85.9207 39.9184 86.7786 40.6206ZM84.2369 42.8867C84.0143 42.8867 83.6014 43.3013 83.951 43.461C84.4275 43.6207 84.6498 44.0353 84.6498 44.6099C84.2369 47.0033 81.2815 49.716 80.138 50.6415C79.8521 50.9288 80.2653 51.5669 80.5509 51.3437C81.1867 50.8329 82.5209 49.7799 83.6014 48.3757C81.8218 52.3647 78.3268 57.5346 76.9923 59.3537C71.7814 66.598 63.8695 73.2677 58.4364 73.2677C54.0834 73.2677 50.3978 70.2997 49.6032 65.9599C49.5395 65.4808 48.9044 65.3853 49.0314 66.0234C50.0164 71.9911 54.5919 74.3207 60.1205 74.3207C66.1894 74.3207 73.3066 69.9168 77.2466 65.3853C83.6011 58.0772 87.7003 49.6522 86.6198 44.8972C86.1432 43.1099 84.9356 42.8226 84.2369 42.8867ZM123.255 58.8112C124.939 58.3962 126.305 57.4708 126.305 56.0029C126.305 55.8432 126.019 55.8432 126.019 56.0029C126.019 56.8645 125.035 57.5984 123.922 57.7581C121.317 58.1727 116.17 55.1095 113.755 51.9497C116.36 52.9393 121.666 51.5031 124.177 49.684C126.496 47.9925 127.418 46.1417 127.576 44.6417C127.862 42.1524 125.162 40.6847 121.38 42.1524C118.966 43.1419 116.074 45.2801 113.056 49.3011C116.233 44.0353 122.493 35.4189 128.625 29.9299C136.092 23.2602 140.413 24.5365 133.709 31.6214C130.944 34.5252 125.734 38.291 122.143 39.9187C121.031 40.3974 121.571 41.0355 122.365 40.6844C126.178 38.9933 131.262 35.5148 134.344 32.6103C143.432 23.8345 135.837 17.2284 125.797 26.5152C118.966 32.802 114.518 39.44 110.641 48.0246C109.306 49.6522 108.321 50.9926 107.114 52.0136C106.955 52.1412 106.86 52.2691 106.765 52.3967C103.428 55.2689 98.1854 59.1623 94.9127 59.194C92.5935 59.2582 91.6081 57.5026 92.0214 55.2371C92.6568 51.6945 96.3109 47.5138 99.4248 46.0779C103.46 44.227 105.843 47.8332 100.537 50.705C98.5032 51.7583 96.0884 52.3329 95.1034 52.3329C93.9595 52.3329 94.0551 52.8114 95.0397 52.8434C96.6602 52.9072 99.266 52.2053 100.982 51.4072C106.415 48.7906 106.765 43.9077 100.854 43.7483C94.4361 43.5248 86.7468 49.0138 86.8105 55.939C86.8741 59.0664 89.3522 60.7579 92.7523 60.7579C98.4398 60.6937 103.492 56.354 107.654 52.5244C108.258 52.0136 108.83 51.471 109.402 50.8967C107.94 54.5987 107.209 58.0451 107.559 60.5982C107.781 62.4493 108.83 63.3109 109.656 64.0132C109.815 64.1405 110.164 64.0132 109.942 63.6621C108.735 62.2258 109.084 57.9175 110.736 53.7371C112.166 56.5454 117.599 60.0877 123.255 58.8112ZM116.424 46.6839C123.065 40.7165 125.67 46.0458 121.444 49.3011C119.252 50.9926 114.899 52.2691 113.532 51.4393L113.246 51.2796C113.087 50.9926 112.897 50.7053 112.77 50.418C113.882 49.0776 115.153 47.8328 116.424 46.6839ZM153.345 39.919C156.014 40.2063 154.902 36.951 152.201 37.7809C150.994 38.1317 149.818 40.4616 148.96 42.4721C146.291 46.4611 141.843 51.9183 138.729 54.7904C135.965 57.1838 133.423 57.8223 136.537 53.3542C137.808 51.5672 139.428 49.6526 140.35 47.7376C142.542 42.9188 137.871 40.7806 134.09 43.6845C131.897 45.376 128.943 48.8544 126.623 50.7694C125.988 51.2799 126.147 52.0456 126.782 51.5351C128.625 50.0354 131.866 46.5887 134.662 44.5782C136.981 42.7911 137.903 43.9401 136.568 45.4398C134.725 47.5782 131.485 51.312 130.658 53.6736C129.515 57.2159 130.881 58.7794 133.2 58.7794C136.377 58.7794 141.112 53.8012 144.289 49.844C145.338 48.5036 146.482 46.9398 147.467 45.4398C144.703 50.8332 141.811 56.2905 138.221 61.2369C133.137 68.1939 126.782 73.4277 120.745 73.4277C116.392 73.4277 112.643 70.4597 111.848 66.1196C111.784 65.6408 111.213 65.545 111.276 66.1834C112.261 72.1508 116.837 74.4807 122.365 74.4807C128.434 74.4807 134.281 70.9384 138.38 66.5983C146.641 57.8219 147.626 47.9611 150.167 42.44C151.375 39.919 152.487 39.7914 153.345 39.919H153.345ZM186.962 31.4617C188.169 29.3874 188.106 27.7597 185.278 27.7597C183.149 27.8238 179.273 29.3235 177.461 30.7277C177.048 31.1426 177.239 31.3658 177.747 31.1426C178.097 31.015 178.51 30.7915 178.891 30.6318C180.925 29.515 180.099 31.8445 179.654 32.7065C177.239 36.9507 172.95 42.9184 170.693 45.8864C169.623 47.338 168.466 48.7234 167.23 50.0351C165.07 52.1094 160.78 55.7794 157.508 56.9921C146.99 60.9493 160.399 42.9505 161.511 41.4822C163.989 38.3548 169.55 32.8979 171.234 30.1534C172.441 28.0788 172.378 26.4514 169.55 26.4514C167.421 26.5152 163.544 28.0149 161.733 29.4191C161.32 29.834 161.511 30.0575 162.019 29.834C162.369 29.7064 162.782 29.4832 163.163 29.3235C165.197 28.2067 164.37 30.5363 163.926 31.3979C161.511 35.6424 157.221 41.6102 154.965 44.5778C153.122 47.0671 150.867 49.5564 149.119 50.9605C148.42 51.5348 148.833 52.0774 149.532 51.5986C150.167 51.184 151.089 50.2583 152.137 49.1735C150.231 53.0031 148.674 58.3962 153.694 59.0347C157.984 59.609 163.068 55.2368 166.372 51.9818L167.548 50.8008L167.834 50.5138C165.928 54.3435 164.37 59.7366 169.391 60.375C174.888 61.1407 181.719 53.7053 184.356 50.9605C184.865 50.45 184.706 49.5564 183.848 50.45C182.291 52.0774 177.017 56.8962 173.204 58.3324C162.687 62.2897 176.095 44.2909 177.207 42.8226C179.749 39.6314 185.277 34.1744 186.962 31.4617H186.962Z"></path>
<defs>
<linearGradient gradientUnits="userSpaceOnUse" y2="3267.29" x2="2741.8" y1="3068.75" x1="1051.04" id="paint0_linear_3_164">
<stop stop-color="#919191"></stop>
<stop stop-color="white" offset="1"></stop>
</linearGradient>
<linearGradient gradientUnits="userSpaceOnUse" y2="1888.31" x2="1845.91" y1="1743.32" x1="820.337" id="paint1_linear_3_164">
<stop stop-color="#990000"></stop>
<stop stop-color="#E80000" offset="1"></stop>
</linearGradient>
<linearGradient gradientUnits="userSpaceOnUse" y2="19.7061" x2="6983.58" y1="5259.28" x1="6983.58" id="paint2_linear_3_164">
<stop stop-color="#1A1A1A"></stop>
<stop stop-color="#4A4A4C" offset="0.4026"></stop>
<stop stop-color="#333333" offset="1"></stop>
</linearGradient>
</defs>
</svg>
